<svg width="37" height="37" viewBox="0 0 37 37" fill="none" xmlns="http://www.w3.org/2000/svg">
    <path d="M28.9162 18.3746L36.2129 11.0779C36.9279 10.3629 36.9279 9.20792 36.2129 8.49292L28.2563 0.53625C27.5413 -0.17875 26.3862 -0.17875 25.6712 0.53625L18.3746 7.83292L11.0779 0.53625C10.7113 0.187917 10.2529 0.00458338 9.77625 0.00458338C9.31792 0.00458338 8.84125 0.187917 8.49292 0.53625L0.53625 8.49292C-0.17875 9.20792 -0.17875 10.3629 0.53625 11.0779L7.83292 18.3746L0.53625 25.6712C-0.17875 26.3862 -0.17875 27.5412 0.53625 28.2562L8.49292 36.2129C9.20792 36.9279 10.3629 36.9279 11.0779 36.2129L18.3746 28.9163L25.6712 36.2129C26.0379 36.5796 26.4962 36.7446 26.9729 36.7446C27.4496 36.7446 27.9079 36.5613 28.2746 36.2129L36.2312 28.2562C36.9462 27.5412 36.9462 26.3862 36.2312 25.6712L28.9162 18.3746V18.3746ZM18.4112 12.8379C19.4196 12.8379 20.2446 13.6629 20.2446 14.6712C20.2446 15.6796 19.4196 16.5046 18.4112 16.5046C17.4029 16.5046 16.5779 15.6796 16.5779 14.6712C16.5779 13.6629 17.4029 12.8379 18.4112 12.8379ZM9.77625 16.4312L3.12125 9.79458L9.77625 3.13958L16.4129 9.77625L9.77625 16.4312ZM14.7446 20.1712C13.7362 20.1712 12.9113 19.3462 12.9113 18.3379C12.9113 17.3296 13.7362 16.5046 14.7446 16.5046C15.7529 16.5046 16.5779 17.3296 16.5779 18.3379C16.5779 19.3462 15.7529 20.1712 14.7446 20.1712ZM18.4112 23.8379C17.4029 23.8379 16.5779 23.0129 16.5779 22.0046C16.5779 20.9962 17.4029 20.1712 18.4112 20.1712C19.4196 20.1712 20.2446 20.9962 20.2446 22.0046C20.2446 23.0129 19.4196 23.8379 18.4112 23.8379ZM22.0779 16.5046C23.0862 16.5046 23.9112 17.3296 23.9112 18.3379C23.9112 19.3462 23.0862 20.1712 22.0779 20.1712C21.0696 20.1712 20.2446 19.3462 20.2446 18.3379C20.2446 17.3296 21.0696 16.5046 22.0779 16.5046ZM26.9546 33.6279L20.2996 26.9912L26.9546 20.3362L33.5913 26.9729L26.9546 33.6279Z"
          fill="black"/>
</svg>
