<svg width="15" height="18" viewBox="0 0 15 18" fill="none" xmlns="http://www.w3.org/2000/svg">
    <path d="M10.4688 0.75H1.5625C1.22852 0.76237 0.950195 0.879883 0.727539 1.10254C0.504883 1.3252 0.38737 1.60352 0.375 1.9375V16.1875C0.38737 16.5215 0.504883 16.7998 0.727539 17.0225C0.950195 17.2451 1.22852 17.3626 1.5625 17.375H13.4375C13.7715 17.3626 14.0498 17.2451 14.2725 17.0225C14.4951 16.7998 14.6126 16.5215 14.625 16.1875V4.90625L10.4688 0.75ZM1.5625 1.9375H6.3125C6.1888 1.97461 6.0651 2.05501 5.94141 2.17871C5.83008 2.29004 5.7373 2.47559 5.66309 2.73535C5.53939 3.2054 5.50228 3.78678 5.55176 4.47949C5.61361 5.15983 5.74967 5.87109 5.95996 6.61328C5.67546 7.47917 5.23633 8.5306 4.64258 9.76758C4.04883 11.0046 3.6901 11.7344 3.56641 11.957C3.4056 12.0065 3.13346 12.124 2.75 12.3096C2.36654 12.4827 1.9707 12.7363 1.5625 13.0703V1.9375ZM6.81348 7.63379C7.35775 8.96973 7.82161 9.7985 8.20508 10.1201C8.60091 10.4417 8.97201 10.652 9.31836 10.751C8.5638 10.8623 7.84635 10.9922 7.16602 11.1406C6.49805 11.2891 5.7806 11.5241 5.01367 11.8457C5.03841 11.821 5.27962 11.3262 5.7373 10.3613C6.20736 9.39648 6.56608 8.4873 6.81348 7.63379ZM13.4375 16.1875H2.15625C2.08203 16.1875 2.014 16.1751 1.95215 16.1504C2.19954 16.0762 2.49023 15.903 2.82422 15.6309C3.36849 15.1855 4.07357 14.2454 4.93945 12.8105C5.31055 12.6621 5.63216 12.5384 5.9043 12.4395L6.40527 12.2725C6.94954 12.124 7.51855 12.0003 8.1123 11.9014C8.70605 11.79 9.29362 11.7035 9.875 11.6416C10.4069 11.9014 10.9574 12.1117 11.5264 12.2725C12.1077 12.4209 12.5964 12.5137 12.9922 12.5508C13.1654 12.5508 13.3138 12.5384 13.4375 12.5137V16.1875ZM13.4375 10.417C13.2148 10.2809 12.9613 10.1758 12.6768 10.1016C12.4046 10.015 12.1077 9.96549 11.7861 9.95312C11.3285 9.95312 10.8398 9.98405 10.3203 10.0459C10.0482 9.97168 9.65853 9.7181 9.15137 9.28516C8.65658 8.85221 8.13704 7.93066 7.59277 6.52051C7.74121 5.53092 7.82161 4.75163 7.83398 4.18262C7.85872 3.60124 7.85872 3.30436 7.83398 3.29199C7.88346 2.80957 7.80306 2.46322 7.59277 2.25293C7.39486 2.04264 7.15365 1.9375 6.86914 1.9375H9.875L13.4375 5.5V10.417Z"
          fill="black"/>
</svg>
