<svg width="19" height="16" viewBox="0 0 19 16" fill="none" xmlns="http://www.w3.org/2000/svg">
    <path d="M14.9286 5.85714C14.9286 2.85658 11.5887 0.428571 7.46429 0.428571C3.33984 0.428571 0 2.85658 0 5.85714C0 7.57478 1.10268 9.11216 2.82031 10.1088C2.45982 10.9888 1.9933 11.4023 1.5798 11.8689C1.46317 12.0067 1.32533 12.1339 1.36775 12.3354C1.39955 12.5156 1.54799 12.6429 1.70703 12.6429C1.71763 12.6429 1.72824 12.6429 1.73884 12.6429C2.05692 12.6004 2.3644 12.5474 2.65067 12.4732C3.72154 12.1975 4.71819 11.7416 5.59821 11.1161C6.19196 11.2221 6.81752 11.2857 7.46429 11.2857C11.5887 11.2857 14.9286 8.8577 14.9286 5.85714ZM19 8.57143C19 6.80078 17.8337 5.23158 16.0419 4.24554C16.2009 4.76507 16.2857 5.3058 16.2857 5.85714C16.2857 7.75502 15.3103 9.50446 13.5396 10.798C11.8962 11.9855 9.74386 12.6429 7.46429 12.6429C7.15681 12.6429 6.83873 12.6217 6.53125 12.6004C7.85659 13.4699 9.61663 14 11.5357 14C12.1825 14 12.808 13.9364 13.4018 13.8304C14.2818 14.4559 15.2785 14.9118 16.3493 15.1875C16.6356 15.2617 16.9431 15.3147 17.2612 15.3571C17.4308 15.3783 17.5898 15.2405 17.6323 15.0497C17.6747 14.8482 17.5368 14.721 17.4202 14.5831C17.0067 14.1166 16.5402 13.7031 16.1797 12.8231C17.8973 11.8265 19 10.2997 19 8.57143Z"
          fill="black"/>
</svg>
