<svg width="17" height="17" viewBox="0 0 17 17" fill="none" xmlns="http://www.w3.org/2000/svg">
    <path d="M8.49735 0.0714278C4.00181 0.0714278 0.354492 3.71875 0.354492 8.21429C0.354492 12.7098 4.00181 16.3571 8.49735 16.3571C12.9929 16.3571 16.6402 12.7098 16.6402 8.21429C16.6402 3.71875 12.9929 0.0714278 8.49735 0.0714278ZM9.85449 13.293C9.85449 13.4838 9.70606 13.6429 9.52581 13.6429H7.4901C7.29925 13.6429 7.14021 13.4838 7.14021 13.293V11.2785C7.14021 11.0876 7.29925 10.9286 7.4901 10.9286H9.52581C9.70606 10.9286 9.85449 11.0876 9.85449 11.2785V13.293ZM9.83329 9.64565C9.82268 9.79408 9.66364 9.91071 9.4728 9.91071H7.5113C7.30985 9.91071 7.15081 9.79408 7.15081 9.64565L6.97056 3.06138C6.97056 2.98716 7.00237 2.91295 7.07659 2.87054C7.14021 2.81752 7.23563 2.78571 7.33106 2.78571H9.66364C9.75907 2.78571 9.85449 2.81752 9.91811 2.87054C9.99233 2.91295 10.0241 2.98716 10.0241 3.06138L9.83329 9.64565Z"
          fill="black"/>
</svg>
