<svg width="9" height="13" viewBox="0 0 9 13" fill="none" xmlns="http://www.w3.org/2000/svg">
<path d="M1.28516 1.88281C2.14193 1.04427 3.17188 0.625 4.375 0.625C5.57812 0.625 6.60807 1.04427 7.46484 1.88281C8.32161 2.72135 8.75 3.73307 8.75 4.91797C8.75 5.86589 8.38542 7.00521 7.65625 8.33594C6.92708 9.66667 6.19792 10.7604 5.46875 11.6172L4.375 12.875C4.2474 12.7474 4.08333 12.5651 3.88281 12.3281C3.70052 12.1094 3.35417 11.6719 2.84375 11.0156C2.35156 10.3594 1.91406 9.72135 1.53125 9.10156C1.14844 8.48177 0.792969 7.77995 0.464844 6.99609C0.154948 6.21224 0 5.51953 0 4.91797C0 3.73307 0.428385 2.72135 1.28516 1.88281ZM3.25391 6.01172C3.5638 6.30339 3.9375 6.44922 4.375 6.44922C4.8125 6.44922 5.17708 6.30339 5.46875 6.01172C5.77865 5.70182 5.93359 5.33724 5.93359 4.91797C5.93359 4.4987 5.77865 4.14323 5.46875 3.85156C5.17708 3.54167 4.8125 3.38672 4.375 3.38672C3.9375 3.38672 3.5638 3.54167 3.25391 3.85156C2.96224 4.14323 2.81641 4.4987 2.81641 4.91797C2.81641 5.33724 2.96224 5.70182 3.25391 6.01172Z" fill="black"/>
</svg>
