<svg width="12" height="8" viewBox="0 0 12 8" fill="none" xmlns="http://www.w3.org/2000/svg">
    <path d="M0.519531 0.824219C0.33724 0.733073 0.21875 0.632812 0.164062 0.523438C0.127604 0.414062 0.127604 0.341146 0.164062 0.304688C0.21875 0.268229 0.328125 0.25 0.492188 0.25H5.71484H10.9375C11.1016 0.25 11.2018 0.268229 11.2383 0.304688C11.293 0.341146 11.3021 0.414062 11.2656 0.523438C11.2109 0.632812 11.0924 0.733073 10.9102 0.824219C7.90234 2.46484 6.36198 3.30339 6.28906 3.33984C6.14323 3.41276 5.95182 3.44922 5.71484 3.44922C5.47786 3.44922 5.28646 3.41276 5.14062 3.33984C5.06771 3.30339 3.52734 2.46484 0.519531 0.824219ZM11.1562 0.933594C11.2839 0.915365 11.3477 0.915365 11.3477 0.933594C11.3659 0.933594 11.375 0.979167 11.375 1.07031V6.67578C11.375 6.80339 11.3021 6.93099 11.1562 7.05859C11.0286 7.1862 10.901 7.25 10.7734 7.25H5.71484H0.65625C0.510417 7.25 0.364583 7.1862 0.21875 7.05859C0.0729167 6.93099 0 6.80339 0 6.67578V1.07031C0 0.90625 0.0820312 0.860677 0.246094 0.933594C0.300781 0.970052 0.528646 1.125 0.929688 1.39844C1.33073 1.65365 1.82292 1.98177 2.40625 2.38281C3.00781 2.78385 3.49089 3.10286 3.85547 3.33984L1.58594 5.88281C1.53125 5.9375 1.52214 5.98307 1.55859 6.01953C1.57682 6.03776 1.60417 6.04688 1.64062 6.04688C1.67708 6.02865 1.70443 6.01042 1.72266 5.99219L4.40234 3.72266C4.78516 3.97786 5.03125 4.13281 5.14062 4.1875C5.28646 4.26042 5.47786 4.29688 5.71484 4.29688C5.95182 4.29688 6.14323 4.26042 6.28906 4.1875C6.39844 4.13281 6.64453 3.97786 7.02734 3.72266L9.70703 5.99219C9.72526 6.01042 9.7526 6.02865 9.78906 6.04688C9.82552 6.04688 9.85286 6.03776 9.87109 6.01953C9.88932 6.0013 9.87109 5.95573 9.81641 5.88281L7.57422 3.33984C7.9388 3.10286 8.41276 2.78385 8.99609 2.38281C9.57943 1.98177 10.0716 1.65365 10.4727 1.39844C10.8737 1.125 11.1016 0.970052 11.1562 0.933594Z"
          fill="black"/>
</svg>
