<svg width="11" height="11" viewBox="0 0 11 11" fill="none" xmlns="http://www.w3.org/2000/svg">
<path d="M9.92578 7.80078C10.0898 7.80078 10.2266 7.85547 10.3359 7.96484C10.4453 8.07422 10.5 8.21094 10.5 8.375V10.4258C10.5 10.5898 10.4453 10.7266 10.3359 10.8359C10.2266 10.9453 10.0898 11 9.92578 11C7.17318 11 4.83073 10.0339 2.89844 8.10156C0.966146 6.16927 0 3.82682 0 1.07422C0 0.910156 0.0546875 0.773438 0.164062 0.664062C0.273438 0.554688 0.410156 0.5 0.574219 0.5H2.625C2.78906 0.5 2.92578 0.554688 3.03516 0.664062C3.14453 0.773438 3.19922 0.910156 3.19922 1.07422C3.19922 1.82161 3.31771 2.52344 3.55469 3.17969C3.6276 3.39844 3.58203 3.58984 3.41797 3.75391L2.13281 5.03906C3.00781 6.73438 4.29297 8.01953 5.98828 8.89453L7.27344 7.60938C7.40104 7.44531 7.59245 7.39974 7.84766 7.47266C8.55859 7.69141 9.2513 7.80078 9.92578 7.80078Z" fill="black"/>
</svg>
