<svg width="244" height="177" viewBox="0 0 244 177" fill="none" xmlns="http://www.w3.org/2000/svg">
<path d="M129.606 52.6485C130.161 54.6047 130.815 56.4649 131.558 58.0589C132.283 59.6164 133.083 60.9055 133.939 61.7497C136.123 63.9046 139.454 65.4778 144.819 68.0113L145.859 68.5029C151.045 70.9564 154.532 80.5316 157.168 87.7676L157.445 88.5275C160.854 86.2082 163.862 84.7493 166.776 84.5178C170.108 84.2529 173.146 85.5373 176.241 88.872C178.122 88.4182 179.829 88.6792 181.424 90.7338C182.908 92.647 184.082 94.2208 184.655 96.0241C185.274 97.9716 185.158 99.9788 183.935 102.529C183.807 102.797 183.615 103.014 183.387 103.17C183.587 103.77 183.726 104.333 183.812 104.87C185.477 106.646 187.03 109.856 187.892 111.637L187.997 111.855L187.992 111.857C189.15 114.248 189.549 117.094 188.683 119.732C187.946 121.979 186.321 124.044 183.512 125.511C183.344 125.599 183.171 125.689 182.993 125.78C183.097 125.84 183.205 125.901 183.316 125.962C184.049 126.361 184.934 126.768 186.012 127.232C187.452 125.688 189.195 124.435 191.143 123.57C193.085 122.708 195.228 122.23 197.476 122.23C201.823 122.23 205.76 124.008 208.609 126.884C211.458 129.76 213.221 133.733 213.221 138.121C213.221 139.092 213.133 140.044 212.967 140.97C213.273 141.461 213.514 142.03 213.691 142.656C214.194 144.439 214.199 146.82 213.677 149.119C213.151 151.437 212.079 153.726 210.427 155.318C209.526 156.188 208.459 156.85 207.222 157.205C205.613 157.667 203.28 158.319 201.053 158.842C198.741 159.385 196.529 159.785 195.266 159.701C189.751 159.335 188.152 153.534 186.874 148.895L186.849 148.806C186.423 150.624 185.769 152.448 185.122 154.248C184.752 155.28 184.384 156.304 184.06 157.342C183.968 157.639 184.788 160.907 185.514 163.8C185.612 164.192 185.709 164.577 185.819 165.023C195.236 165.978 204.231 165.115 213.066 164.266C214.054 164.171 215.037 164.077 216.31 163.959C220.524 163.567 224.713 163.229 228.925 163.14C233.173 163.05 237.425 163.212 241.71 163.823C242.598 163.946 243.218 164.773 243.095 165.669C242.972 166.564 242.153 167.19 241.266 167.066C237.144 166.478 233.062 166.322 228.988 166.409C224.878 166.496 220.755 166.829 216.602 167.215C215.721 167.297 214.546 167.409 213.371 167.522C204.651 168.36 195.777 169.211 186.421 168.372C186.416 170.301 185.523 172.821 181.075 174.125C179.442 174.604 175.717 174.901 171.948 174.996C167.989 175.096 163.907 174.98 162.108 174.623C161.935 174.589 161.713 174.538 161.445 174.473C158.138 173.665 156.427 172.034 155.569 170.43C154.666 168.743 154.731 167.058 154.878 166.303L154.916 166.145C155.156 165.143 155.322 164.483 155.494 163.799C156.22 160.906 157.039 157.639 156.947 157.342C156.623 156.304 156.256 155.28 155.885 154.248C155.521 153.234 155.154 152.212 154.827 151.188C155.174 154.74 155.046 158.382 154.919 161.983C154.885 162.925 154.852 163.864 154.83 164.692C154.716 169.019 151.585 171.317 147.086 172.371C143.529 173.204 139.051 173.231 134.671 172.9C131.935 174.547 127.407 175.434 122.51 175.817C115.622 176.356 107.854 175.927 103.562 175.225C99.3469 174.536 95.4258 173.389 92.6426 171.598C90.0128 169.906 88.3586 167.653 88.2801 164.692C88.2581 163.864 88.225 162.925 88.1917 161.982C88.0647 158.381 87.9363 154.74 88.2835 151.188C87.9564 152.212 87.5895 153.233 87.2254 154.248C86.8547 155.28 86.4871 156.304 86.1636 157.342C86.0709 157.639 86.8907 160.906 87.6167 163.799C87.7883 164.483 87.9539 165.143 88.1944 166.145L88.2324 166.303C88.3794 167.058 88.4438 168.743 87.5413 170.43C86.6828 172.034 84.9723 173.665 81.6655 174.473C81.3971 174.538 81.175 174.589 81.002 174.623C79.203 174.98 75.1215 175.096 71.1624 174.996C67.3931 174.901 63.6678 174.604 62.0352 174.125C57.5872 172.821 56.6943 170.301 56.6895 168.372C47.3334 169.211 38.4596 168.36 29.739 167.522C28.5639 167.409 27.3892 167.297 26.508 167.215C22.355 166.829 18.2326 166.496 14.1218 166.409C10.0478 166.322 5.96645 166.478 1.84437 167.066C0.957092 167.19 0.138237 166.564 0.0155036 165.669C-0.107271 164.773 0.512551 163.946 1.39983 163.823C5.68571 163.212 9.93713 163.05 14.1853 163.14C18.3968 163.229 22.5864 163.567 26.8002 163.959C28.0732 164.077 29.0563 164.171 30.0438 164.266C38.879 165.115 47.8745 165.978 57.2918 165.023C57.4016 164.577 57.4982 164.192 57.5966 163.8C58.3227 160.907 59.1427 157.639 59.0499 157.342C58.7264 156.304 58.3588 155.28 57.9881 154.248C57.3418 152.448 56.6869 150.624 56.2612 148.806L56.2367 148.895C54.9581 153.534 53.3592 159.335 47.8443 159.701C46.5812 159.785 44.3689 159.385 42.0569 158.842C39.8302 158.319 37.4974 157.667 35.8881 157.205C34.0961 156.69 32.6687 155.54 31.5868 154.054C30.4185 152.45 29.6621 150.44 29.2987 148.453C28.8646 146.079 29.0168 144.112 29.6972 142.28C30.3619 140.49 31.5025 138.909 33.0731 137.25C33.1127 137.208 33.1541 137.168 33.1969 137.131L31.6825 87.5339C31.4611 87.5755 31.2257 87.6316 30.9701 87.7029C30.2799 87.8952 29.5986 87.9201 28.9989 87.7887C28.3504 87.6465 27.7822 87.3295 27.3566 86.8468C26.9147 86.3457 26.6533 85.699 26.6427 84.9213C26.6345 84.3256 26.7834 83.6633 27.1324 82.9535C27.1459 82.926 27.16 82.8991 27.1748 82.8726L29.025 79.0635C29.0423 79.0243 29.0609 78.9859 29.081 78.9484L29.6814 77.7122C28.6077 76.5339 27.2496 75.3717 25.837 74.1631C21.2428 70.2319 16.1254 65.8532 16.1254 57.8492C16.1254 53.4611 17.8878 49.4882 20.7371 46.6124C23.5865 43.7365 27.5227 41.9577 31.8704 41.9577C36.218 41.9577 40.1543 43.7365 43.0036 46.6124C45.8529 49.4882 47.6153 53.4611 47.6153 57.8492C47.6153 66.0894 43.568 69.8466 39.4919 73.6304C38.1643 74.8628 36.8333 76.0984 35.6993 77.4781L38.1498 82.9795C38.4991 83.6891 38.648 84.3516 38.6399 84.9472C38.6292 85.7249 38.3678 86.3716 37.926 86.8727C37.5004 87.3554 36.9321 87.6725 36.2836 87.8146C35.6839 87.946 35.0027 87.9211 34.3124 87.7287C34.0993 87.6693 33.8995 87.6188 33.7097 87.5775L35.2208 137.068C35.2708 137.106 35.3192 137.147 35.3655 137.192C36.0143 137.815 36.0399 138.851 35.4227 139.506C34.1351 140.866 33.22 142.108 32.7327 143.42C32.2612 144.69 32.1648 146.104 32.4866 147.863C32.7671 149.397 33.3357 150.927 34.2032 152.118C34.8775 153.044 35.7357 153.752 36.7772 154.051C38.3643 154.508 40.6552 155.147 42.7936 155.65C44.8466 156.132 46.7413 156.492 47.6411 156.432C50.8534 156.219 52.1086 151.665 53.1123 148.023C53.186 147.756 53.2585 147.493 53.3308 147.235L53.1298 147.144C53.0691 147.117 53.0042 147.088 52.8404 147.015C52.8123 147.004 52.7841 146.993 52.7561 146.98C51.8504 146.579 50.9858 146.174 50.2272 145.72C50.0674 146.355 49.9034 146.993 49.7395 147.63C49.3975 148.96 49.0559 150.288 48.737 151.674C48.5371 152.556 47.6671 153.107 46.7938 152.905C46.2606 152.782 45.8495 152.406 45.6556 151.932C44.4552 151.809 43.298 152.015 42.1907 152.212C41.5042 152.335 40.8341 152.454 40.1074 152.513C40.0835 152.559 40.0593 152.606 40.0349 152.653C39.621 153.453 38.6429 153.763 37.8503 153.345C37.0577 152.927 36.7506 151.94 37.1645 151.14C37.7971 149.923 38.1879 148.987 38.354 148.153C38.5036 147.402 38.4683 146.673 38.2653 145.8C38.0686 144.954 37.8666 144.435 37.589 144.18C37.3421 143.954 36.8851 143.842 36.155 143.788C35.2606 143.724 34.5868 142.941 34.65 142.038C34.713 141.136 35.4893 140.456 36.3836 140.519C37.8631 140.629 38.9212 140.976 39.7735 141.758C40.5951 142.511 41.077 143.547 41.4277 145.056C41.7359 146.381 41.7796 147.536 41.5292 148.794C41.5151 148.865 41.4998 148.937 41.4838 149.008L41.6319 148.982C43.008 148.737 44.4473 148.48 46.1236 148.684C46.2794 148.066 46.4409 147.438 46.6024 146.81C46.942 145.489 47.2822 144.167 47.584 142.864C47.3223 142.06 47.3662 141.157 47.8078 140.117C47.9637 139.75 48.1787 139.228 48.4034 138.683C50.0779 134.622 52.2935 129.247 55.7405 127.807C57.4613 127.087 58.7744 126.517 59.7939 125.962C59.9056 125.901 60.0132 125.84 60.1169 125.78C59.9395 125.689 59.7665 125.599 59.5986 125.511C56.7893 124.044 55.1642 121.979 54.4271 119.732C53.5616 117.094 53.9601 114.248 55.1183 111.857L55.1131 111.855L55.2185 111.637C56.0803 109.856 57.6335 106.646 59.2985 104.87C59.3838 104.333 59.5235 103.77 59.7229 103.17C59.4949 103.014 59.3033 102.797 59.175 102.529C57.9525 99.9788 57.8368 97.9716 58.4556 96.0241C59.0287 94.2208 60.2019 92.647 61.6866 90.7338C63.2811 88.6791 64.9879 88.4182 66.8694 88.872C69.9638 85.5373 73.0018 84.2529 76.3342 84.5178C79.2482 84.7493 82.2563 86.2082 85.6655 88.5275L85.9424 87.7674C88.578 80.5314 92.0655 70.9564 97.2514 68.5029C98.273 68.0196 99.2032 67.5913 100.101 67.1781C107.773 63.6462 112.996 61.242 114.999 52.2993C115.196 51.4179 116.063 50.8641 116.936 51.0623C117.809 51.2605 118.358 52.1358 118.162 53.0172C117.058 57.9451 115.196 61.1525 112.652 63.5739C115.121 65.4092 118.492 66.2983 121.857 66.2416C125.224 66.1848 128.542 65.1807 130.898 63.2302C130.063 62.1964 129.304 60.9038 128.624 59.4433C127.785 57.6428 127.059 55.5761 126.454 53.4294C124.464 53.9953 122.626 54.7594 121.441 56.1484C120.856 56.8315 119.832 56.9061 119.155 56.315C118.478 55.7238 118.404 54.6907 118.99 54.0076C121.374 51.213 124.934 50.3804 128.342 49.5834C130.017 49.1918 131.65 48.8098 132.93 48.2124C134.581 47.4422 136.101 46.2865 137.491 44.6929C138.93 43.0427 140.227 40.9338 141.382 38.3116C143.219 34.1413 143.473 29.9913 142.69 26.3234C141.806 22.1867 139.606 18.6755 136.879 16.4583C136.757 16.5012 136.634 16.543 136.51 16.5838C137.73 19.2932 138.469 23.0536 138.426 27.2605C138.383 31.488 137.557 36.1919 135.646 40.7546C135.429 41.2745 134.835 41.5184 134.32 41.2994C133.805 41.0804 133.563 40.4813 133.78 39.9614C135.582 35.6591 136.361 31.2265 136.402 27.2445C136.443 23.157 135.714 19.5724 134.523 17.122C133.844 17.2691 133.144 17.385 132.429 17.4663C132.434 20.1294 132.117 23.8563 131.47 28.0086C130.829 32.1253 129.868 36.6607 128.582 40.9907C128.422 41.5327 127.857 41.8413 127.32 41.6798C126.783 41.5183 126.477 40.9479 126.637 40.4059C127.903 36.1412 128.845 31.7048 129.47 27.6961C130.09 23.7112 130.4 20.1492 130.404 17.6003C130.276 17.6028 130.147 17.6041 130.019 17.6043C129.139 17.6054 128.246 17.5528 127.349 17.4413C126.626 19.1709 125.857 21.4497 125.118 24.1705C124.327 27.0862 123.572 30.5116 122.946 34.3186C122.641 36.1723 122.408 37.8042 122.236 39.2568C122.065 40.6956 121.959 41.9097 121.907 42.948C121.881 43.5121 121.406 43.948 120.848 43.9215C120.289 43.8949 119.857 43.416 119.883 42.8519C119.939 41.7264 120.048 40.4621 120.219 39.0164C120.389 37.5845 120.627 35.9255 120.946 33.9901C121.581 30.1249 122.354 26.6268 123.166 23.6337C123.869 21.0397 124.603 18.8267 125.303 17.0819C124.349 16.8639 123.4 16.574 122.467 16.2055C120.793 17.8914 119.185 20.4263 117.954 23.6099C116.729 26.7814 115.889 30.5761 115.741 34.7964C115.721 35.3605 115.252 35.8017 114.693 35.7819C114.134 35.762 113.697 35.2884 113.717 34.7243C113.873 30.2536 114.764 26.2302 116.065 22.8648C117.205 19.9167 118.666 17.4584 120.234 15.6307C119.546 15.5841 118.92 15.6793 118.328 15.8902C117.077 16.3357 115.863 17.3046 114.538 18.5612C112.391 20.5976 110.614 23.3242 109.623 26.5287C108.742 29.3799 108.484 32.6117 109.141 36.0765C109.65 38.7593 110.42 40.844 111.415 42.4901C112.384 44.0911 113.575 45.2902 114.954 46.2359C117.886 48.246 120.754 46.8849 123.357 45.6497C123.971 45.3585 124.572 45.0732 125.223 44.8041C126.051 44.4642 126.995 44.866 127.332 45.7014C127.668 46.5368 127.27 47.4895 126.443 47.8293C125.925 48.043 125.333 48.3241 124.729 48.6109C121.335 50.2214 117.595 51.9963 113.138 48.9407C111.381 47.7367 109.87 46.2168 108.647 44.195C107.451 42.2183 106.539 39.7757 105.953 36.6919C105.189 32.6624 105.493 28.8911 106.524 25.5545C107.689 21.7886 109.782 18.579 112.316 16.1769C113.94 14.637 115.483 13.4295 117.248 12.8009C119.123 12.1331 121.128 12.1383 123.528 13.1094C125.647 13.9668 127.878 14.3381 130.019 14.3354C132.405 14.3324 134.67 13.8687 136.538 13.0979C137.234 12.8106 137.739 12.1121 138.045 11.2791C138.446 10.192 138.495 8.94344 138.208 7.99368C137.743 6.45594 136.529 5.2426 134.987 4.43043C133.872 3.84289 132.591 3.46878 131.288 3.33136C129.991 3.19468 128.691 3.29329 127.533 3.65026C126.072 4.10017 124.836 4.9671 124.148 6.29682C123.922 6.73427 123.893 7.04517 124.004 7.25371C124.161 7.54869 124.544 7.82616 125.067 8.07507C125.736 8.39413 126.584 8.62274 127.497 8.76467C130.03 9.1583 132.8 8.95422 133.498 8.18952C134.105 7.52404 135.131 7.48101 135.79 8.09336C136.45 8.70572 136.492 9.7417 135.886 10.4072C134.506 11.9183 130.443 12.5406 127.015 12.0078C125.814 11.8212 124.657 11.5005 123.682 11.0363C122.561 10.502 121.661 9.76192 121.146 8.79199C120.534 7.63853 120.493 6.30002 121.277 4.78415C122.403 2.60837 124.339 1.21675 126.593 0.522431C128.176 0.0345728 129.914 -0.104323 131.618 0.0753063C133.315 0.254197 135 0.750382 136.486 1.5333C138.755 2.7286 140.567 4.59648 141.307 7.04504C141.788 8.63508 141.722 10.679 141.081 12.42C140.777 13.2443 140.345 14.013 139.78 14.6581C142.646 17.3221 144.912 21.1852 145.865 25.644C146.781 29.9309 146.485 34.7782 144.341 39.6448C143.044 42.5896 141.573 44.9743 139.929 46.8593C138.236 48.8009 136.355 50.2223 134.289 51.1864C132.865 51.8507 131.261 52.2582 129.606 52.6485V52.6485ZM30.9422 82.54L30.0816 84.3118C30.069 84.342 30.0555 84.3722 30.0409 84.402C30.0084 84.468 29.9813 84.528 29.9591 84.5823C30.0058 84.5747 30.055 84.5637 30.1065 84.5494C31.0564 84.2846 31.8593 84.1641 32.6787 84.1743C33.4936 84.1844 34.2696 84.3226 35.1761 84.5752C35.2276 84.5896 35.2768 84.6005 35.3234 84.6082C35.3012 84.5539 35.2741 84.4939 35.2416 84.4279L35.2429 84.4272C35.2337 84.4085 35.2248 84.3895 35.2162 84.3702L34.4711 82.6975C33.6362 80.823 31.8488 80.6735 30.9422 82.54V82.54ZM37.2947 71.2205C40.8418 67.9277 44.3639 64.6581 44.3639 57.8492C44.3639 54.367 42.9655 51.2144 40.7048 48.9326C38.444 46.6508 35.3205 45.2394 31.8704 45.2394C28.4202 45.2394 25.2967 46.6508 23.036 48.9326C20.7752 51.2144 19.3768 54.367 19.3768 57.8492C19.3768 64.3425 23.8851 68.2001 27.9326 71.6633C31.3233 74.5646 34.0148 74.2652 37.2947 71.2205V71.2205ZM128.537 164.356C129.094 164.407 129.505 164.904 129.454 165.466C129.404 166.028 128.911 166.442 128.355 166.391C125.444 166.119 122.647 165.714 120.266 165.309C117.867 164.902 115.884 164.496 114.626 164.227C114.078 164.11 113.728 163.567 113.844 163.013C113.96 162.46 114.499 162.107 115.047 162.224C116.293 162.491 118.252 162.892 120.599 163.291C122.965 163.692 125.721 164.093 128.537 164.356ZM110.038 65.6628C107.603 67.3176 104.727 68.6425 101.447 70.1521C100.519 70.5795 99.557 71.0223 98.6231 71.4641C94.656 73.3409 91.4292 82.2004 88.9906 88.8955C88.6766 89.7576 88.3761 90.5826 88.0078 91.5642L88.0033 91.5767C87.9905 91.6175 87.9762 91.6578 87.9601 91.6978C87.5151 93.0109 87.8805 94.0329 88.7166 94.9091C89.8378 96.0843 91.7634 97.128 93.8817 98.1916C94.0688 98.2855 94.1033 98.3061 94.5046 98.5109C95.1903 98.8608 95.8414 99.193 96.3796 99.4029C96.9404 99.6216 97.3646 99.6812 97.5126 99.2945L98.131 97.679C98.1361 97.6651 98.1415 97.6512 98.1469 97.6374L100.47 91.5679C100.793 90.7254 101.731 90.3064 102.566 90.6321C103.401 90.9578 103.816 91.9048 103.493 92.7473L101.263 98.5739C101.224 100.779 101.556 103.098 102.087 105.467C102.542 107.502 103.14 109.563 103.775 111.618C103.799 111.681 103.819 111.746 103.835 111.813C103.975 112.262 104.116 112.711 104.258 113.16C105.098 115.819 106.001 119.074 106.705 122.162C107.276 124.668 107.725 127.089 107.922 129.047C108.976 129.294 110.04 129.496 111.099 129.66C114.876 130.248 118.557 130.362 121.53 130.307H121.581C124.554 130.362 128.235 130.248 132.011 129.66C133.07 129.496 134.134 129.294 135.188 129.047C135.385 127.089 135.834 124.668 136.406 122.162C137.109 119.074 138.013 115.819 138.853 113.16C138.994 112.711 139.135 112.262 139.275 111.813C139.291 111.746 139.311 111.681 139.335 111.618C139.971 109.563 140.568 107.502 141.023 105.467C141.554 103.098 141.886 100.779 141.848 98.5739L139.617 92.7473C139.294 91.9048 139.71 90.9578 140.544 90.6321C141.379 90.3064 142.317 90.7254 142.64 91.5679L144.963 97.6374C144.969 97.6512 144.974 97.6651 144.979 97.679L145.598 99.2945C145.746 99.6812 146.17 99.6216 146.731 99.4029C147.269 99.193 147.92 98.8608 148.606 98.5109C149.007 98.3061 149.042 98.2855 149.229 98.1916C151.347 97.128 153.272 96.0843 154.394 94.9091C155.23 94.0329 155.595 93.0109 155.15 91.6978C155.134 91.6578 155.12 91.6175 155.107 91.5767L155.102 91.5642C154.734 90.583 154.434 89.7579 154.12 88.8957C151.681 82.2005 148.454 73.3409 144.487 71.4641L143.447 70.9725C138.867 68.8093 135.687 67.3074 133.282 65.4797C130.315 68.0957 126.118 69.4394 121.908 69.5104C117.564 69.5837 113.159 68.301 110.038 65.6628V65.6628ZM30.4135 170.1C30.9702 170.15 31.3807 170.647 31.3303 171.209C31.2799 171.771 30.7877 172.185 30.2309 172.135C26.0664 171.748 21.9312 171.414 17.8018 171.326C13.6952 171.239 9.58198 171.396 5.42912 171.988C4.87457 172.065 4.36275 171.674 4.28604 171.115C4.20937 170.555 4.59673 170.038 5.15129 169.961C9.40632 169.354 13.6258 169.194 17.8415 169.283C22.0343 169.372 26.2113 169.709 30.4135 170.1ZM60.1934 166.813C60.1814 166.882 60.1651 166.949 60.1448 167.015L60.1399 167.036L60.1418 167.037C60.1491 167.008 60.1538 166.989 60.142 167.037C59.9674 167.74 59.4182 169.953 62.937 170.985C64.2959 171.383 67.707 171.638 71.2386 171.727C74.9789 171.822 78.7802 171.723 80.3797 171.406C80.6157 171.359 80.7896 171.322 80.9035 171.294C83.1196 170.752 84.1926 169.796 84.6836 168.879C85.1305 168.044 85.1105 167.27 85.0445 166.931C85.0322 166.868 85.0561 166.962 85.0446 166.914C84.9447 166.498 84.7099 165.562 84.4669 164.594C83.9147 162.393 83.3151 160.004 83.0827 158.303C81.5723 158.734 79.9517 159.059 78.2187 159.285C77.0719 159.434 75.879 159.538 74.6391 159.597C74.517 159.629 74.3894 159.647 74.2578 159.649C73.699 159.659 73.1488 159.661 72.6067 159.655C72.0647 159.661 71.5144 159.659 70.9557 159.649C70.8241 159.647 70.6964 159.629 70.5744 159.597C69.3345 159.538 68.1416 159.434 66.9948 159.285C65.2617 159.059 63.6412 158.734 62.1308 158.303C61.8984 160.004 61.2987 162.394 60.7464 164.595C60.5215 165.491 60.3038 166.358 60.1934 166.813V166.813ZM83.4596 154.749C83.5123 154.731 83.5653 154.716 83.6185 154.703C83.7991 154.185 83.9878 153.66 84.1772 153.132C85.213 150.248 86.2729 147.296 86.1819 144.77C86.1804 144.728 86.1805 144.686 86.1822 144.644L84.9161 142.139C84.5093 141.332 84.8277 140.344 85.6273 139.934C86.4269 139.523 87.405 139.845 87.8118 140.652L89.7009 144.39C90.0922 143.258 90.5713 142.146 91.1566 141.058C91.7191 140.013 92.2509 139.048 92.7822 138.084L92.9339 137.809C92.9035 137.756 92.8756 137.701 92.8508 137.643C92.1708 136.076 91.4096 134.48 90.5615 133.183C89.8602 132.11 89.1264 131.268 88.3819 130.896C87.0528 132.504 85.2018 133.079 81.1251 133.35C79.1718 133.479 76.0245 132.623 72.606 131.357C69.5735 130.234 66.2716 128.777 63.4342 127.422C62.8485 127.936 62.1629 128.392 61.3307 128.846C60.2191 129.451 58.8119 130.063 56.9724 130.832C54.7774 131.749 52.8542 136.414 51.4008 139.939C51.2066 140.411 51.0206 140.862 50.7925 141.399C50.6423 141.753 50.7677 142.044 51.051 142.306C51.6727 142.882 52.8087 143.424 54.0643 143.981C54.0942 143.994 54.1233 144.008 54.1519 144.023L54.4507 144.158C54.713 144.276 54.9227 144.467 55.0867 144.637C55.2751 144.611 55.4706 144.617 55.665 144.662L57.3636 140.741C57.7213 139.913 58.6766 139.534 59.4973 139.895C60.318 140.256 60.6933 141.221 60.3355 142.049L59.0263 145.07C59.0243 147.529 60.0413 150.362 61.0363 153.132C61.2257 153.66 61.4144 154.185 61.595 154.703C61.6482 154.716 61.7012 154.731 61.754 154.749C63.4831 155.35 65.3636 155.777 67.4012 156.042C69.0275 156.253 70.7619 156.366 72.6067 156.386C74.4515 156.366 76.1859 156.253 77.8123 156.042C79.8498 155.777 81.7303 155.35 83.4596 154.749V154.749ZM90.0016 128.062C91.2511 128.749 92.3264 129.937 93.2667 131.375C93.8424 132.256 94.3741 133.237 94.8672 134.248C95.1346 133.742 95.3986 133.234 95.6577 132.723C95.6709 132.695 95.6849 132.668 95.6998 132.64L95.7 132.64C98.6971 126.718 101.042 120.413 100.65 112.48C100 110.375 99.3904 108.266 98.9244 106.185C98.8713 105.947 98.8199 105.71 98.7706 105.474C97.9752 112.311 95.9285 116.057 93.8818 119.802C93.0875 121.256 92.2931 122.709 91.6064 124.303C91.3916 124.801 91.1465 125.384 90.9192 125.924C90.5848 126.719 90.2865 127.429 90.0016 128.062ZM60.1399 167.036C60.1131 167.15 60.1306 167.081 60.1418 167.037L60.1399 167.036ZM70.2278 90.1267L70.315 90.1648C71.0106 90.4688 71.7358 90.7857 72.4727 91.0535C73.3144 91.3579 73.7523 92.2935 73.4506 93.143C73.149 93.9926 72.2221 94.4345 71.3804 94.1301C70.557 93.8309 69.7788 93.4907 69.0323 93.1645C66.9576 92.2577 65.2111 91.4944 64.2394 92.7464C62.9575 94.3983 61.9496 95.7412 61.5419 97.024C61.3127 97.7453 61.2705 98.5109 61.4767 99.4058C61.5885 99.2098 61.7047 99.0103 61.8257 98.8068C62.2851 98.0316 63.2802 97.7791 64.0483 98.2428C64.8163 98.7065 65.0665 99.7109 64.6071 100.486C61.3506 105.964 62.5127 107.882 65.0777 112.114C65.8267 113.35 66.6803 114.758 67.6044 116.5C68.63 116.416 69.7148 116.29 70.8259 116.161C74.0156 115.791 77.4075 115.398 80.5892 115.81C80.8531 114.41 81.1009 112.994 81.3486 111.577C82.2925 106.182 83.2365 100.786 85.2144 95.6339C84.5724 94.4939 84.3192 93.2217 84.5912 91.7576C81.3115 89.4423 78.55 87.9829 76.0802 87.7866C74.1028 87.6295 72.2085 88.3305 70.2278 90.1267ZM59.958 109.556C59.238 110.803 58.5868 112.149 58.1397 113.073L58.0343 113.29L58.0292 113.288L58.028 113.29C57.2174 114.962 56.9287 116.925 57.5134 118.707C57.9994 120.188 59.1176 121.574 61.0846 122.602C64.2711 124.266 69.2896 126.638 73.7237 128.28C76.7681 129.408 79.4677 130.177 80.9218 130.081C85.7831 129.758 86.1909 128.789 87.9344 124.642C88.131 124.175 88.3433 123.67 88.6344 122.995C89.396 121.228 90.2165 119.727 91.0368 118.225C93.1256 114.403 95.2144 110.58 95.7387 103.011C95.7465 102.891 95.7671 102.776 95.7986 102.665C95.6063 102.602 95.4103 102.532 95.2112 102.454C94.4997 102.176 93.7907 101.815 93.044 101.434L92.4338 101.127C90.6792 100.246 89.0274 99.3617 87.6876 98.3371C86.1943 102.738 85.3716 107.44 84.5492 112.141C84.0591 114.943 83.5689 117.745 82.9169 120.579C82.717 121.46 81.847 122.011 80.9737 121.81C80.1004 121.608 79.5546 120.73 79.7545 119.848C79.8167 119.578 79.8776 119.306 79.9374 119.033C77.1919 118.722 74.1029 119.08 71.1942 119.417C68.4046 119.741 65.7693 120.047 63.5162 119.78C62.6253 119.677 61.9856 118.865 62.0873 117.966C62.189 117.067 62.9936 116.421 63.8845 116.524L63.9138 116.527C63.3488 115.534 62.8056 114.638 62.3089 113.819C61.3289 112.202 60.5098 110.85 59.958 109.556V109.556ZM126.937 171.993C126.287 171.893 125.66 171.791 125.059 171.689C122.644 171.279 120.655 170.872 119.393 170.602C118.516 170.415 117.956 169.545 118.142 168.66C118.328 167.775 119.189 167.21 120.066 167.397C121.309 167.663 123.26 168.063 125.593 168.459C127.955 168.86 130.698 169.259 133.485 169.519C133.767 169.546 134.05 169.571 134.333 169.594C134.368 169.596 134.403 169.599 134.438 169.603C138.683 169.949 143.024 169.961 146.362 169.179C149.41 168.465 151.526 167.079 151.591 164.615C151.618 163.633 151.649 162.751 151.68 161.868C151.917 155.153 152.159 148.292 149.109 142.622C148.604 141.685 148.05 140.679 147.496 139.674C146.695 138.221 145.895 136.769 145.124 135.298C138.576 139.396 130.534 141.264 122.412 141.3C113.748 141.337 104.966 139.291 97.8039 135.644C97.0896 136.997 96.3522 138.335 95.6145 139.674C95.0602 140.679 94.5058 141.685 94.0015 142.622C90.9514 148.291 91.1935 155.153 91.4304 161.867C91.4616 162.751 91.4928 163.633 91.5188 164.615C91.5644 166.337 92.6512 167.728 94.3825 168.842C96.7534 170.368 100.25 171.37 104.07 171.995C108.161 172.664 115.611 173.069 122.269 172.548C123.905 172.42 125.484 172.238 126.937 171.993V171.993ZM99.2843 132.729C106.004 136.148 114.253 138.066 122.399 138.031C130.06 137.997 137.605 136.237 143.655 132.372C143.279 131.586 142.917 130.791 142.573 129.985C139.416 131.466 135.921 132.371 132.494 132.904C128.568 133.514 124.698 133.633 121.555 133.577C118.412 133.633 114.542 133.514 110.616 132.904C107.19 132.371 103.695 131.466 100.538 129.985C100.141 130.914 99.7211 131.827 99.2843 132.729V132.729ZM101.728 126.93C102.63 127.362 103.568 127.741 104.53 128.074C104.309 126.51 103.96 124.727 103.542 122.893C103.439 122.44 103.332 121.984 103.221 121.529C102.845 123.41 102.335 125.202 101.728 126.93V126.93ZM212.879 172.135C212.323 172.185 211.83 171.771 211.78 171.209C211.73 170.647 212.14 170.15 212.697 170.1C216.899 169.709 221.076 169.372 225.269 169.283C229.484 169.194 233.704 169.354 237.959 169.961C238.514 170.038 238.901 170.555 238.824 171.115C238.748 171.674 238.236 172.065 237.681 171.988C233.528 171.396 229.415 171.239 225.308 171.326C221.179 171.414 217.044 171.748 212.879 172.135ZM182.965 167.015C182.945 166.949 182.929 166.882 182.917 166.813C182.806 166.358 182.589 165.491 182.364 164.595C181.812 162.394 181.212 160.004 180.979 158.303C179.469 158.734 177.849 159.059 176.115 159.285C174.969 159.434 173.776 159.538 172.536 159.597C172.414 159.629 172.286 159.647 172.155 159.649C171.596 159.659 171.046 159.661 170.504 159.655C169.962 159.661 169.411 159.659 168.852 159.649C168.721 159.647 168.593 159.629 168.471 159.597C167.231 159.538 166.038 159.434 164.892 159.285C163.159 159.059 161.538 158.734 160.028 158.303C159.795 160.004 159.196 162.393 158.643 164.594C158.4 165.562 158.166 166.498 158.066 166.914C158.054 166.962 158.078 166.868 158.066 166.931C158 167.27 157.98 168.044 158.427 168.879C158.918 169.796 159.991 170.752 162.207 171.294C162.321 171.322 162.495 171.359 162.731 171.406C164.33 171.723 168.131 171.822 171.872 171.727C175.403 171.638 178.814 171.383 180.173 170.985C183.692 169.953 183.143 167.74 182.968 167.037C182.956 166.989 182.961 167.008 182.968 167.037L182.97 167.036L182.965 167.015V167.015ZM159.492 154.703C159.545 154.716 159.598 154.731 159.651 154.749C161.38 155.35 163.26 155.777 165.298 156.042C166.924 156.253 168.659 156.366 170.504 156.386C172.348 156.366 174.083 156.253 175.709 156.042C177.747 155.777 179.627 155.35 181.356 154.749C181.409 154.731 181.462 154.716 181.515 154.703C181.696 154.185 181.885 153.66 182.074 153.132C183.069 150.362 184.086 147.529 184.084 145.07L182.775 142.049C182.417 141.221 182.792 140.256 183.613 139.895C184.434 139.534 185.389 139.913 185.747 140.741L187.445 144.662C187.64 144.617 187.835 144.611 188.024 144.637C188.188 144.467 188.397 144.276 188.66 144.158L188.958 144.023C188.987 144.008 189.016 143.994 189.046 143.981C190.302 143.424 191.438 142.882 192.059 142.306C192.343 142.044 192.468 141.753 192.318 141.399C192.09 140.862 191.904 140.411 191.709 139.939C190.256 136.414 188.333 131.749 186.138 130.832C184.298 130.063 182.891 129.451 181.78 128.846C180.947 128.392 180.262 127.936 179.676 127.422C176.839 128.777 173.537 130.234 170.504 131.357C167.086 132.623 163.938 133.479 161.985 133.35C157.909 133.079 156.057 132.504 154.728 130.896C153.984 131.268 153.25 132.11 152.549 133.183C151.701 134.48 150.939 136.076 150.26 137.643C150.235 137.701 150.207 137.756 150.176 137.809L150.328 138.084C150.859 139.048 151.391 140.013 151.954 141.058C152.539 142.146 153.018 143.258 153.409 144.39L155.298 140.652C155.705 139.845 156.683 139.523 157.483 139.934C158.283 140.344 158.601 141.332 158.194 142.139L156.928 144.644C156.93 144.686 156.93 144.728 156.928 144.77C156.837 147.296 157.897 150.248 158.933 153.132C159.122 153.66 159.311 154.185 159.492 154.703V154.703ZM148.243 134.248C148.736 133.236 149.268 132.256 149.844 131.375C150.784 129.937 151.859 128.749 153.109 128.062C152.824 127.429 152.525 126.719 152.191 125.924C151.964 125.384 151.719 124.801 151.504 124.303C150.817 122.709 150.023 121.256 149.228 119.802C147.182 116.057 145.135 112.311 144.34 105.474C144.29 105.71 144.239 105.947 144.186 106.185C143.72 108.266 143.11 110.375 142.46 112.48C142.032 121.135 144.863 127.851 148.243 134.248ZM141.382 126.93C140.775 125.202 140.265 123.41 139.889 121.529C139.779 121.984 139.671 122.44 139.568 122.893C139.15 124.727 138.802 126.51 138.581 128.074C139.542 127.741 140.48 127.362 141.382 126.93ZM189.009 128.844C191.547 131.02 193.314 135.305 194.707 138.683C194.932 139.228 195.147 139.75 195.302 140.117C195.744 141.157 195.788 142.06 195.526 142.864C195.828 144.167 196.168 145.489 196.508 146.81C196.669 147.438 196.831 148.066 196.987 148.684C198.663 148.48 200.102 148.737 201.478 148.982C202.51 149.166 203.499 149.342 204.38 149.237C205.271 149.135 206.076 149.78 206.177 150.679C206.279 151.579 205.639 152.391 204.749 152.493C203.397 152.654 202.185 152.438 200.919 152.212C199.812 152.015 198.655 151.809 197.455 151.932C197.261 152.406 196.85 152.782 196.316 152.905C195.443 153.107 194.573 152.556 194.373 151.674C194.054 150.288 193.713 148.96 193.371 147.63C193.207 146.993 193.043 146.355 192.883 145.72C192.125 146.174 191.26 146.579 190.354 146.98C190.326 146.993 190.298 147.004 190.27 147.015C190.106 147.088 190.041 147.117 189.98 147.144L189.779 147.235C189.852 147.493 189.924 147.756 189.998 148.023C191.002 151.665 192.257 156.219 195.469 156.432C196.369 156.492 198.264 156.132 200.317 155.65C202.455 155.147 204.746 154.508 206.333 154.051C207.04 153.848 207.659 153.46 208.192 152.947C209.346 151.834 210.116 150.142 210.514 148.389C210.651 147.787 210.742 147.185 210.79 146.601C210.463 147.122 210.107 147.623 209.724 148.101C209.163 148.805 208.142 148.917 207.444 148.351C206.746 147.785 206.635 146.754 207.196 146.05C208.08 144.947 208.784 143.69 209.261 142.325C209.72 141.016 209.969 139.601 209.969 138.121C209.969 134.639 208.571 131.486 206.31 129.204C204.049 126.923 200.926 125.511 197.476 125.511C195.684 125.511 193.985 125.889 192.452 126.57C191.179 127.134 190.017 127.907 189.009 128.844V128.844ZM182.968 167.037C182.98 167.081 182.997 167.15 182.97 167.036L182.968 167.037ZM158.519 91.7576C158.791 93.2217 158.538 94.4939 157.896 95.6339C159.874 100.786 160.818 106.182 161.762 111.577C162.009 112.994 162.257 114.41 162.521 115.81C165.703 115.398 169.095 115.791 172.284 116.161C173.395 116.29 174.48 116.416 175.506 116.5C176.43 114.758 177.284 113.35 178.033 112.114C180.598 107.882 181.76 105.964 178.503 100.486C178.044 99.7109 178.294 98.7065 179.062 98.2428C179.83 97.7791 180.825 98.0316 181.285 98.8068C181.406 99.0103 181.522 99.2098 181.634 99.4058C181.84 98.5109 181.798 97.7453 181.568 97.024C181.161 95.7412 180.153 94.3983 178.871 92.7464C177.899 91.4944 176.153 92.2577 174.078 93.1645C173.331 93.4907 172.553 93.8309 171.73 94.1301C170.888 94.4345 169.961 93.9926 169.66 93.143C169.358 92.2935 169.796 91.3579 170.638 91.0535C171.375 90.7857 172.1 90.4688 172.795 90.1648L172.882 90.1267C170.902 88.3305 169.008 87.6295 167.03 87.7866C164.56 87.9829 161.799 89.4423 158.519 91.7576V91.7576ZM179.197 116.527L179.226 116.524C180.117 116.421 180.921 117.067 181.023 117.966C181.125 118.865 180.485 119.677 179.594 119.78C177.341 120.047 174.706 119.741 171.916 119.417C169.007 119.08 165.918 118.722 163.173 119.033C163.233 119.306 163.294 119.578 163.356 119.848C163.556 120.73 163.01 121.608 162.137 121.81C161.263 122.011 160.393 121.46 160.193 120.579C159.541 117.745 159.051 114.943 158.561 112.141C157.739 107.44 156.916 102.738 155.423 98.3371C154.083 99.3617 152.431 100.246 150.677 101.127L150.066 101.434C149.32 101.815 148.611 102.176 147.899 102.454C147.7 102.532 147.504 102.602 147.312 102.665C147.343 102.776 147.364 102.891 147.372 103.011C147.896 110.58 149.985 114.403 152.073 118.225C152.894 119.727 153.714 121.228 154.476 122.995C154.767 123.67 154.979 124.175 155.176 124.642C156.919 128.789 157.327 129.758 162.188 130.081C163.643 130.177 166.342 129.408 169.387 128.28C173.821 126.638 178.839 124.266 182.026 122.602C183.993 121.574 185.111 120.188 185.597 118.707C186.182 116.925 185.893 114.962 185.082 113.29L185.081 113.288L185.076 113.29L184.971 113.073C184.523 112.149 183.872 110.803 183.152 109.556C182.6 110.85 181.781 112.202 180.801 113.819C180.305 114.638 179.761 115.534 179.197 116.527V116.527Z" fill="black"/>
</svg>
