<svg width="80" height="29" viewBox="0 0 80 29" fill="none" xmlns="http://www.w3.org/2000/svg">
<g clip-path="url(#clip0_826:3440)">
<path d="M9.03116 -2.58017e-05C10.9454 -2.58017e-05 11.5469 1.41549 12.0516 2.82879C12.2636 3.42894 17.2381 17.4732 17.3877 17.8947C17.4275 18.0123 17.4006 18.2053 17.2252 18.2752C17.0487 18.344 14.4641 19.3801 14.321 19.4356C14.1778 19.4922 14.0175 19.4101 13.9659 19.2625C13.9121 19.1172 12.8393 16.0554 12.7187 15.7138H5.34574C5.22953 16.0554 4.14381 19.1239 4.09539 19.2625C4.04589 19.4034 3.89202 19.4988 3.73922 19.4356C3.58643 19.3735 0.992104 18.3373 0.837155 18.2752C0.688663 18.2153 0.620872 18.0411 0.672522 17.8947C0.855448 17.3689 5.75464 3.54986 6.00428 2.82879C6.49065 1.43657 7.11259 -2.58017e-05 9.03116 -2.58017e-05ZM0.278693 25.1298C0.123744 25.1298 0 25.2629 0 25.4249V28.7074C0 28.8694 0.123744 29.0003 0.278693 29.0003H17.7761C17.9343 29.0003 18.058 28.8694 18.058 28.7074V25.4249C18.058 25.2629 17.9343 25.1298 17.7761 25.1298H0.278693ZM9.01395 4.58598L6.52185 12.3014H11.5469L9.04623 4.58598H9.01395V4.58598ZM46.4094 17.2369C46.0425 17.3645 45.8004 17.3955 45.512 17.3955C44.9159 17.3955 44.5855 17.1526 44.5855 16.5225C44.5855 15.8657 45.0052 15.6461 45.8294 15.6461C46.0306 15.6461 46.2286 15.676 46.3212 15.7093V16.1797C46.3212 16.6866 46.3481 17.0194 46.4094 17.2369V17.2369ZM48.5281 17.989C48.088 17.3001 47.9729 16.8941 47.9729 16.0255V14.2616C47.9729 13.312 47.8653 12.9693 47.6221 12.6231C47.2831 12.1328 46.7182 11.9198 45.6798 11.9198C44.9449 11.9198 44.2315 12.0019 43.5407 12.1838L43.7903 13.4374C44.2573 13.3697 44.7469 13.312 45.0923 13.312C46.1953 13.312 46.3212 13.4762 46.3212 14.3293V14.6477C46.0758 14.58 45.8004 14.5312 45.4808 14.5312C43.8205 14.5312 42.9435 15.3688 42.9435 16.7554C42.9435 18.0556 43.8807 18.7644 45.0224 18.7644C45.4485 18.7644 45.894 18.6835 46.2469 18.5348C46.46 18.4394 46.5525 18.3828 46.828 18.1987C46.9937 18.4472 47.3262 18.7012 47.4618 18.7489L48.5281 17.989V17.989ZM64.9516 17.2369C64.5826 17.3645 64.3448 17.3955 64.0542 17.3955C63.456 17.3955 63.1213 17.1526 63.1213 16.5225C63.1213 15.8657 63.5463 15.6461 64.3727 15.6461C64.574 15.6461 64.773 15.676 64.8634 15.7093V16.1797C64.8634 16.6866 64.8892 17.0194 64.9516 17.2369V17.2369ZM67.0725 17.989C66.6292 17.3001 66.5162 16.8941 66.5162 16.0255V14.2616C66.5162 13.312 66.4064 12.9693 66.1611 12.6231C65.8265 12.1328 65.2605 11.9198 64.2189 11.9198C63.485 11.9198 62.7673 12.0019 62.0765 12.1838L62.3229 13.4374C62.791 13.3697 63.2816 13.312 63.6367 13.312C64.7332 13.312 64.8634 13.4762 64.8634 14.3293V14.6477C64.6181 14.58 64.3448 14.5312 64.0187 14.5312C62.3563 14.5312 61.476 15.3688 61.476 16.7554C61.476 18.0556 62.4154 18.7644 63.5625 18.7644C63.994 18.7644 64.4352 18.6835 64.7849 18.5348C65.0011 18.4394 65.0905 18.3828 65.3659 18.1987C65.5338 18.4472 65.8663 18.7012 66.0029 18.7489L67.0725 17.989V17.989ZM80 18.6169C80 18.6169 79.0897 16.6168 78.8669 16.1619C78.6162 15.6494 78.3838 15.2955 77.8716 15.168V15.1391C78.2149 15.0714 78.4882 14.8573 78.7873 14.2028C79.0703 13.565 79.1542 13.4274 79.321 13.2754C79.4846 13.1246 79.7084 13.1789 79.7084 13.1789L79.7923 11.9997C79.5545 11.9664 79.2909 11.9653 79.0187 11.9808C78.5667 12.0086 78.3332 12.1428 78.1105 12.3735C77.9362 12.5499 77.8178 12.8139 77.6715 13.1168C77.5165 13.4474 77.3938 13.7136 77.2324 14.0497C77.0721 14.3948 76.9968 14.5501 76.5653 14.5501H76.2844V9.32618H74.622V18.6169H76.2844V15.9456L76.5115 15.9412C76.9882 15.9412 77.0721 16.0643 77.3239 16.5824C77.6187 17.2003 78.1837 18.6169 78.1837 18.6169H80V18.6169ZM33.1666 18.6169H35.0852L32.1831 9.48149C31.8775 9.3761 31.4999 9.31065 31.0963 9.31065C30.6562 9.31065 30.4991 9.37056 30.1548 9.48149L27.0838 18.6169H28.9249C28.9249 18.6169 29.1735 17.816 29.4662 16.8231H32.6469C32.931 17.8148 33.1666 18.6169 33.1666 18.6169ZM29.9332 15.2911C29.9332 15.2911 30.4647 13.4574 30.5476 13.1723C30.7585 12.4334 31.0791 11.2598 31.0791 11.2598H31.1319C31.1319 11.2598 31.4288 12.4756 31.6225 13.1589C31.6957 13.4307 32.2036 15.2911 32.2036 15.2911H29.9332ZM51.3602 14.2461C50.7738 14.2461 50.2971 14.7398 50.2971 15.3443C50.2971 15.9534 50.7738 16.4437 51.3602 16.4437C51.9478 16.4437 52.4223 15.9534 52.4223 15.3443C52.4223 14.7398 51.9478 14.2461 51.3602 14.2461ZM37.3632 9.32618H35.6964V18.6158H37.3632V9.32618V9.32618ZM70.4782 13.3963C71.3993 13.4163 71.5133 13.6127 71.5133 14.4092V18.6169H73.165V14.2616C73.165 13.312 73.0574 12.9693 72.8121 12.6231C72.4731 12.1328 71.8071 11.9198 70.6805 11.9198C69.5657 11.9198 68.8555 12.0418 67.9419 12.3225V18.6169H69.6109V13.4762C70.0488 13.4108 70.1263 13.3963 70.4782 13.3963V13.3963ZM41.4855 9.16089C40.4439 9.16089 39.8768 9.37389 39.5432 9.8631C39.2979 10.2103 39.1892 10.5609 39.1892 11.5127V12.3225H38.3617V13.7114H39.1892V18.6169H40.842L40.8377 13.7114H42.4851V12.3225H40.8377L40.842 11.5781C40.842 10.7262 40.9679 10.5609 42.0719 10.5609C42.1913 10.5609 42.3259 10.5675 42.469 10.5786L42.7294 9.24409C42.3215 9.18863 41.904 9.16089 41.4855 9.16089V9.16089ZM54.7465 9.24742C55.3136 9.21303 56.5812 9.16422 57.3764 9.16422C57.5216 9.16422 57.6723 9.16533 57.8229 9.17309C59.3864 9.17309 60.2827 10.3468 60.2827 11.7246C60.2827 12.662 59.8663 13.2843 58.8903 13.6548C60.0385 13.9166 60.64 14.8407 60.64 15.9711C60.64 16.8009 60.4129 17.4599 59.9965 17.9091C59.4563 18.4571 58.6385 18.7644 57.5496 18.7644C56.5812 18.7644 55.3652 18.7334 54.7465 18.6957V9.24742V9.24742ZM57.3764 10.7694C57.1009 10.7694 56.7598 10.775 56.4219 10.7872V13.0181H57.3774C57.7562 13.0181 58.0607 12.9093 58.2684 12.6997C58.4664 12.5022 58.5697 12.2227 58.5697 11.891C58.5697 11.1777 58.1952 10.7739 57.499 10.7694H57.3764V10.7694ZM57.4108 17.1626H57.4829C58.3512 17.1626 58.8828 16.6866 58.8893 15.7282C58.8807 15.3843 58.7526 15.067 58.5234 14.8374C58.2727 14.5778 57.9176 14.4425 57.5012 14.4425H56.4219V17.1526C56.7264 17.1592 57.0622 17.1603 57.4108 17.1626" fill="black"/>
</g>
<defs>
<clipPath id="clip0_826:3440">
<rect width="80" height="29" fill="white"/>
</clipPath>
</defs>
</svg>
