<svg width="19" height="21" viewBox="0 0 19 21" fill="none" xmlns="http://www.w3.org/2000/svg">
    <path d="M17.3946 9.23234L9.26285 17.3641C7.70015 18.9268 5.1687 18.9268 3.606 17.3641C2.04329 15.8014 2.04329 13.2699 3.606 11.7072L12.4448 2.86838C13.4206 1.89258 15.0046 1.89258 15.9804 2.86838C16.9562 3.84419 16.9562 5.42811 15.9804 6.40392L8.55574 13.8285C8.16684 14.2174 7.53044 14.2174 7.14153 13.8285C6.75262 13.4396 6.75262 12.8032 7.14153 12.4143L13.859 5.69681L12.7984 4.63615L6.08087 11.3537C5.10506 12.3295 5.10506 13.9134 6.08087 14.8892C7.05668 15.865 8.6406 15.865 9.6164 14.8892L17.041 7.46458C18.6037 5.90187 18.6037 3.37043 17.041 1.80772C15.4783 0.245017 12.9469 0.245017 11.3842 1.80772L2.54534 10.6466C0.395733 12.7962 0.395733 16.2751 2.54534 18.4247C4.69494 20.5743 8.17391 20.5743 10.3235 18.4247L18.4552 10.293L17.3946 9.23234Z"
          fill="#616C78"/>
</svg>
