<svg width="18" height="21" viewBox="0 0 18 21" fill="none" xmlns="http://www.w3.org/2000/svg">
<path d="M16.7383 9.2531L8.6066 17.3848C7.0439 18.9475 4.51245 18.9475 2.94975 17.3848C1.38704 15.8221 1.38704 13.2907 2.94975 11.728L11.7886 2.88913C12.7644 1.91333 14.3483 1.91333 15.3241 2.88913C16.2999 3.86494 16.2999 5.44886 15.3241 6.42467L7.89949 13.8493C7.51059 14.2382 6.87419 14.2382 6.48528 13.8493C6.09637 13.4604 6.09637 12.824 6.48528 12.4351L13.2028 5.71756L12.1421 4.6569L5.42462 11.3744C4.44881 12.3502 4.44881 13.9341 5.42462 14.9099C6.40043 15.8858 7.98435 15.8858 8.96015 14.9099L16.3848 7.48533C17.9475 5.92262 17.9475 3.39118 16.3848 1.82847C14.8221 0.265769 12.2906 0.265769 10.7279 1.82847L1.88909 10.6673C-0.260517 12.8169 -0.260517 16.2959 1.88909 18.4455C4.03869 20.5951 7.51766 20.5951 9.66726 18.4455L17.799 10.3138L16.7383 9.2531Z" fill="black"/>
</svg>
