<svg width="13" height="13" viewBox="0 0 13 13" fill="none" xmlns="http://www.w3.org/2000/svg">
    <path d="M10.9902 2.00977L12.8457 0.154297V5.7207H7.2793L9.83984 3.16016C8.89974 2.22005 7.78646 1.75 6.5 1.75C5.1888 1.75 4.06315 2.22005 3.12305 3.16016C2.20768 4.07552 1.75 5.1888 1.75 6.5C1.75 7.8112 2.20768 8.93685 3.12305 9.87695C4.06315 10.7923 5.1888 11.25 6.5 11.25C7.41536 11.25 8.30599 10.9408 9.17188 10.3223C10.0625 9.70378 10.6686 8.96159 10.9902 8.0957H12.623C12.2767 9.48112 11.5345 10.6191 10.3965 11.5098C9.25846 12.4004 7.95964 12.8457 6.5 12.8457C4.76823 12.8457 3.28385 12.2272 2.04688 10.9902C0.809896 9.75326 0.191406 8.25651 0.191406 6.5C0.191406 4.74349 0.809896 3.24674 2.04688 2.00977C3.28385 0.772786 4.76823 0.154297 6.5 0.154297C7.24219 0.154297 8.04622 0.339844 8.91211 0.710938C9.80273 1.05729 10.4954 1.49023 10.9902 2.00977Z"
          fill="black"/>
</svg>
