<svg width="17" height="26" viewBox="0 0 17 26" fill="none" xmlns="http://www.w3.org/2000/svg">
<path fill-rule="evenodd" clip-rule="evenodd" d="M2.46626 11.4783C0.0880211 7.56522 4.13983 6 4.05175 4C5.98957 7.82609 2.20201 8.26087 2.46626 11.4783Z" fill="black"/>
<path fill-rule="evenodd" clip-rule="evenodd" d="M1.49853 12.8696C1.76278 14.6087 2.46744 16.1739 4.40527 17.1304C2.11511 13.2174 3.17211 9.21739 6.07884 7.56522C5.81459 8.08696 5.46226 9.21739 6.25501 9.73913C8.63325 7.21739 9.24983 3.21739 8.72133 0C11.7161 2.86957 13.3897 6.86957 11.4519 10.4348C10.1307 12.9565 12.2446 15.3913 13.3897 10.4348C18.6747 15.3913 18.4985 24.087 10.3949 26C11.0996 25.1304 15.4156 21.1304 11.0996 16.6087C11.6281 20.1739 8.72133 20.1739 9.16174 23.6522C6.87159 19.8261 11.8042 19.6522 7.57625 14.087C8.63325 18.6957 1.76278 20.5217 6.60734 25.913C-0.615458 24.4348 -1.23204 17.8261 1.49853 12.8696Z" fill="black"/>
</svg>
