<svg width="22" height="22" viewBox="0 0 22 22" fill="none" xmlns="http://www.w3.org/2000/svg">
    <path d="M5.865 17.94C7.25657 17.9407 8.60254 17.4439 9.66 16.5393V21.39H12.075C13.1936 21.3886 14.2884 21.0673 15.2304 20.4641C16.1724 19.8609 16.9223 19.0008 17.3915 17.9854C17.8608 16.97 18.0299 15.8416 17.8789 14.7333C17.7279 13.6249 17.2631 12.5829 16.5393 11.73H21.39V9.315C21.3886 8.19641 21.0673 7.10155 20.4641 6.15956C19.8609 5.21756 19.0008 4.46771 17.9854 3.99845C16.97 3.52919 15.8416 3.36009 14.7333 3.51109C13.6249 3.6621 12.5829 4.12691 11.73 4.8507V0H9.315C8.19641 0.00141271 7.10155 0.322679 6.15956 0.925907C5.21756 1.52914 4.46771 2.38917 3.99845 3.40457C3.52919 4.41997 3.36009 5.54839 3.51109 6.65674C3.6621 7.76509 4.12691 8.80714 4.8507 9.66H0V12.075C0 12.8452 0.151703 13.6079 0.446447 14.3194C0.741191 15.031 1.1732 15.6776 1.71782 16.2222C2.81772 17.3221 4.30951 17.94 5.865 17.94V17.94ZM15.87 15.525C15.87 16.5315 15.4702 17.4968 14.7585 18.2085C14.0468 18.9202 13.0815 19.32 12.075 19.32H11.73V11.73H12.075C13.0815 11.73 14.0468 12.1298 14.7585 12.8415C15.4702 13.5532 15.87 14.5185 15.87 15.525ZM15.525 5.52C16.5315 5.52 17.4968 5.91983 18.2085 6.63153C18.9202 7.34323 19.32 8.3085 19.32 9.315V9.66H11.73V9.315C11.73 8.3085 12.1298 7.34323 12.8415 6.63153C13.5532 5.91983 14.5185 5.52 15.525 5.52ZM5.52 5.865C5.52 4.8585 5.91983 3.89323 6.63153 3.18153C7.34323 2.46983 8.3085 2.07 9.315 2.07H9.66V9.66H9.315C8.3085 9.66 7.34323 9.26017 6.63153 8.54847C5.91983 7.83677 5.52 6.8715 5.52 5.865V5.865ZM2.07 11.73H9.66V12.075C9.66 13.0815 9.26017 14.0468 8.54847 14.7585C7.83677 15.4702 6.8715 15.87 5.865 15.87C4.8585 15.87 3.89323 15.4702 3.18153 14.7585C2.46983 14.0468 2.07 13.0815 2.07 12.075V11.73Z"
          fill="black"/>
</svg>
