<svg width="22" height="21" viewBox="0 0 22 21" fill="none" xmlns="http://www.w3.org/2000/svg">
<path d="M16.8151 5.89631C16.8151 2.64678 14.1683 0 10.9188 0C7.6649 0 5.02246 2.64678 5.02246 5.89631C5.02246 8.63047 6.89182 10.9235 9.41633 11.5917V12.7448H8.45545C7.77846 12.7448 7.22814 13.2995 7.22814 13.9764V18.8901C7.22814 19.5714 7.77846 20.1217 8.45545 20.1217H13.3778C14.0548 20.1217 14.6094 19.5714 14.6094 18.8901V13.9764C14.6094 13.2995 14.0548 12.7448 13.3778 12.7448H12.4212V11.5917C14.9458 10.9235 16.8151 8.63047 16.8151 5.89631ZM14.8759 5.58621C15.0375 5.42459 15.3301 5.42459 15.4917 5.59058C15.5747 5.6692 15.6184 5.78276 15.6184 5.89631C15.6184 6.01421 15.5747 6.12342 15.4917 6.20639C15.4087 6.28938 15.2995 6.33307 15.1816 6.33307C15.068 6.33307 14.9545 6.28938 14.8759 6.20639C14.7929 6.12342 14.7448 6.01421 14.7448 5.89631C14.7448 5.78276 14.7929 5.6692 14.8759 5.58621ZM13.6267 2.57251C13.7883 2.41092 14.081 2.41092 14.2426 2.57251C14.3255 2.65116 14.3692 2.76468 14.3692 2.88261C14.3692 2.9962 14.3255 3.10976 14.2426 3.18838C14.164 3.27134 14.0504 3.3194 13.9324 3.3194C13.8189 3.3194 13.7053 3.27134 13.6267 3.18838C13.5437 3.10976 13.4957 2.9962 13.4957 2.88261C13.4957 2.76468 13.5437 2.65116 13.6267 2.57251ZM13.6267 8.60425C13.7883 8.44263 14.081 8.44263 14.2426 8.60425C14.3255 8.68287 14.3692 8.79639 14.3692 8.91432C14.3692 9.02791 14.3255 9.14147 14.2426 9.22446C14.164 9.30305 14.0504 9.35111 13.9324 9.35111C13.8189 9.35111 13.7053 9.30305 13.6267 9.22446C13.5437 9.14147 13.4957 9.02791 13.4957 8.91432C13.4957 8.79639 13.5437 8.68287 13.6267 8.60425ZM6.96169 6.20639C6.8787 6.28938 6.76517 6.33307 6.65162 6.33307C6.53803 6.33307 6.42447 6.28938 6.34151 6.20639C6.26289 6.12342 6.21483 6.00987 6.21483 5.89631C6.21483 5.78276 6.26289 5.6692 6.34151 5.58621C6.50747 5.42459 6.79573 5.42459 6.96169 5.59058C7.04034 5.6692 7.08837 5.78276 7.08837 5.89631C7.08837 6.00987 7.04034 6.12342 6.96169 6.20639ZM8.21087 9.22009C8.12787 9.30305 8.01432 9.35111 7.90073 9.35111C7.78717 9.35111 7.67362 9.30305 7.59062 9.22009C7.512 9.14147 7.46397 9.02791 7.46397 8.91432C7.46397 8.79639 7.512 8.68721 7.59062 8.60425C7.75661 8.44263 8.04925 8.44263 8.21087 8.60425C8.29383 8.68721 8.33752 8.80077 8.33752 8.91432C8.33752 9.02791 8.29383 9.14147 8.21087 9.22009ZM8.21087 3.18838C8.12787 3.27134 8.01869 3.31503 7.90073 3.31503C7.78717 3.31503 7.67362 3.27134 7.59062 3.18838C7.512 3.10976 7.46397 2.9962 7.46397 2.88261C7.46397 2.76468 7.512 2.65116 7.59062 2.57251C7.75661 2.41092 8.04925 2.41092 8.21087 2.57251C8.29383 2.65116 8.33752 2.76468 8.33752 2.88261C8.33752 2.9962 8.29383 3.10976 8.21087 3.18838ZM10.6087 1.32339C10.7703 1.1574 11.0629 1.16178 11.2289 1.32339C11.3075 1.40198 11.3555 1.51557 11.3555 1.62912C11.3555 1.74705 11.3075 1.86061 11.2289 1.93923C11.1459 2.02223 11.0323 2.06588 10.9188 2.06588C10.8009 2.06588 10.6873 2.02223 10.6087 1.93923C10.5257 1.85624 10.482 1.74705 10.482 1.62912C10.482 1.51557 10.5257 1.40636 10.6087 1.32339ZM10.482 4.91796V3.44171C10.482 3.19713 10.6786 3.00495 10.9188 3.00495C11.159 3.00495 11.3555 3.19713 11.3555 3.44171V4.91796C11.7312 5.08392 11.9932 5.45956 11.9932 5.89631C11.9932 6.49031 11.5084 6.97072 10.9188 6.97072C10.3248 6.97072 9.84434 6.49031 9.84434 5.89631C9.84434 5.45956 10.1064 5.08392 10.482 4.91796ZM11.3555 10.1635C11.3555 10.277 11.3075 10.3906 11.2289 10.4736C11.1459 10.5522 11.0323 10.6003 10.9188 10.6003C10.8009 10.6003 10.6917 10.5522 10.6087 10.4736C10.5257 10.3906 10.482 10.277 10.482 10.1635C10.482 10.0499 10.5257 9.93639 10.6087 9.85339C10.7703 9.69178 11.0673 9.69178 11.2289 9.85339C11.3075 9.93639 11.3555 10.0499 11.3555 10.1635Z" fill="black"/>
<path d="M21.4013 13.9764H15.4832V18.8901H21.4013C21.6415 18.8901 21.8381 18.6935 21.8381 18.4533V14.4132C21.8381 14.173 21.6415 13.9764 21.4013 13.9764Z" fill="black"/>
<path d="M0.436787 18.8901H6.35494V13.9764H0.436787C0.196551 13.9764 0 14.173 0 14.4132V18.4533C0 18.6935 0.196551 18.8901 0.436787 18.8901Z" fill="black"/>
</svg>
