<svg width="37" height="38" viewBox="0 0 37 38" fill="none" xmlns="http://www.w3.org/2000/svg">
<path d="M35.004 17.6182C33.99 17.4622 33.054 18.2032 32.898 19.1782C32.508 22.1422 31.143 24.8332 29.037 26.9392C24.747 31.2292 18.312 32.0482 13.203 29.4352L10.668 32.2822C13.359 33.8422 16.401 34.6222 19.404 34.6222C23.85 34.6222 28.296 32.9452 31.65 29.5522C34.341 26.8612 36.018 23.4682 36.564 19.6852C36.72 18.7102 36.018 17.7742 35.004 17.6182Z" fill="black"/>
<path d="M35.0051 2.05725C33.9911 2.05725 33.1721 2.87625 33.1721 3.92925V6.54225L31.6901 5.06025C24.9431 -1.68675 13.9451 -1.68675 7.15908 5.06025C5.05308 7.16625 3.61008 9.70125 2.83008 12.3533C3.53208 11.8463 4.39008 11.5733 5.28708 11.5733H7.08108C7.74408 10.1693 8.64108 8.84325 9.81108 7.67325C15.1151 2.36925 23.7731 2.36925 29.0771 7.67325L30.5201 9.15525H27.9071C26.8931 9.15525 26.0351 9.97425 26.0351 10.9883C26.0351 12.0023 26.8541 12.8602 27.9071 12.8602H35.0051C36.0191 12.8602 36.8771 12.0413 36.8771 10.9883V3.89025C36.8771 2.87625 36.0191 2.05725 35.0051 2.05725Z" fill="black"/>
<path d="M19.3661 7.67334C18.3521 7.67334 17.4941 8.49234 17.4941 9.54534V17.3063C17.4941 18.1253 18.0401 18.8663 18.8591 19.1003L24.5531 20.6993C24.7091 20.7383 24.9041 20.7773 25.0601 20.7773C25.8791 20.7773 26.6201 20.2313 26.8541 19.4123C27.1271 18.4373 26.5421 17.4233 25.5671 17.1113L21.1991 15.9023V9.54534C21.1991 8.53134 20.3801 7.67334 19.3661 7.67334Z" fill="black"/>
<path d="M11.9169 23.3512H8.79687L12.6969 16.4092C13.0869 15.7462 12.5799 14.8882 11.7999 14.8882H5.28687C4.85787 14.8882 4.46787 15.1612 4.35087 15.5512L0.0608703 27.0172C-0.17313 27.6802 0.29487 28.3822 0.99687 28.3822H3.25887L0.84087 35.9092C0.56787 36.8062 1.65987 37.4302 2.28387 36.7282L12.6579 25.0282C13.2429 24.4042 12.7749 23.3512 11.9169 23.3512Z" fill="black"/>
</svg>
