<svg width="53" height="46" viewBox="0 0 53 46" fill="none" xmlns="http://www.w3.org/2000/svg">
<path d="M51.9016 8.66413C51.7519 8.50267 51.5435 8.40814 51.3241 8.40124L43.2883 8.1211L42.6445 0.758107C42.6252 0.538687 42.5197 0.335827 42.3513 0.195067C42.1829 0.053617 41.9635 -0.0181433 41.7462 0.0039367L12.2086 2.58937C11.7519 2.62939 11.4151 3.03166 11.4545 3.48775L11.7346 6.69211L0.684956 8.64067C0.233696 8.72002 -0.067144 9.14989 0.012896 9.60115L6.23946 44.9195C6.30984 45.3218 6.65967 45.6047 7.05504 45.6047C7.10265 45.6047 7.15164 45.6005 7.19994 45.5915L19.602 43.4056L19.582 44.0108C19.5737 44.2309 19.6537 44.4448 19.8042 44.6055C19.9539 44.767 20.1623 44.8615 20.3817 44.8684L50.0137 45.9027C50.0234 45.9034 50.0338 45.9034 50.0434 45.9034C50.4878 45.9034 50.8555 45.5508 50.8714 45.103L52.1238 9.25891C52.132 9.0388 52.052 8.8249 51.9016 8.66413ZM19.6627 41.711L7.72986 43.8148L1.79103 10.1297L11.8809 8.35018L12.2749 12.8545L6.15528 13.9337C5.70402 14.013 5.40318 14.4429 5.48322 14.8941C5.5536 15.2964 5.90343 15.5793 6.2988 15.5793C6.34641 15.5793 6.3954 15.5752 6.4437 15.5662L12.4205 14.5126L12.733 18.0909L7.06401 19.0907C6.61275 19.1701 6.31191 19.5999 6.39195 20.0512C6.46233 20.4535 6.81216 20.7364 7.20753 20.7364C7.25514 20.7364 7.30413 20.7322 7.35243 20.7233L12.8779 19.7483L13.2071 23.5088L8.0031 24.4258C7.55184 24.5051 7.251 24.935 7.33104 25.3863C7.40142 25.7885 7.75125 26.0714 8.14662 26.0714C8.19423 26.0714 8.24322 26.0673 8.29152 26.0583L13.352 25.1669L13.6839 28.9653L8.95185 29.7988C8.50059 29.8782 8.19975 30.308 8.27979 30.7593C8.35017 31.1616 8.7 31.4445 9.09537 31.4445C9.14298 31.4445 9.19197 31.4403 9.24027 31.4314L13.8288 30.6227L14.2207 35.1077L10.0207 35.8481C9.5694 35.9274 9.26856 36.3573 9.3486 36.8085C9.41898 37.2108 9.76881 37.4937 10.1642 37.4937C10.2118 37.4937 10.2608 37.4896 10.3091 37.4806L14.3656 36.7651L14.5795 39.2139C14.5988 39.4333 14.7044 39.6362 14.8727 39.7769C15.0225 39.9032 15.2115 39.9715 15.4054 39.9715C15.4296 39.9715 15.453 39.9708 15.4772 39.968L19.7359 39.5954L19.6627 41.711ZM20.8695 8.0176L17.196 8.33914C16.7392 8.37916 16.4025 8.78143 16.4418 9.23752C16.4797 9.66946 16.842 9.99445 17.267 9.99445C17.2912 9.99445 17.3153 9.99376 17.3402 9.991L20.7826 9.69016L20.6563 13.292L17.6527 13.5542C17.196 13.5942 16.8592 13.9964 16.8986 14.4525C16.9358 14.8845 17.2988 15.2095 17.7238 15.2095C17.748 15.2095 17.7721 15.2088 17.797 15.206L20.5984 14.9611L20.4659 18.7471L18.1247 18.952C17.6679 18.992 17.3312 19.3943 17.3705 19.8504C17.4078 20.2823 17.7707 20.6073 18.1958 20.6073C18.2199 20.6073 18.2441 20.6066 18.2689 20.6039L20.4079 20.4169L20.2741 24.2409L18.5994 24.3872C18.1426 24.4272 17.8059 24.8294 17.8453 25.2855C17.8825 25.7175 18.2455 26.0425 18.6705 26.0425C18.6946 26.0425 18.7188 26.0418 18.7436 26.039L20.2161 25.9107L20.0581 30.4274L19.1356 30.5081C18.6788 30.5482 18.3421 30.9504 18.3814 31.4065C18.4193 31.8385 18.7816 32.1635 19.2066 32.1635C19.2308 32.1635 19.2549 32.1628 19.2798 32.16L19.9994 32.0972L19.7952 37.927L16.1596 38.2451L13.1802 4.16878L41.0651 1.72756L41.6192 8.06245L41.8717 8.07142L38.3734 7.94929C38.5418 7.78162 38.6453 7.55185 38.6225 7.29655C38.5825 6.84046 38.1768 6.50374 37.7242 6.54238L26.4095 7.53184L21.6934 7.36762C21.2642 7.3345 20.9516 7.63327 20.8695 8.0176ZM49.243 44.2164L21.2683 43.2393L22.4648 9.05467L50.4374 10.0296L49.243 44.2164Z" fill="black"/>
<path d="M25.8842 15.3406L46.4773 16.0575C46.4876 16.0582 46.4973 16.0582 46.5069 16.0582C46.9513 16.0582 47.3191 15.7056 47.3349 15.2578C47.3508 14.7997 46.9934 14.4153 46.5352 14.4001L25.9422 13.6832C25.4488 13.6543 25.0997 14.0248 25.0845 14.4829C25.0686 14.9411 25.426 15.3247 25.8842 15.3406Z" fill="black"/>
<path d="M25.6987 20.5735L46.2924 21.2918C46.3021 21.2925 46.3124 21.2925 46.3221 21.2925C46.7664 21.2925 47.1342 20.9399 47.1501 20.4921C47.1659 20.0346 46.8085 19.6496 46.3504 19.6344L25.7566 18.9161C25.3157 18.8788 24.9148 19.2577 24.8989 19.7158C24.8831 20.174 25.2412 20.5576 25.6987 20.5735Z" fill="black"/>
<path d="M25.5112 25.9886L46.1042 26.7076C46.1139 26.7083 46.1242 26.7083 46.1339 26.7083C46.5782 26.7083 46.946 26.3557 46.9619 25.9079C46.9777 25.4504 46.6203 25.0654 46.1622 25.0502L25.5691 24.3313C25.1261 24.3126 24.7273 24.6728 24.7114 25.131C24.6956 25.5884 25.053 25.9728 25.5112 25.9886Z" fill="black"/>
<path d="M25.3198 31.4403L45.9128 32.1586C45.9225 32.1593 45.9328 32.1593 45.9425 32.1593C46.3868 32.1593 46.7546 31.8067 46.7705 31.3589C46.7863 30.9014 46.4289 30.5164 45.9708 30.5012L25.3777 29.7837C24.9368 29.765 24.5359 30.1252 24.52 30.5834C24.5042 31.0415 24.8616 31.4252 25.3198 31.4403Z" fill="black"/>
<path d="M25.1069 37.5792L45.6978 38.2982C45.7075 38.2989 45.7179 38.2989 45.7275 38.2989C46.1719 38.2989 46.5396 37.9463 46.5555 37.4985C46.5714 37.041 46.214 36.656 45.7558 36.6408L25.1648 35.9218C24.7108 35.8984 24.3223 36.2634 24.3071 36.7216C24.2913 37.179 24.6494 37.5634 25.1069 37.5792Z" fill="black"/>
</svg>
