<svg width="42" height="47" viewBox="0 0 42 47" fill="none" xmlns="http://www.w3.org/2000/svg">
    <path d="M29.2767 26.3186C28.7042 25.0542 27.7694 23.988 26.5906 23.2551C25.4119 22.5222 24.0421 22.1555 22.6549 22.2015C21.2676 22.2474 19.9251 22.704 18.7974 23.5133C17.6698 24.3226 16.8076 25.4483 16.32 26.7479C15.8324 28.0475 15.7414 29.4625 16.0585 30.8139C16.3756 32.1652 17.0864 33.3921 18.1012 34.3392C19.1159 35.2863 20.3888 35.9111 21.7587 36.1344C23.1287 36.3577 24.5341 36.1695 25.7971 35.5936C26.6386 35.2179 27.3971 34.6788 28.0286 34.0076C28.66 33.3363 29.1519 32.5464 29.4756 31.6835C29.7993 30.8206 29.9485 29.9021 29.9143 28.9811C29.8802 28.0602 29.6635 27.1552 29.2767 26.3186V26.3186ZM20.9885 34.3124C19.8096 33.8702 18.8205 33.0328 18.1898 31.9431C17.5591 30.8534 17.3257 29.5787 17.5295 28.3362C17.7333 27.0937 18.3616 25.9603 19.3073 25.1291C20.2531 24.2979 21.4578 23.8204 22.7162 23.7779C23.9746 23.7353 25.2088 24.1305 26.2085 24.8959C27.2082 25.6614 27.9115 26.7498 28.1987 27.9757C28.4859 29.2016 28.3391 30.4892 27.7833 31.619C27.2276 32.7488 26.2973 33.651 25.151 34.1718C24.5009 34.4693 23.7983 34.6349 23.0838 34.659C22.3693 34.6831 21.6571 34.5653 20.9885 34.3124Z"
          fill="black"/>
    <path d="M25.5254 25.4756C25.3353 25.3933 25.1202 25.3898 24.9276 25.466C24.7349 25.5422 24.5804 25.6918 24.498 25.8819L22.5949 30.2678L20.9777 29.3303C20.8888 29.2738 20.7894 29.2358 20.6854 29.2187C20.5814 29.2016 20.4751 29.2057 20.3727 29.2308C20.2704 29.2559 20.1742 29.3014 20.0899 29.3646C20.0056 29.4278 19.9349 29.5074 19.8822 29.5986C19.8295 29.6899 19.7957 29.7908 19.783 29.8954C19.7703 30 19.7789 30.1061 19.8083 30.2073C19.8376 30.3085 19.8872 30.4027 19.9539 30.4842C20.0206 30.5658 20.1031 30.633 20.1965 30.6819L22.573 32.0584C22.6917 32.1273 22.8264 32.1637 22.9637 32.1639C23.0467 32.1637 23.1292 32.1505 23.2082 32.1248C23.3123 32.0898 23.4079 32.0332 23.4886 31.9588C23.5694 31.8844 23.6336 31.7937 23.6769 31.6928L25.9285 26.5022C26.0108 26.3125 26.0146 26.098 25.939 25.9056C25.8634 25.7132 25.7147 25.5586 25.5254 25.4756V25.4756Z"
          fill="black"/>
    <path d="M41.1709 40.9569C40.8429 40.4634 40.3917 40.0643 39.8619 39.7989C39.3321 39.5336 38.7422 39.4114 38.1506 39.4444L36.8334 37.496L37.0201 37.3686C37.1051 37.3111 37.178 37.2375 37.2345 37.1518C37.2911 37.0662 37.3302 36.9702 37.3496 36.8694C37.3691 36.7687 37.3685 36.665 37.3479 36.5645C37.3272 36.464 37.287 36.3685 37.2295 36.2835L36.556 35.2882L38.1725 34.1944C38.7474 33.8034 39.1435 33.2 39.2736 32.517C39.4037 31.834 39.2571 31.1272 38.8662 30.5522L38.0396 29.3288C37.9821 29.2435 37.9084 29.1705 37.8226 29.1138C37.7368 29.0571 37.6407 29.0179 37.5397 28.9985C37.4388 28.979 37.335 28.9797 37.2343 29.0005C37.1336 29.0212 37.038 29.0616 36.9529 29.1194L34.7443 30.6178L31.2287 0.690501C31.2168 0.58856 31.1849 0.489967 31.1349 0.400356C31.0848 0.310745 31.0176 0.231872 30.9371 0.168244C30.8565 0.104616 30.7643 0.0574798 30.6655 0.0295287C30.5667 0.00157774 30.4634 -0.00664016 30.3615 0.00534454L0.689642 3.48972C0.484056 3.51399 0.296509 3.61887 0.168191 3.78132C0.0398723 3.94377 -0.0187252 4.15051 0.00526762 4.35613L4.68495 44.2569C4.70717 44.4471 4.79844 44.6225 4.94146 44.7498C5.08447 44.8771 5.26926 44.9475 5.46074 44.9475C5.49129 44.9477 5.52182 44.9458 5.55214 44.9421L35.1826 41.46C34.8715 42.1443 34.7924 42.9115 34.9575 43.6448C35.1226 44.3781 35.5228 45.0374 36.0971 45.5224C36.6715 46.0073 37.3885 46.2913 38.1392 46.3311C38.8898 46.3709 39.6329 46.1643 40.2553 45.7428C40.6305 45.4894 40.9519 45.1644 41.2012 44.7864C41.4504 44.4084 41.6225 43.9848 41.7076 43.5401C41.7926 43.0954 41.789 42.6383 41.6969 42.195C41.6048 41.7517 41.4261 41.3309 41.1709 40.9569V40.9569ZM35.4975 36.5124L35.3146 36.6374H35.31L34.2943 37.3311L33.285 38.0194L33.0459 37.6678L33.267 37.5178L34.9935 36.3507C35.0101 36.3393 35.026 36.327 35.0412 36.3139L35.2631 36.1639L35.4975 36.5124ZM37.1842 30.8483L37.5748 31.4249C37.6535 31.5401 37.7088 31.6697 37.7373 31.8063C37.7659 31.943 37.7672 32.0839 37.7412 32.221C37.7159 32.3577 37.6635 32.4879 37.5872 32.6041C37.5109 32.7203 37.4121 32.82 37.2967 32.8975L35.0459 34.4249L35.0334 34.4303L34.1193 35.0499L34.1146 35.0538L31.5217 36.8139L29.2654 38.3475C29.1506 38.4261 29.0213 38.481 28.885 38.509C28.7487 38.5371 28.6082 38.5377 28.4717 38.5108C28.3343 38.4842 28.2034 38.4307 28.0867 38.3535C27.9699 38.2763 27.8695 38.1768 27.7912 38.0608L27.4006 37.4843L34.5623 32.6327C34.5701 32.628 34.5756 32.6202 34.5834 32.6147L37.1842 30.8483ZM6.14589 43.2991L1.64824 4.94988L29.7732 1.64441L33.2889 31.6014L25.8717 36.6311C25.7866 36.6888 25.7138 36.7627 25.6573 36.8486C25.6009 36.9344 25.5619 37.0306 25.5427 37.1315C25.5235 37.2325 25.5243 37.3362 25.5453 37.4368C25.5662 37.5374 25.6068 37.6329 25.6646 37.7178L26.5006 38.9405C26.6933 39.2261 26.9405 39.4708 27.2281 39.6605C27.5157 39.8502 27.838 39.9812 28.1764 40.046C28.3419 40.0777 28.5101 40.0937 28.6787 40.0936H28.7045C28.8548 40.0909 29.0046 40.0753 29.1521 40.0468C29.1928 40.0389 29.2303 40.0288 29.274 40.0186C29.3886 39.9918 29.5011 39.9568 29.6107 39.9139C29.6506 39.8983 29.6889 39.885 29.7303 39.8671C29.8748 39.8048 30.0134 39.7295 30.1443 39.6421L31.756 38.5483L32.4357 39.5468C32.4896 39.6233 32.5571 39.6893 32.635 39.7413C32.6506 39.7522 32.6654 39.7632 32.6818 39.7733C32.7559 39.8183 32.837 39.8508 32.9217 39.8694C32.9373 39.8694 32.9529 39.8694 32.9685 39.8749C33.0062 39.8823 33.0443 39.887 33.0826 39.8889C33.1154 39.8859 33.148 39.8809 33.1803 39.8741C33.2084 39.8718 33.2363 39.8677 33.2639 39.8616C33.3554 39.8418 33.4426 39.8052 33.5209 39.7538L33.867 39.5194L34.1975 40.0061L6.14589 43.2991ZM40.1725 43.2483C40.1267 43.4912 40.033 43.7225 39.8967 43.9287C39.7604 44.1349 39.5843 44.3118 39.3787 44.4491V44.4491C39.0176 44.6951 38.5821 44.8078 38.147 44.7681C37.7118 44.7283 37.3041 44.5385 36.9935 44.2311C36.6829 43.9238 36.4888 43.518 36.4445 43.0833C36.4002 42.6486 36.5084 42.212 36.7506 41.8483C36.8362 41.7191 36.8815 41.5674 36.8806 41.4124C36.8798 41.2575 36.8329 41.1062 36.7459 40.978L35.492 39.1296L35.1576 38.6366L35.5428 38.3741L37.1287 40.7178C37.2166 40.8465 37.3408 40.9462 37.4855 41.0042C37.6301 41.0622 37.7887 41.0759 37.9412 41.0436C38.3056 40.9643 38.6855 40.997 39.0311 41.1372C39.3766 41.2774 39.6718 41.5188 39.8779 41.8296C40.018 42.035 40.1161 42.2661 40.1666 42.5096C40.2172 42.753 40.2192 43.0041 40.1725 43.2483V43.2483Z"
          fill="black"/>
    <path d="M5.51952 11.3374L27.0531 8.85851C27.155 8.84676 27.2537 8.81505 27.3433 8.76519C27.433 8.71533 27.512 8.6483 27.5758 8.56792C27.6395 8.48754 27.6868 8.39538 27.715 8.29672C27.7431 8.19805 27.7516 8.09481 27.7398 7.99288C27.7281 7.89095 27.6964 7.79234 27.6465 7.70266C27.5967 7.61299 27.5296 7.53401 27.4492 7.47025C27.3689 7.40648 27.2767 7.35917 27.178 7.33101C27.0794 7.30286 26.9761 7.29442 26.8742 7.30616L5.3414 9.78507C5.14392 9.80854 4.96282 9.90643 4.83502 10.0588C4.70722 10.2112 4.64234 10.4065 4.6536 10.6051C4.66485 10.8036 4.75141 10.9904 4.89561 11.1274C5.03981 11.2643 5.23082 11.3411 5.42968 11.3421C5.45969 11.3421 5.48968 11.3405 5.51952 11.3374V11.3374Z"
          fill="black"/>
    <path d="M5.99882 15.4804L27.5324 13.0023C27.6365 12.9933 27.7378 12.9635 27.8302 12.9148C27.9226 12.866 28.0043 12.7991 28.0704 12.7182C28.1366 12.6373 28.1858 12.5439 28.2152 12.4436C28.2446 12.3434 28.2535 12.2382 28.2416 12.1344C28.2296 12.0306 28.1969 11.9302 28.1455 11.8393C28.094 11.7483 28.0249 11.6686 27.9421 11.6048C27.8593 11.5411 27.7645 11.4946 27.6634 11.4681C27.5623 11.4416 27.4569 11.4357 27.3535 11.4507L5.81992 13.9288C5.62244 13.9523 5.44134 14.0502 5.31354 14.2025C5.18574 14.3549 5.12086 14.5503 5.13211 14.7488C5.14337 14.9474 5.22992 15.1342 5.37413 15.2711C5.51833 15.4081 5.70933 15.4849 5.9082 15.4858C5.93849 15.486 5.96876 15.4842 5.99882 15.4804V15.4804Z"
          fill="black"/>
    <path d="M6.47464 19.6249L25.1223 17.4789C25.2266 17.4701 25.328 17.4406 25.4206 17.3919C25.5132 17.3432 25.5951 17.2765 25.6615 17.1955C25.7278 17.1146 25.7772 17.0212 25.8067 16.9208C25.8362 16.8204 25.8453 16.7152 25.8334 16.6112C25.8214 16.5073 25.7887 16.4068 25.7372 16.3157C25.6857 16.2246 25.6165 16.1448 25.5335 16.0811C25.4506 16.0173 25.3557 15.9708 25.2544 15.9444C25.1532 15.918 25.0477 15.9122 24.9442 15.9273L6.29651 18.0734C6.09909 18.0968 5.91804 18.1947 5.79024 18.347C5.66244 18.4992 5.5975 18.6945 5.60865 18.893C5.61981 19.0915 5.70622 19.2783 5.85028 19.4153C5.99434 19.5523 6.18521 19.6292 6.38401 19.6304C6.41431 19.6306 6.44458 19.6287 6.47464 19.6249Z"
          fill="black"/>
    <path d="M18.6455 21.6366C18.6337 21.5346 18.602 21.436 18.5522 21.3463C18.5023 21.2567 18.4353 21.1777 18.3549 21.1139C18.2745 21.0501 18.1823 21.0028 18.0837 20.9747C17.985 20.9465 17.8818 20.9381 17.7798 20.9498L6.77202 22.2163C6.57317 22.2381 6.39029 22.3354 6.26106 22.4881C6.13183 22.6408 6.06611 22.8373 6.07742 23.037C6.08874 23.2367 6.17624 23.4245 6.3219 23.5616C6.46755 23.6988 6.66026 23.7748 6.8603 23.7741C6.89033 23.7742 6.92034 23.7724 6.95014 23.7686L17.9587 22.5022C18.0607 22.4905 18.1593 22.4587 18.249 22.4089C18.3386 22.359 18.4176 22.292 18.4814 22.2116C18.5452 22.1312 18.5925 22.0391 18.6206 21.9404C18.6488 21.8417 18.6572 21.7385 18.6455 21.6366V21.6366Z"
          fill="black"/>
</svg>
