<svg width="40" height="40" viewBox="0 0 40 40" fill="none" xmlns="http://www.w3.org/2000/svg">
<path d="M26.2952 31.5348H13.7027C12.9425 31.5348 12.2134 31.2331 11.6755 30.6959C11.1377 30.1587 10.835 29.43 10.834 28.6698V11.3298C10.835 10.5697 11.1377 9.84094 11.6755 9.30375C12.2134 8.76657 12.9425 8.46484 13.7027 8.46484H26.2952C27.0554 8.46484 27.7845 8.76657 28.3224 9.30375C28.8603 9.84094 29.163 10.5697 29.164 11.3298V28.6698C29.163 29.43 28.8603 30.1587 28.3224 30.6959C27.7845 31.2331 27.0554 31.5348 26.2952 31.5348V31.5348ZM13.7027 9.78484C13.2906 9.78484 12.8954 9.94829 12.6036 10.2393C12.3119 10.5304 12.1475 10.9253 12.1465 11.3373V28.6698C12.1475 29.0819 12.3119 29.4768 12.6036 29.7679C12.8954 30.0589 13.2906 30.2223 13.7027 30.2223H26.2952C26.7073 30.2223 27.1026 30.0589 27.3943 29.7679C27.6861 29.4768 27.8505 29.0819 27.8515 28.6698V11.3298C27.8505 10.9178 27.6861 10.5229 27.3943 10.2318C27.1026 9.94079 26.7073 9.77734 26.2952 9.77734L13.7027 9.78484Z" fill="black"/>
<path d="M26 29.0338H24.0012C23.736 29.0328 23.4819 28.927 23.2944 28.7394C23.1068 28.5518 23.001 28.2977 23 28.0325V22.1113C23.0049 21.8486 23.1124 21.5983 23.2996 21.414C23.4867 21.2297 23.7386 21.1259 24.0012 21.125H26C26.2652 21.126 26.5193 21.2318 26.7069 21.4194C26.8945 21.6069 27.0003 21.861 27.0012 22.1262V28.0325C27.0003 28.2977 26.8945 28.5518 26.7069 28.7394C26.5193 28.927 26.2652 29.0328 26 29.0338ZM24.0012 22.0475C23.984 22.0475 23.9674 22.0541 23.9548 22.0659C23.9422 22.0778 23.9347 22.094 23.9338 22.1113V28.0325C23.9347 28.0497 23.9422 28.066 23.9548 28.0778C23.9674 28.0897 23.984 28.0963 24.0012 28.0963H26C26.0166 28.0954 26.0323 28.0883 26.0441 28.0766C26.0558 28.0648 26.0628 28.0491 26.0637 28.0325V22.1113C26.0637 22.0943 26.057 22.0781 26.0451 22.0662C26.0331 22.0542 26.0169 22.0475 26 22.0475H24.0012Z" fill="black"/>
<path d="M21.0018 29.0001H18.9993C18.7334 28.9991 18.4787 28.8928 18.2911 28.7044C18.1034 28.5161 17.998 28.261 17.998 27.9951V26.4239C17.999 26.1586 18.1048 25.9045 18.2924 25.717C18.48 25.5294 18.7341 25.4236 18.9993 25.4226H21.0018C21.267 25.4236 21.5211 25.5294 21.7087 25.717C21.8963 25.9045 22.0021 26.1586 22.003 26.4239V28.0026C22.0011 28.2672 21.8948 28.5203 21.7074 28.7071C21.5199 28.8938 21.2664 28.9991 21.0018 29.0001ZM18.9993 26.3751C18.9827 26.376 18.967 26.383 18.9552 26.3948C18.9435 26.4065 18.9364 26.4222 18.9355 26.4389V28.0176C18.9355 28.0349 18.9421 28.0515 18.954 28.0641C18.9658 28.0766 18.9821 28.0841 18.9993 28.0851H21.0018C21.019 28.0841 21.0353 28.0766 21.0471 28.0641C21.059 28.0515 21.0656 28.0349 21.0655 28.0176V26.4239C21.0646 26.4072 21.0576 26.3915 21.0459 26.3798C21.0341 26.368 21.0184 26.361 21.0018 26.3601L18.9993 26.3751Z" fill="black"/>
<path d="M15.9981 29.0001H13.9993C13.8675 29.0001 13.737 28.9741 13.6153 28.9235C13.4936 28.873 13.383 28.7989 13.29 28.7055C13.197 28.6122 13.1233 28.5013 13.0732 28.3794C13.0231 28.2575 12.9976 28.1269 12.9981 27.9951V26.4239C12.9981 26.1583 13.1035 25.9036 13.2913 25.7159C13.4791 25.5281 13.7338 25.4226 13.9993 25.4226H15.9981C16.1295 25.4226 16.2597 25.4485 16.3812 25.4988C16.5027 25.5491 16.6131 25.6229 16.706 25.7159C16.799 25.8088 16.8728 25.9192 16.9231 26.0407C16.9734 26.1622 16.9993 26.2924 16.9993 26.4239V28.0026C16.9983 28.2675 16.8924 28.5212 16.7047 28.7082C16.5171 28.8951 16.263 29.0001 15.9981 29.0001ZM13.9993 26.3751C13.9827 26.376 13.967 26.383 13.9552 26.3948C13.9435 26.4065 13.9365 26.4222 13.9356 26.4389V28.0176C13.9355 28.0349 13.9421 28.0515 13.954 28.0641C13.9658 28.0766 13.9821 28.0841 13.9993 28.0851H15.9981C16.0068 28.0851 16.0154 28.0834 16.0233 28.0799C16.0313 28.0765 16.0385 28.0715 16.0445 28.0651C16.0505 28.0588 16.0551 28.0513 16.0581 28.0432C16.061 28.035 16.0623 28.0263 16.0618 28.0176V26.4239C16.0618 26.407 16.0551 26.3907 16.0431 26.3788C16.0312 26.3668 16.015 26.3601 15.9981 26.3601L13.9993 26.3751Z" fill="black"/>
<path d="M21.0018 24.695H18.9993C18.7334 24.694 18.4787 24.5877 18.2911 24.3993C18.1034 24.211 17.998 23.9559 17.998 23.69V22.1113C18.0029 21.8486 18.1105 21.5983 18.2976 21.414C18.4848 21.2297 18.7366 21.1259 18.9993 21.125H21.0018C21.267 21.126 21.5211 21.2318 21.7087 21.4194C21.8963 21.6069 22.0021 21.861 22.003 22.1262V23.705C21.9991 23.9683 21.892 24.2195 21.7048 24.4047C21.5175 24.5898 21.2651 24.694 21.0018 24.695ZM18.9993 22.0475C18.9827 22.0484 18.967 22.0554 18.9552 22.0672C18.9435 22.0789 18.9364 22.0946 18.9355 22.1113V23.69C18.9355 23.7073 18.9421 23.7239 18.954 23.7365C18.9658 23.749 18.9821 23.7565 18.9993 23.7575H21.0018C21.019 23.7565 21.0353 23.749 21.0471 23.7365C21.059 23.7239 21.0656 23.7073 21.0655 23.69V22.1113C21.0646 22.0946 21.0576 22.0789 21.0459 22.0672C21.0341 22.0554 21.0184 22.0484 21.0018 22.0475H18.9993Z" fill="black"/>
<path d="M15.9981 24.695H13.9993C13.8675 24.695 13.737 24.669 13.6153 24.6184C13.4936 24.5679 13.383 24.4938 13.29 24.4004C13.197 24.307 13.1233 24.1962 13.0732 24.0743C13.0231 23.9524 12.9976 23.8218 12.9981 23.69V22.1113C13.002 21.8483 13.1092 21.5975 13.2966 21.4129C13.4839 21.2284 13.7363 21.125 13.9993 21.125H15.9981C16.261 21.125 16.5134 21.2284 16.7008 21.4129C16.8881 21.5975 16.9954 21.8483 16.9993 22.1113V23.69C16.9998 23.8218 16.9743 23.9524 16.9242 24.0743C16.8741 24.1962 16.8004 24.307 16.7074 24.4004C16.6143 24.4938 16.5038 24.5679 16.3821 24.6184C16.2604 24.669 16.1299 24.695 15.9981 24.695V24.695ZM13.9993 22.0475C13.9827 22.0484 13.967 22.0554 13.9552 22.0672C13.9435 22.0789 13.9365 22.0946 13.9356 22.1113V23.69C13.9373 23.7059 13.9447 23.7207 13.9564 23.7317C13.9681 23.7427 13.9833 23.7492 13.9993 23.75H15.9981C16.0068 23.75 16.0154 23.7482 16.0233 23.7448C16.0313 23.7414 16.0385 23.7363 16.0445 23.73C16.0505 23.7237 16.0551 23.7162 16.0581 23.708C16.061 23.6999 16.0623 23.6912 16.0618 23.6825V22.1113C16.0618 22.0943 16.0551 22.0781 16.0431 22.0662C16.0312 22.0542 16.015 22.0475 15.9981 22.0475H13.9993Z" fill="black"/>
<path d="M26 20.3749H24.0012C23.7367 20.3739 23.4831 20.2686 23.2957 20.0818C23.1082 19.8951 23.002 19.642 23 19.3774V17.7986C23.001 17.5327 23.1073 17.2781 23.2957 17.0904C23.484 16.9027 23.7391 16.7974 24.005 16.7974H26C26.2652 16.7984 26.5193 16.9042 26.7069 17.0917C26.8945 17.2793 27.0003 17.5334 27.0012 17.7986V19.3774C26.9993 19.642 26.893 19.8951 26.7056 20.0818C26.5181 20.2686 26.2646 20.3739 26 20.3749V20.3749ZM24.0012 17.7499C23.984 17.7498 23.9674 17.7564 23.9548 17.7683C23.9422 17.7801 23.9347 17.7964 23.9338 17.8136V19.3924C23.9338 19.4103 23.9409 19.4274 23.9535 19.4401C23.9662 19.4528 23.9833 19.4599 24.0012 19.4599H26C26.0087 19.4599 26.0173 19.4581 26.0253 19.4547C26.0333 19.4512 26.0405 19.4462 26.0465 19.4399C26.0524 19.4336 26.057 19.4261 26.06 19.4179C26.063 19.4097 26.0643 19.401 26.0637 19.3924V17.7986C26.0597 17.7847 26.0514 17.7725 26.0399 17.7637C26.0284 17.755 26.0144 17.7501 26 17.7499H24.0012Z" fill="black"/>
<path d="M21.0018 20.3749H18.9993C18.7334 20.3739 18.4787 20.2676 18.2911 20.0792C18.1034 19.8908 17.998 19.6358 17.998 19.3699V17.7986C17.999 17.5334 18.1048 17.2793 18.2924 17.0917C18.48 16.9042 18.7341 16.7984 18.9993 16.7974H21.0018C21.267 16.7984 21.5211 16.9042 21.7087 17.0917C21.8963 17.2793 22.0021 17.5334 22.003 17.7986V19.3774C22.0011 19.642 21.8948 19.8951 21.7074 20.0818C21.5199 20.2686 21.2664 20.3739 21.0018 20.3749ZM18.9993 17.7499C18.9827 17.7508 18.967 17.7578 18.9552 17.7695C18.9435 17.7813 18.9364 17.797 18.9355 17.8136V19.3924C18.9355 19.4096 18.9421 19.4263 18.954 19.4388C18.9658 19.4514 18.9821 19.4589 18.9993 19.4599H21.0018C21.019 19.4589 21.0353 19.4514 21.0471 19.4388C21.059 19.4263 21.0656 19.4096 21.0655 19.3924V17.7986C21.0646 17.782 21.0576 17.7663 21.0459 17.7545C21.0341 17.7428 21.0184 17.7358 21.0018 17.7349L18.9993 17.7499Z" fill="black"/>
<path d="M15.9981 20.3749H13.9993C13.8675 20.3749 13.737 20.3488 13.6153 20.2983C13.4936 20.2477 13.383 20.1737 13.29 20.0803C13.197 19.9869 13.1233 19.8761 13.0732 19.7542C13.0231 19.6323 12.9976 19.5017 12.9981 19.3699V17.7986C12.9981 17.5331 13.1035 17.2784 13.2913 17.0906C13.4791 16.9029 13.7338 16.7974 13.9993 16.7974H15.9981C16.2636 16.7974 16.5183 16.9029 16.706 17.0906C16.8938 17.2784 16.9993 17.5331 16.9993 17.7986V19.3774C16.9983 19.6423 16.8924 19.896 16.7047 20.0829C16.5171 20.2699 16.263 20.3749 15.9981 20.3749ZM13.9993 17.7499C13.9827 17.7508 13.967 17.7578 13.9552 17.7695C13.9435 17.7813 13.9365 17.797 13.9356 17.8136V19.3924C13.9355 19.4096 13.9421 19.4263 13.954 19.4388C13.9658 19.4514 13.9821 19.4589 13.9993 19.4599H15.9981C16.0068 19.4599 16.0154 19.4581 16.0233 19.4547C16.0313 19.4512 16.0385 19.4462 16.0445 19.4399C16.0505 19.4336 16.0551 19.4261 16.0581 19.4179C16.061 19.4097 16.0623 19.401 16.0618 19.3924V17.7986C16.0618 17.7817 16.0551 17.7655 16.0431 17.7535C16.0312 17.7416 16.015 17.7349 15.9981 17.7349L13.9993 17.7499Z" fill="black"/>
<path d="M25.5498 16.1863H14.4498C14.1057 16.1863 13.7757 16.0496 13.5324 15.8063C13.289 15.563 13.1523 15.2329 13.1523 14.8888V12.2638C13.1523 11.9197 13.289 11.5897 13.5324 11.3463C13.7757 11.103 14.1057 10.9663 14.4498 10.9663H25.5498C25.7202 10.9663 25.889 10.9999 26.0464 11.0651C26.2038 11.1303 26.3468 11.2259 26.4673 11.3463C26.5878 11.4668 26.6834 11.6099 26.7486 11.7673C26.8138 11.9247 26.8473 12.0934 26.8473 12.2638V14.8888C26.8473 15.2329 26.7106 15.563 26.4673 15.8063C26.224 16.0496 25.894 16.1863 25.5498 16.1863ZM14.4498 11.9038C14.3504 11.9038 14.255 11.9433 14.1847 12.0136C14.1144 12.084 14.0748 12.1794 14.0748 12.2788V14.9038C14.0748 15.0033 14.1144 15.0986 14.1847 15.169C14.255 15.2393 14.3504 15.2788 14.4498 15.2788H25.5498C25.6493 15.2788 25.7447 15.2393 25.815 15.169C25.8853 15.0986 25.9248 15.0033 25.9248 14.9038V12.2788C25.9248 12.1794 25.8853 12.084 25.815 12.0136C25.7447 11.9433 25.6493 11.9038 25.5498 11.9038H14.4498Z" fill="black"/>
</svg>
