<svg width="17" height="17" viewBox="0 0 17 17" fill="none" xmlns="http://www.w3.org/2000/svg">
<path d="M0.707107 14.3022C0.316583 14.6927 0.316582 15.3259 0.707107 15.7164V15.7164C1.09763 16.1069 1.7308 16.1069 2.12132 15.7164L15.7164 2.12135C16.1069 1.73083 16.1069 1.09766 15.7164 0.707139V0.707139C15.3258 0.316614 14.6927 0.316614 14.3021 0.707139L0.707107 14.3022Z" fill="black"/>
<path d="M2.12117 0.707107C1.73065 0.316583 1.09748 0.316582 0.706956 0.707107V0.707107C0.316431 1.09763 0.316431 1.7308 0.706956 2.12132L14.302 15.7164C14.6925 16.1069 15.3257 16.1069 15.7162 15.7164V15.7164C16.1067 15.3258 16.1067 14.6927 15.7162 14.3021L2.12117 0.707107Z" fill="black"/>
</svg>
