<svg width="44" height="44" viewBox="0 0 44 44" fill="none" xmlns="http://www.w3.org/2000/svg">
<path d="M31.1665 31.1483C28.6915 31.1483 27.1332 31.9183 25.7582 32.615C24.5665 33.22 23.5948 33.715 21.9998 33.715C20.3498 33.715 19.4332 33.2566 18.2415 32.615C16.8665 31.9183 15.3632 31.1483 12.8332 31.1483C10.3032 31.1483 8.79984 31.9183 7.42484 32.615C6.23317 33.22 5.27984 33.715 3.6665 33.715V37.29C6.1415 37.29 7.69984 36.52 9.07484 35.8233C10.2665 35.2183 11.2198 34.7233 12.8332 34.7233C14.4465 34.7233 15.3998 35.1816 16.5915 35.8233C17.9665 36.52 19.4698 37.29 21.9998 37.29C24.5298 37.29 26.0332 36.52 27.4082 35.8233C28.5998 35.2183 29.5715 34.7233 31.1665 34.7233C32.8165 34.7233 33.7332 35.1816 34.9248 35.8233C36.2998 36.52 37.8215 37.29 40.3332 37.29V33.715C38.6832 33.715 37.7665 33.2566 36.5748 32.615C35.1998 31.9183 33.6415 31.1483 31.1665 31.1483ZM31.1665 22.99C28.6915 22.99 27.1332 23.7783 25.7582 24.4566C24.5665 25.0433 23.5948 25.5566 21.9998 25.5566C20.3498 25.5566 19.4332 25.0983 18.2415 24.4566C16.8665 23.76 15.3632 22.99 12.8332 22.99C10.3032 22.99 8.79984 23.7783 7.42484 24.4566C6.23317 25.0433 5.27984 25.5566 3.6665 25.5566V29.1316C6.1415 29.1316 7.69984 28.3433 9.07484 27.665C10.2665 27.0233 11.1832 26.565 12.8332 26.565C14.4832 26.565 15.3998 27.0233 16.5915 27.665C17.9665 28.3616 19.4698 29.1316 21.9998 29.1316C24.5298 29.1316 26.0332 28.3433 27.4082 27.665C28.5998 27.0233 29.5165 26.565 31.1665 26.565C32.8165 26.565 33.7332 27.0233 34.9248 27.665C36.2998 28.3616 37.8215 29.1316 40.3332 29.1316V25.5566C38.6832 25.5566 37.7665 25.0983 36.5748 24.4566C35.1998 23.76 33.6415 22.99 31.1665 22.99ZM36.5748 8.17663C35.1998 7.47996 33.6782 6.70996 31.1665 6.70996C28.6548 6.70996 27.1332 7.47996 25.7582 8.17663C24.5665 8.76329 23.5948 9.27663 21.9998 9.27663C20.3498 9.27663 19.4332 8.81829 18.2415 8.17663C16.8665 7.49829 15.3632 6.70996 12.8332 6.70996C10.3032 6.70996 8.79984 7.47996 7.42484 8.17663C6.23317 8.78163 5.27984 9.27663 3.6665 9.27663V12.815C6.1415 12.815 7.69984 12.0266 9.07484 11.3483C10.2665 10.7433 11.2198 10.2483 12.8332 10.2483C14.4465 10.2483 15.3998 10.7066 16.5915 11.3483C17.9665 12.045 19.4698 12.815 21.9998 12.815C24.5298 12.815 26.0332 12.0266 27.4082 11.3483C28.5998 10.7616 29.5715 10.2483 31.1665 10.2483C32.8165 10.2483 33.7332 10.7066 34.9248 11.3483C36.2998 12.045 37.8215 12.815 40.3332 12.815V9.23996C38.6832 9.23996 37.7665 8.78163 36.5748 8.17663V8.17663ZM31.1665 14.8316C28.6915 14.8316 27.1332 15.62 25.7582 16.2983C24.5665 16.94 23.6498 17.3983 21.9998 17.3983C20.3498 17.3983 19.4332 16.94 18.2415 16.2983C16.8665 15.6016 15.3632 14.8316 12.8332 14.8316C10.3032 14.8316 8.79984 15.62 7.42484 16.2983C6.23317 16.94 5.3165 17.3983 3.6665 17.3983V20.9733C6.1415 20.9733 7.69984 20.185 9.07484 19.5066C10.2665 18.92 11.2382 18.4066 12.8332 18.4066C14.4282 18.4066 15.3998 18.865 16.5915 19.5066C17.9665 20.2033 19.4698 20.9733 21.9998 20.9733C24.5298 20.9733 26.0332 20.185 27.4082 19.5066C28.5998 18.92 29.5715 18.4066 31.1665 18.4066C32.8165 18.4066 33.7332 18.865 34.9248 19.5066C36.2998 20.2033 37.8215 20.9733 40.3332 20.9733V17.3983C38.6832 17.3983 37.7665 16.94 36.5748 16.2983C35.1998 15.6016 33.6415 14.8316 31.1665 14.8316Z" fill="black"/>
</svg>
