<svg width="17" height="17" viewBox="0 0 17 17" fill="none" xmlns="http://www.w3.org/2000/svg">
<g clip-path="url(#clip0_934:3406)">
<path d="M8.28 6.21001H2.07C0.926771 6.21001 0 7.13678 0 8.28001V14.49C0 15.6332 0.926771 16.56 2.07 16.56H8.28C9.42323 16.56 10.35 15.6332 10.35 14.49V8.28001C10.35 7.13678 9.42323 6.21001 8.28 6.21001Z" fill="black"/>
<path d="M10.3286 1.94649C10.3062 1.80808 10.2413 1.68006 10.143 1.5801L8.76713 0.200097C8.70307 0.135944 8.627 0.0850368 8.54326 0.0502826C8.45953 0.0155283 8.36976 -0.00239242 8.2791 -0.00245649C8.18844 -0.00252057 8.09865 0.0152733 8.01487 0.0499091C7.93108 0.084545 7.85494 0.135344 7.79078 0.199407C7.72663 0.26347 7.67572 0.339541 7.64097 0.423278C7.60621 0.507015 7.58829 0.596777 7.58823 0.687439C7.58817 0.778102 7.60596 0.867889 7.64059 0.951675C7.67523 1.03546 7.72603 1.1116 7.79009 1.17576L7.99433 1.38H2.35565L2.55782 1.17852C2.62193 1.11445 2.67279 1.03839 2.70751 0.954673C2.74222 0.870953 2.7601 0.781217 2.76013 0.690586C2.76017 0.599956 2.74235 0.510206 2.70769 0.426463C2.67304 0.342719 2.62223 0.26662 2.55817 0.202512C2.49411 0.138404 2.41804 0.0875419 2.33432 0.0528296C2.2506 0.0181172 2.16087 0.000234495 2.07024 0.000202459C1.97961 0.000170424 1.88986 0.0179897 1.80611 0.0526429C1.72237 0.087296 1.64627 0.138104 1.58216 0.202167L0.202163 1.58217C0.0757233 1.71323 0.00506592 1.88823 0.00506592 2.07034C0.00506592 2.25245 0.0757233 2.42746 0.202163 2.55852L1.58216 3.93852C1.71269 4.06572 1.88774 4.13691 2.06999 4.13691C2.25225 4.13691 2.4273 4.06572 2.55782 3.93852C2.68718 3.80912 2.75985 3.63365 2.75985 3.45069C2.75985 3.26772 2.68718 3.09225 2.55782 2.96286L2.35565 2.76H7.99364L7.79147 2.96217C7.66212 3.09156 7.58945 3.26703 7.58945 3.45C7.58945 3.63296 7.66212 3.80843 7.79147 3.93783C7.92294 4.06347 8.09779 4.13359 8.27965 4.13359C8.4615 4.13359 8.63635 4.06347 8.76782 3.93783L10.1478 2.55783C10.224 2.47741 10.2801 2.3801 10.3116 2.27385C10.343 2.1676 10.3488 2.05542 10.3286 1.94649V1.94649Z" fill="black"/>
<path d="M15.3822 14.0022L15.18 14.2043V8.56635L15.3822 8.76852C15.4463 8.83258 15.5225 8.88338 15.6063 8.91802C15.69 8.95265 15.7798 8.97045 15.8705 8.97038C15.9612 8.97032 16.0509 8.9524 16.1347 8.91764C16.2184 8.88289 16.2945 8.83198 16.3585 8.76783C16.4226 8.70368 16.4734 8.62753 16.508 8.54375C16.5427 8.45996 16.5605 8.37018 16.5604 8.27951C16.5603 8.18885 16.5424 8.09909 16.5077 8.01535C16.4729 7.93161 16.422 7.85554 16.3578 7.79148L14.9778 6.41148C14.8457 6.28632 14.6706 6.21657 14.4886 6.21657C14.3066 6.21657 14.1316 6.28632 13.9994 6.41148L12.6194 7.78734C12.5553 7.85142 12.5044 7.92752 12.4696 8.01129C12.4349 8.09505 12.4171 8.18484 12.4171 8.27551C12.4171 8.36619 12.4349 8.45598 12.4696 8.53974C12.5044 8.62351 12.5553 8.69961 12.6194 8.76369C12.7499 8.89126 12.9251 8.96269 13.1076 8.96269C13.2901 8.96269 13.4653 8.89126 13.5958 8.76369L13.8 8.56566V14.2043L13.5985 14.0022C13.5345 13.9381 13.4584 13.8872 13.3747 13.8525C13.291 13.8178 13.2012 13.7999 13.1106 13.7999C13.02 13.7998 12.9302 13.8176 12.8465 13.8523C12.7627 13.887 12.6866 13.9378 12.6225 14.0018C12.5584 14.0659 12.5076 14.142 12.4728 14.2257C12.4381 14.3094 12.4202 14.3991 12.4202 14.4898C12.4202 14.5804 12.438 14.6701 12.4727 14.7539C12.5073 14.8376 12.5581 14.9137 12.6222 14.9778L14.0022 16.3578C14.1332 16.4843 14.3082 16.5549 14.4904 16.5549C14.6725 16.5549 14.8475 16.4843 14.9785 16.3578L16.3585 14.9778C16.4842 14.8477 16.5538 14.6734 16.5522 14.4925C16.5506 14.3116 16.4781 14.1385 16.3501 14.0106C16.2222 13.8826 16.0491 13.8101 15.8682 13.8085C15.6873 13.8069 15.513 13.8765 15.3829 14.0022H15.3822Z" fill="black"/>
</g>
<defs>
<clipPath id="clip0_934:3406">
<rect width="16.56" height="16.56" fill="white"/>
</clipPath>
</defs>
</svg>
