<svg width="19" height="15" viewBox="0 0 19 15" fill="none" xmlns="http://www.w3.org/2000/svg">
<path d="M0.690836 6.60922C1.07229 6.23227 1.6871 6.23591 2.06405 6.61737L8.04578 12.6705C8.42274 13.0519 8.41909 13.6667 8.03764 14.0437C7.65618 14.4206 7.04137 14.417 6.66442 14.0355L0.682692 7.98244C0.305737 7.60099 0.309383 6.98618 0.690836 6.60922Z" fill="black"/>
<path d="M18.0364 0.651599C18.4632 1.01144 18.5175 1.64916 18.1577 2.07598L8.15044 13.946C7.7906 14.3728 7.15289 14.4271 6.72607 14.0673C6.29924 13.7074 6.24495 13.0697 6.60479 12.6429L16.612 0.772879C16.9719 0.346058 17.6096 0.291759 18.0364 0.651599Z" fill="black"/>
</svg>
