<svg width="18" height="15" viewBox="0 0 18 15" fill="none" xmlns="http://www.w3.org/2000/svg">
<path d="M1.38 6.90001V13.8C1.38 14.1809 1.07088 14.49 0.69 14.49C0.30912 14.49 0 14.1809 0 13.8V6.90001C0 6.51913 0.30912 6.21001 0.69 6.21001C1.07088 6.21001 1.38 6.51913 1.38 6.90001Z" fill="black"/>
<path d="M17.25 6.89999H0V13.11H17.25V6.89999Z" fill="black"/>
<path d="M1.38 1.38V5.52H2.76V4.83C2.76 4.44912 3.06912 4.14 3.45 4.14H7.245C7.62588 4.14 7.935 4.44912 7.935 4.83V5.52552H9.315V4.83C9.315 4.44912 9.62412 4.14 10.005 4.14H13.8C14.1809 4.14 14.49 4.44912 14.49 4.83V5.52H15.87V1.38C15.87 0.61755 15.2525 0 14.49 0H2.76C1.99755 0 1.38 0.61755 1.38 1.38Z" fill="black"/>
<path d="M17.25 6.90001V13.8C17.25 14.1809 16.9409 14.49 16.56 14.49C16.1791 14.49 15.87 14.1809 15.87 13.8V6.90001C15.87 6.51913 16.1791 6.21001 16.56 6.21001C16.9409 6.21001 17.25 6.51913 17.25 6.90001Z" fill="black"/>
</svg>
