<svg width="64" height="64" viewBox="0 0 64 64" fill="none" xmlns="http://www.w3.org/2000/svg">
    <path d="M42.6666 36.4133L47.0799 31.9999L42.6666 27.5866V21.3333H36.4133L31.9999 16.9199L27.5866 21.3333H21.3333V27.5866L16.9199 31.9999L21.3333 36.4133V42.6666H27.5866L31.9999 47.0799L36.4133 42.6666H42.6666V36.4133V36.4133ZM31.9999 39.9999C27.5866 39.9999 23.9999 36.4133 23.9999 31.9999C23.9999 27.5866 27.5866 23.9999 31.9999 23.9999C36.4133 23.9999 39.9999 27.5866 39.9999 31.9999C39.9999 36.4133 36.4133 39.9999 31.9999 39.9999Z"
          fill="black"/>
    <path d="M31.3177 43.4898L25.9999 41.9998L16.4999 54.9996L23.9946 53.4333L31.3177 43.4898Z" fill="black"/>
    <path d="M32.6821 43.4899L37.9999 42L46.4995 54.5L40.0052 53.4333L32.6821 43.4899Z" fill="black"/>
</svg>
