<svg width="47" height="39" viewBox="0 0 47 39" fill="none" xmlns="http://www.w3.org/2000/svg">
<path d="M41.3691 11.711C41.3691 7.93799 38.3311 4.89999 34.5581 4.89999C30.7851 4.89999 27.7471 7.93799 27.7471 11.711C27.7471 15.484 30.7851 18.522 34.5581 18.522C38.3311 18.522 41.3691 15.435 41.3691 11.711ZM33.3331 14.847L30.8831 12.397C30.7361 12.25 30.7361 12.005 30.8831 11.858L31.7161 11.025C31.8631 10.878 32.1081 10.878 32.2551 11.025L33.5781 12.348L36.7631 9.16299C36.9101 9.01599 37.1551 9.01599 37.3021 9.16299L38.1351 9.99599C38.2821 10.143 38.2821 10.388 38.1351 10.535L33.8231 14.847C33.7741 14.994 33.4801 14.994 33.3331 14.847Z" fill="black"/>
<path d="M45.2894 0H23.7784C23.0924 0 22.5044 0.539 22.5044 1.274V8.33H25.0034V2.499H44.0154V20.874H25.0524V15.974H22.5534V22.148C22.5534 22.834 23.0924 23.422 23.8274 23.422H30.0014L26.6204 37.142C26.4734 37.828 26.8654 38.514 27.5514 38.661C28.2374 38.808 28.9234 38.416 29.0704 37.73L32.6474 23.422H36.7144L40.2914 37.73C40.4384 38.318 40.9284 38.661 41.5164 38.661C41.6144 38.661 41.7124 38.661 41.8104 38.612C42.4964 38.465 42.8884 37.779 42.7414 37.093L39.3604 23.373H45.5344C46.2204 23.373 46.8084 22.834 46.8084 22.099V1.274C46.5634 0.539 46.0244 0 45.2894 0Z" fill="black"/>
<path d="M14.9093 13.965H24.2193C25.1993 13.965 26.0323 13.132 26.0323 12.152C26.0323 11.172 25.2483 10.339 24.2683 10.339H10.6463C3.63927 10.339 0.454269 14.994 0.307269 15.19C-0.133731 15.827 -0.0847312 16.611 0.356269 17.248L3.54127 21.707C3.88427 22.197 4.47227 22.442 5.01127 22.442C5.35427 22.442 5.74627 22.344 6.04027 22.099C6.13827 22.05 6.23627 21.952 6.28527 21.854V23.128L5.15827 36.554C5.06027 37.681 5.89327 38.612 6.97127 38.71C8.09827 38.808 9.02927 37.975 9.12727 36.897L10.2053 24.01H11.0383L12.1163 36.897C12.2143 37.926 13.0963 38.759 14.1253 38.759C14.1743 38.759 14.2233 38.759 14.2723 38.759C15.3993 38.661 16.1833 37.681 16.0853 36.603L14.9583 23.177L14.9093 13.965ZM6.33427 19.404L4.12927 16.317C4.61927 15.876 5.35427 15.288 6.33427 14.847V19.404ZM11.7243 19.208L10.7933 20.237C10.6953 20.335 10.5973 20.335 10.4993 20.237L9.56827 19.208C9.51927 19.159 9.51927 19.11 9.51927 19.061L10.3033 13.377H9.91127C9.81327 13.377 9.71527 13.279 9.71527 13.181V12.005C9.71527 11.907 9.81327 11.809 9.91127 11.809H11.3813C11.4793 11.809 11.5773 11.907 11.5773 12.005V13.181C11.5773 13.279 11.4793 13.377 11.3813 13.377H10.9893L11.7733 19.061C11.7733 19.061 11.7733 19.159 11.7243 19.208Z" fill="black"/>
<path d="M10.6464 9.26101C12.8655 9.26101 14.6644 7.46209 14.6644 5.24301C14.6644 3.02393 12.8655 1.22501 10.6464 1.22501C8.42734 1.22501 6.62842 3.02393 6.62842 5.24301C6.62842 7.46209 8.42734 9.26101 10.6464 9.26101Z" fill="black"/>
</svg>
