<svg width="45" height="45" viewBox="0 0 45 45" fill="none" xmlns="http://www.w3.org/2000/svg">
<path d="M22.5048 0C10.0985 0 0 9.99349 0 22.2739C0 32.8752 7.52751 41.7658 17.5674 44C16.4065 42.8918 15.5982 41.4361 15.2957 39.8044C8.31243 36.9813 3.38035 30.189 3.38035 22.2739C3.38035 14.6242 7.98653 8.0226 14.6035 5.04362C14.3425 6.51941 15.4587 8.2238 16.7324 9.75016C17.8869 11.1322 17.3917 12.1751 16.5013 12.9051C16.2233 13.1336 16.1179 13.5107 16.2404 13.8499C16.3586 14.1881 16.6834 14.4198 17.0455 14.4219C28.4998 14.5936 31.2912 8.14058 31.9227 5.81259C37.7111 9.06862 41.6186 15.2257 41.6186 22.2739C41.6186 29.7687 37.1988 36.2639 30.7981 39.3261C30.5978 40.9863 29.8726 42.4821 28.7873 43.6545C38.1413 40.9526 45 32.3948 45 22.2739C45 9.99349 34.9111 0 22.5048 0Z" fill="black"/>
<path d="M16.5 24C17.8807 24 19 22.8807 19 21.5C19 20.1193 17.8807 19 16.5 19C15.1193 19 14 20.1193 14 21.5C14 22.8807 15.1193 24 16.5 24Z" fill="black"/>
<path d="M28.5 24C29.8807 24 31 22.8807 31 21.5C31 20.1193 29.8807 19 28.5 19C27.1193 19 26 20.1193 26 21.5C26 22.8807 27.1193 24 28.5 24Z" fill="black"/>
<path d="M15.5645 35.9679C16.1448 34.204 17.3594 32.724 18.945 31.7788C19.0698 29.762 20.7537 28.1598 22.8235 28.1598C24.8214 28.1598 26.4715 29.6605 26.685 31.5861C28.4366 32.523 29.7865 34.1034 30.3996 36C31.4101 34.9709 32 33.722 32 32.3768C32 28.8531 27.9662 26 22.9989 26C18.0317 26 14 28.8531 14 32.3768C14.0011 33.7096 14.5814 34.9429 15.5645 35.9679Z" fill="black"/>
<path d="M23.0027 31C19.1446 31 16 34.1402 16 37.9995C16 41.8556 19.1446 45 23.0027 45C26.8565 45 30 41.8577 30 37.9995C30 34.1381 26.8565 31 23.0027 31ZM23.0027 41.6226C20.9996 41.6226 19.3735 39.9983 19.3735 37.9995C19.3735 36.0017 21.0039 34.3753 23.0027 34.3753C24.9961 34.3753 26.6243 36.0007 26.6243 37.9995C26.6243 39.9983 24.9961 41.6226 23.0027 41.6226Z" fill="black"/>
</svg>
