<svg width="40" height="40" viewBox="0 0 40 40" fill="none" xmlns="http://www.w3.org/2000/svg">
    <path d="M30.3711 27.4613L27.5981 24.6884C28.9737 22.5924 29.523 20.0608 29.1398 17.5832C28.7566 15.1057 27.4681 12.8583 25.5236 11.2759C23.5791 9.69347 21.1168 8.88849 18.613 9.01667C16.1093 9.14486 13.7421 10.1971 11.9693 11.9698C10.1966 13.7426 9.14437 16.1098 9.01619 18.6135C8.888 21.1173 9.69298 23.5796 11.2754 25.5241C12.8578 27.4686 15.1052 28.7571 17.5828 29.1403C20.0603 29.5235 22.592 28.9742 24.6879 27.5986L27.461 30.3717C27.8469 30.7576 28.3704 30.9744 28.9162 30.9744C29.4619 30.9744 29.9854 30.7575 30.3713 30.3716C30.7572 29.9856 30.9739 29.4622 30.9739 28.9164C30.9739 28.3706 30.757 27.8472 30.3711 27.4613ZM19.1445 27.8879C17.4153 27.8879 15.725 27.3751 14.2872 26.4144C12.8495 25.4537 11.7289 24.0883 11.0672 22.4908C10.4054 20.8932 10.2323 19.1353 10.5696 17.4394C10.907 15.7434 11.7397 14.1856 12.9624 12.9629C14.1851 11.7402 15.7429 10.9075 17.4389 10.5701C19.1348 10.2328 20.8927 10.4059 22.4903 11.0677C24.0878 11.7294 25.4533 12.85 26.4139 14.2877C27.3746 15.7255 27.8874 17.4158 27.8874 19.145C27.8847 21.4629 26.9628 23.6852 25.3237 25.3242C23.6847 26.9632 21.4625 27.8852 19.1445 27.8879ZM29.4016 29.4018C29.2706 29.5262 29.0968 29.5955 28.9161 29.5956C28.7354 29.5956 28.5615 29.5263 28.4305 29.4019L25.7893 26.7606C26.1343 26.4591 26.4587 26.1348 26.7602 25.7897L29.4014 28.4309C29.53 28.5598 29.6022 28.7343 29.6022 28.9163C29.6023 29.0983 29.5301 29.2729 29.4016 29.4018Z"
          fill="black"/>
    <path d="M23.1713 14.5229C23.1117 14.4168 23.0249 14.3286 22.9198 14.2671C22.8148 14.2057 22.6953 14.1733 22.5736 14.1733H21.3736V13.8305C21.3736 13.6486 21.3014 13.4742 21.1728 13.3456C21.0442 13.217 20.8698 13.1448 20.6879 13.1448C20.5061 13.1448 20.3316 13.217 20.2031 13.3456C20.0745 13.4742 20.0022 13.6486 20.0022 13.8305V14.1733H15.7165C15.5948 14.1733 15.4753 14.2057 15.3703 14.2672C15.2653 14.3286 15.1785 14.4168 15.1188 14.5229L13.576 17.2658C13.5188 17.3703 13.4896 17.4879 13.4913 17.6071C13.493 17.7262 13.5255 17.8429 13.5857 17.9458C13.6458 18.0487 13.7316 18.1342 13.8346 18.1941C13.9377 18.254 14.0545 18.2862 14.1736 18.2876H14.8594V23.4305C14.8594 23.6123 14.9316 23.7868 15.0602 23.9154C15.1888 24.0439 15.3632 24.1162 15.5451 24.1162H22.7451C22.9269 24.1162 23.1013 24.0439 23.2299 23.9154C23.3585 23.7868 23.4308 23.6123 23.4308 23.4305V18.2876H24.1165C24.2357 18.2862 24.3525 18.254 24.4555 18.1941C24.5585 18.1342 24.6443 18.0487 24.7045 17.9458C24.7646 17.8429 24.7972 17.7262 24.7989 17.6071C24.8006 17.4879 24.7714 17.3703 24.7142 17.2658L23.1713 14.5229ZM22.0594 22.7448H16.2308V18.2876H22.0594V22.7448ZM15.3462 16.9162L16.1176 15.5448H20.0973C20.1568 15.6489 20.2428 15.7355 20.3465 15.7957C20.4502 15.8559 20.568 15.8876 20.6879 15.8876C20.8079 15.8876 20.9256 15.8559 21.0294 15.7957C21.1331 15.7355 21.219 15.6489 21.2785 15.5448H22.1725L22.944 16.9162H15.3462Z"
          fill="black"/>
</svg>
