<svg width="18" height="18" viewBox="0 0 18 18" fill="none" xmlns="http://www.w3.org/2000/svg">
    <g clip-path="url(#clip0_956:12037)">
        <path d="M4.875 4.12524L9 8.25024L14.25 3.00024L13.5 2.25024L9 6.75024L5.625 3.37524H8.25V2.25024H3.75V6.75024H4.875V4.12524ZM17.7825 12.5027C15.495 10.3352 12.405 9.00024 9 9.00024C5.595 9.00024 2.505 10.3352 0.2175 12.5027C0.0825 12.6377 0 12.8252 0 13.0352C0 13.2452 0.0825 13.4327 0.2175 13.5677L2.0775 15.4277C2.2125 15.5627 2.4 15.6452 2.61 15.6452C2.8125 15.6452 3 15.5627 3.135 15.4352C3.7275 14.8802 4.4025 14.4152 5.13 14.0477C5.3775 13.9277 5.55 13.6727 5.55 13.3727V11.0477C6.6375 10.6877 7.8 10.5002 9 10.5002C10.2 10.5002 11.3625 10.6877 12.45 11.0402V13.3652C12.45 13.6577 12.6225 13.9202 12.87 14.0402C13.605 14.4077 14.2725 14.8802 14.8725 15.4277C15.0075 15.5627 15.195 15.6377 15.3975 15.6377C15.6075 15.6377 15.795 15.5552 15.93 15.4202L17.79 13.5602C17.925 13.4252 18.0075 13.2377 18.0075 13.0277C18.0075 12.8177 17.9175 12.6377 17.7825 12.5027V12.5027Z"
              fill="black"/>
    </g>
    <defs>
        <clipPath id="clip0_956:12037">
            <rect width="18" height="18" fill="white" transform="translate(0 0.000244141)"/>
        </clipPath>
    </defs>
</svg>
