<svg width="32" height="20" viewBox="0 0 32 20" fill="none" xmlns="http://www.w3.org/2000/svg">
    <path d="M30.6295 1.84821C30.8036 1.15178 30.6295 0.571428 29.5848 0.571428H26.1607C25.2902 0.571428 24.8839 1.03571 24.6518 1.55804C24.6518 1.55804 22.9107 5.79464 20.4732 8.58036C19.6607 9.33482 19.3125 9.625 18.8482 9.625C18.6741 9.625 18.3259 9.33482 18.3259 8.63839V1.84821C18.3259 0.977678 18.0938 0.571428 17.3393 0.571428H12C11.4196 0.571428 11.1295 0.977678 11.1295 1.38393C11.1295 2.19643 12.3482 2.37054 12.4643 4.69196V9.74107C12.4643 10.8437 12.2902 11.0759 11.8259 11.0759C10.6652 11.0759 7.87946 6.78125 6.19643 1.90625C5.84821 0.977678 5.5 0.571428 4.62946 0.571428H1.20536C0.276786 0.571428 0.0446429 1.03571 0.0446429 1.55804C0.0446429 2.48661 1.20536 6.95536 5.44196 12.933C8.28571 16.9955 12.2902 19.1429 15.8884 19.1429C18.0357 19.1429 18.3259 18.6786 18.3259 17.8661C18.3259 13.9777 18.1518 13.5714 19.1964 13.5714C19.7188 13.5714 20.5893 13.8616 22.6205 15.8348C24.942 18.1562 25.3482 19.1429 26.625 19.1429H30.0491C31.0357 19.1429 31.5 18.6786 31.2098 17.692C30.5714 15.7187 26.2188 11.5402 25.9866 11.25C25.4643 10.6116 25.6384 10.3214 25.9866 9.74107C25.9866 9.74107 30.1652 3.82143 30.6295 1.84821Z"
          fill="black"/>
</svg>
