<svg width="104" height="62" viewBox="0 0 104 62" fill="none" xmlns="http://www.w3.org/2000/svg">
    <g clip-path="url(#clip0)">
        <path d="M27.3156 25.7521H20.5709V18.7674H27.5151L37.3391 14.7316H19.3616C17.716 14.7316 16.4194 15.9811 16.4194 17.7678V34.9484V45.9814H6.4707L9.52513 50.0298H16.4194V62.0125H20.5709V41.7956V29.8005H30.37L27.3156 25.7521Z"
              fill="white"/>
        <path d="M0.823242 62H4.97476V50.0048V45.969V38.0097L0.823242 34.9359V62Z" fill="white"/>
        <path d="M51.0151 41.7957C52.9101 41.7957 54.8799 40.9835 55.3661 40.6586C55.5753 40.5266 55.7752 40.3805 55.9646 40.2213V41.5833H59.8418V33.1117C59.8418 30.3253 58.9567 28.1387 57.2237 26.5643C55.5347 25.0027 53.313 24.1486 51.0151 24.1778C48.5591 24.1778 46.4647 25.0274 44.7318 26.7642C42.9988 28.501 42.1885 30.5627 42.1885 32.9867C42.1885 35.4108 43.0362 37.5099 44.7318 39.2467C46.4273 40.9835 48.5093 41.7957 51.0151 41.7957ZM51.0151 27.9013C53.8701 27.9013 55.9646 30.0754 55.9646 32.9867C55.9646 35.8981 53.7953 38.0722 51.0151 38.0722C48.235 38.0722 46.0533 35.9356 46.0533 32.9867C46.0533 30.0379 48.235 27.9013 51.0151 27.9013Z"
              fill="white"/>
        <path d="M74.7397 41.7956V31.2874C74.7397 29.1507 75.5376 28.1011 77.1209 28.1011C78.7042 28.1011 79.4523 29.1507 79.4523 31.2874V41.7956H83.317V31.2874C83.317 26.8017 80.8236 24.3901 77.3204 24.3901C75.3381 24.3901 73.8546 25.1148 72.8073 26.5643C71.7975 25.1148 70.3513 24.3901 68.3691 24.3901C64.8284 24.3901 62.2852 26.7642 62.2852 31.2874V41.7956H66.1499V31.2874C66.1499 29.1507 66.9229 28.1011 68.4937 28.1011C70.0646 28.1011 70.8749 29.1507 70.8749 31.2874V41.7956H74.7397Z"
              fill="white"/>
        <path d="M31.729 44.3821C29.273 44.3821 27.2159 45.2317 25.483 46.9685C23.7501 48.7053 22.9023 50.7545 22.9023 53.1785C22.9023 55.6026 23.7501 57.7017 25.483 59.4385C27.2159 61.1753 29.273 61.9875 31.729 61.9875C34.185 61.9875 36.2047 61.1378 37.9251 59.4385C39.6456 57.7392 40.5058 55.64 40.5058 53.1785C40.5058 50.717 39.658 48.6928 37.9251 46.9685C36.1922 45.2442 34.1476 44.3821 31.729 44.3821ZM35.2322 56.8521C34.3097 57.7892 33.1378 58.264 31.729 58.264C31.0728 58.2778 30.4204 58.1601 29.8102 57.9176C29.2 57.6751 28.6444 57.3129 28.1759 56.8521C27.2533 55.8899 26.7671 54.6779 26.7671 53.1785C26.7671 51.6791 27.2533 50.4796 28.1759 49.5425C28.6387 49.0714 29.1925 48.6999 29.8034 48.4507C30.4143 48.2015 31.0695 48.0798 31.729 48.0931C33.1378 48.0931 34.3097 48.5804 35.2322 49.5425C36.1548 50.5046 36.6784 51.6916 36.6784 53.1785C36.6784 54.6654 36.2047 55.8899 35.2322 56.8521Z"
              fill="white"/>
        <path d="M32.6885 31.5373V41.7957H36.5159V31.5373C36.5159 29.3882 37.4883 28.3011 39.4207 28.3011H40.1438V24.5901H39.2212C35.4686 24.5901 32.6885 26.5643 32.6885 31.5373Z"
              fill="white"/>
        <path d="M65.34 51.3668C63.8938 50.842 62.7593 50.2797 62.7593 49.43C62.7593 48.5804 63.4824 48.0931 64.941 48.0931C66.7114 48.0931 68.2074 48.418 69.3668 49.0677V45.4691L68.8931 45.1818C68.2448 44.8194 66.5867 44.3821 64.941 44.3821C61.4378 44.3821 58.8945 46.3188 58.8945 49.43C58.8945 54.9528 66.2251 53.9907 66.2251 56.6521C66.2251 57.7392 65.4647 58.264 63.8938 58.264C62.0736 58.264 60.5028 57.8267 59.094 56.977V60.738L59.7049 61.0629C60.5028 61.5002 62.2731 61.9875 63.8938 61.9875C67.6339 61.9875 70.0899 59.9258 70.0899 56.6521C70.0899 53.3785 67.4344 51.9665 65.34 51.3668Z"
              fill="white"/>
        <path d="M52.8606 53.8658C52.8606 56.7396 51.4892 58.264 49.3948 58.264C47.3003 58.264 45.9663 56.7771 45.9663 53.8658V47.6433L42.1016 44.582V53.8658C42.1016 56.6147 42.8246 58.6763 44.2334 60.0133C45.6527 61.2919 47.4961 61.9951 49.4044 61.9858C51.3127 61.9766 53.1493 61.2556 54.5561 59.9633C56.0023 58.6389 56.7254 56.5772 56.7254 53.8658V47.6433L52.8606 44.582V53.8658Z"
              fill="white"/>
        <path d="M98.4022 34.8609L98.1778 35.4607C97.8537 36.2604 96.6818 37.4974 94.9987 37.9472C93.9727 38.2228 92.8854 38.1602 91.8975 37.7686C90.9097 37.3771 90.0737 36.6775 89.5132 35.7731L102.279 32.3619C101.943 30.7501 101.581 27.2515 97.8288 25.1524C95.834 24.0403 93.7146 23.8279 91.4207 24.4401C89.1268 25.0524 87.2816 26.4143 86.0474 28.5385C84.8132 30.6626 84.5264 32.8742 85.1498 35.2233C85.7731 37.5723 87.132 39.3716 89.214 40.6086C91.296 41.8456 93.5152 42.0955 95.8964 41.4708C98.2776 40.846 99.998 39.3216 100.846 38.0971C101.267 37.4466 101.614 36.7509 101.881 36.023C102.055 35.5232 102.167 35.1483 102.242 34.8609H98.4022ZM88.653 32.3994C88.7278 30.3378 90.0244 28.6135 92.3682 27.9887C94.712 27.364 96.9311 28.401 97.6916 30.0004L88.653 32.3994Z"
              fill="white"/>
        <path d="M84.7507 45.3442C82.756 44.2446 80.649 44.0197 78.3551 44.632C76.0612 45.2442 74.2036 46.6187 72.9818 48.7428C71.76 50.867 71.4608 53.0661 72.0717 55.4151C72.6826 57.7642 74.054 59.5635 76.136 60.813C78.218 62.0625 80.4496 62.2874 82.8183 61.6626C85.187 61.0379 86.9324 59.526 87.7677 58.289C88.1887 57.6428 88.5358 56.9513 88.8025 56.2273C88.9477 55.8427 89.0725 55.4506 89.1765 55.0528H85.3242L85.1122 55.665C84.7756 56.4522 83.6037 57.6892 81.9331 58.139C80.9053 58.4155 79.8159 58.3534 78.8259 57.9619C77.8359 57.5705 76.9978 56.8703 76.4352 55.9649L89.2139 52.5663C88.8648 50.9419 88.5033 47.4434 84.7507 45.3442ZM75.5874 52.6038C75.6622 50.5296 76.9588 48.8053 79.2901 48.1806C81.6215 47.5558 83.8655 48.5929 84.6136 50.1922L75.5874 52.6038Z"
              fill="white"/>
        <path fill-rule="evenodd" clip-rule="evenodd" d="M30.7433 10.7581V6.6098L20.2461 10.7581H30.7433Z"
              fill="#821E27"/>
        <path fill-rule="evenodd" clip-rule="evenodd" d="M36.878 4.18579L31.8662 6.17249V10.7581H36.878V4.18579Z"
              fill="#821E27"/>
        <path fill-rule="evenodd" clip-rule="evenodd" d="M38 4.79803V10.7581H43.0242V7.28453L38 4.79803Z"
              fill="#821E27"/>
        <path fill-rule="evenodd" clip-rule="evenodd"
              d="M101.581 16.9182L93.9266 11.6328V7.00967L90.4234 4.91052V9.22128L77.0587 0L54.1942 9.48368L51.8629 8.25917V5.18541L49.3819 4.04837V6.9472L37.5382 0.699718C27.041 4.04837 14.923 7.40951 4.4258 10.7582H9.82402V26.5393L0 31.6497L0.498681 31.9871L6.23352 35.8231L14.6114 32.0371L14.362 10.7582H17.1796L36.8775 2.9863H36.89L51.9252 10.4208L32.514 18.5925H48.8458L76.6349 3.89843L76.7097 4.04837V3.86094L98.4771 18.5925H104L101.581 16.9182Z"
              fill="#821E27"/>
        <path fill-rule="evenodd" clip-rule="evenodd" d="M86.8574 18.5925H88.5405H96.4695L86.8574 12.0826V18.5925Z"
              fill="#821E27"/>
        <path fill-rule="evenodd" clip-rule="evenodd" d="M44.1455 10.7582H50.0424L44.1455 7.83435V10.7582Z"
              fill="#821E27"/>
        <path fill-rule="evenodd" clip-rule="evenodd" d="M77.832 11.108H85.412L77.832 5.9726V11.108Z" fill="#821E27"/>
        <path fill-rule="evenodd" clip-rule="evenodd"
              d="M55.6777 18.5925H76.7096V5.12292L76.4852 5.24787L55.6777 18.5925Z" fill="#821E27"/>
        <path d="M85.7361 12.2325H77.832V18.595H85.7361V12.2325Z" fill="#821E27"/>
    </g>
    <defs>
        <clipPath id="clip0">
            <rect width="104" height="62" fill="white"/>
        </clipPath>
    </defs>
</svg>
