<svg width="30" height="30" viewBox="0 0 30 30" fill="none" xmlns="http://www.w3.org/2000/svg">
<path d="M15.3 7.40134C11.2143 7.40134 7.95848 10.721 7.95848 14.7429C7.95848 18.8286 11.2143 22.0844 15.3 22.0844C19.3219 22.0844 22.6415 18.8286 22.6415 14.7429C22.6415 10.721 19.3219 7.40134 15.3 7.40134ZM15.3 19.5308C12.6826 19.5308 10.5121 17.4241 10.5121 14.7429C10.5121 12.1254 12.6188 10.0187 15.3 10.0187C17.9174 10.0187 20.0241 12.1254 20.0241 14.7429C20.0241 17.4241 17.9174 19.5308 15.3 19.5308ZM24.6205 7.14598C24.6205 6.18839 23.8545 5.42232 22.8969 5.42232C21.9393 5.42232 21.1732 6.18839 21.1732 7.14598C21.1732 8.10357 21.9393 8.86964 22.8969 8.86964C23.8545 8.86964 24.6205 8.10357 24.6205 7.14598ZM29.4723 8.86964C29.3446 6.57143 28.8339 4.52857 27.1741 2.86875C25.5143 1.20893 23.4714 0.698214 21.1732 0.570535C18.8112 0.442857 11.725 0.442857 9.36295 0.570535C7.06473 0.698214 5.08571 1.20893 3.36205 2.86875C1.70223 4.52857 1.19152 6.57143 1.06384 8.86964C0.936161 11.2317 0.936161 18.3179 1.06384 20.6799C1.19152 22.9781 1.70223 24.9571 3.36205 26.6808C5.08571 28.3406 7.06473 28.8513 9.36295 28.979C11.725 29.1067 18.8112 29.1067 21.1732 28.979C23.4714 28.8513 25.5143 28.3406 27.1741 26.6808C28.8339 24.9571 29.3446 22.9781 29.4723 20.6799C29.6 18.3179 29.6 11.2317 29.4723 8.86964ZM26.408 23.1696C25.9612 24.4464 24.9397 25.404 23.7268 25.9147C21.8116 26.6808 17.3429 26.4893 15.3 26.4893C13.1933 26.4893 8.72455 26.6808 6.87321 25.9147C5.59643 25.404 4.63884 24.4464 4.12813 23.1696C3.36205 21.3183 3.55357 16.8496 3.55357 14.7429C3.55357 12.7 3.36205 8.23125 4.12813 6.31607C4.63884 5.10312 5.59643 4.14554 6.87321 3.63482C8.72455 2.86875 13.1933 3.06027 15.3 3.06027C17.3429 3.06027 21.8116 2.86875 23.7268 3.63482C24.9397 4.0817 25.8973 5.10312 26.408 6.31607C27.1741 8.23125 26.9826 12.7 26.9826 14.7429C26.9826 16.8496 27.1741 21.3183 26.408 23.1696Z" fill="black"/>
</svg>
