<svg width="19" height="19" viewBox="0 0 19 19" fill="none" xmlns="http://www.w3.org/2000/svg">
<path d="M2.66406 3.30469C4.46875 1.5 6.63151 0.597656 9.15234 0.597656C11.6732 0.597656 13.8216 1.5 15.5977 3.30469C17.4023 5.08073 18.3047 7.22917 18.3047 9.75C18.3047 12.2708 17.4023 14.4336 15.5977 16.2383C13.8216 18.0143 11.6732 18.9023 9.15234 18.9023C6.63151 18.9023 4.46875 18.0143 2.66406 16.2383C0.888021 14.4336 0 12.2708 0 9.75C0 7.22917 0.888021 5.08073 2.66406 3.30469ZM3.95312 14.9062C5.38542 16.3385 7.11849 17.0547 9.15234 17.0547C11.1862 17.0547 12.9049 16.3385 14.3086 14.9062C15.7409 13.474 16.457 11.7552 16.457 9.75C16.457 7.74479 15.7409 6.02604 14.3086 4.59375C12.9049 3.16146 11.1862 2.44531 9.15234 2.44531C7.11849 2.44531 5.38542 3.16146 3.95312 4.59375C2.54948 6.02604 1.84766 7.74479 1.84766 9.75C1.84766 11.7552 2.54948 13.474 3.95312 14.9062ZM9.625 5.19531V9.96484L13.75 12.4141L13.0625 13.5312L8.25 10.6523V5.19531H9.625Z" fill="black"/>
</svg>
