<svg width="103" height="17" viewBox="0 0 103 17" fill="none" xmlns="http://www.w3.org/2000/svg">
    <path d="M14.1792 3.27374C14.5552 3.79119 14.8735 4.35336 15.1277 4.94895L7.91759 10.6064L4.9043 8.59579V6.1769L7.91759 8.18754L14.1792 3.27374Z"
          fill="black"/>
    <path d="M1.82863 8.42504C1.82863 8.3165 1.83111 8.20868 1.83609 8.10148L0.00994548 8.00623C0.00372989 8.14516 2.20681e-06 8.28544 2.20681e-06 8.427C-0.000774766 9.53313 0.203623 10.6285 0.601476 11.6503C0.999326 12.6722 1.5828 13.6003 2.31842 14.3815L3.61374 13.0034C3.04749 12.4031 2.59828 11.6896 2.29193 10.9038C1.98558 10.1181 1.82813 9.27571 1.82863 8.42504Z"
          fill="black"/>
    <path d="M7.91552 1.94595C8.01744 1.94595 8.11873 1.94992 8.21942 1.95521L8.3108 0.0107235C8.17989 0.00410737 8.0481 0.000799706 7.91552 0.000799706C6.87586 -0.000549826 5.84625 0.216706 4.88573 0.640093C3.92521 1.06348 3.05272 1.68466 2.31836 2.46796L3.61369 3.84677C4.17768 3.24382 4.84808 2.76549 5.58635 2.43928C6.32461 2.11307 7.11614 1.94541 7.91552 1.94595Z"
          fill="black"/>
    <path d="M7.91544 14.9043C7.81352 14.9043 7.71219 14.9043 7.61091 14.8957L7.51953 16.8395C7.65088 16.8466 7.78287 16.8501 7.91544 16.8501C8.95466 16.8513 9.98378 16.6339 10.9438 16.2104C11.9038 15.7868 12.7757 15.1656 13.5095 14.3823L12.2167 13.0042C11.6526 13.6068 10.9822 14.0848 10.2441 14.4109C9.50601 14.737 8.71463 14.9047 7.91544 14.9043Z"
          fill="black"/>
    <path d="M11.3476 3.07652L12.8866 1.86907C11.4799 0.656638 9.72407 -0.00336559 7.91406 1.29064e-05V1.94582C9.13971 1.9442 10.3369 2.33847 11.3476 3.07652Z"
          fill="black"/>
    <path d="M15.8312 8.42503C15.8322 7.91884 15.7906 7.41353 15.7069 6.91522L14.0032 8.25168C14.0032 8.30927 14.0032 8.36682 14.0032 8.42503C14.0037 9.3303 13.8254 10.2256 13.48 11.0528C13.1345 11.88 12.6296 12.6208 11.998 13.227L13.2269 14.6727C14.048 13.8836 14.7042 12.9197 15.1528 11.8435C15.6015 10.7672 15.8326 9.60251 15.8312 8.42503Z"
          fill="black"/>
    <path d="M7.91627 14.9043C7.06573 14.9046 6.22461 14.7147 5.44736 14.3471C4.67014 13.9794 3.97411 13.4421 3.40436 12.7699L2.04688 14.0772C2.78806 14.9514 3.69358 15.65 4.70471 16.1277C5.71584 16.6053 6.81 16.8514 7.91627 16.8501V14.9043Z"
          fill="black"/>
    <path d="M3.83378 3.623L2.60558 2.17737C1.78423 2.96626 1.12784 3.93011 0.678966 5.00641C0.230098 6.08269 -0.00122377 7.2474 4.86877e-06 8.42498H1.82863C1.82826 7.51976 2.00656 6.62448 2.35198 5.79725C2.6974 4.97004 3.20224 4.22928 3.83378 3.623Z"
          fill="black"/>
    <path d="M45.6782 4.81815L47.943 3.06219H40.3633V13.6139H47.943V11.858H42.5261V9.15514H47.147V7.3992H42.5261V4.81815H45.6782Z"
          fill="black"/>
    <path d="M35.2618 7.17278H32.6303V4.81744H36.8301L39.0935 3.05615H30.4688V13.6079H34.9834C37.5146 13.6079 38.9672 12.4006 38.9672 10.2951C38.9672 8.28077 37.6515 7.17278 35.2618 7.17278ZM34.8861 11.8514H32.6303V8.92764H34.8861C36.2551 8.92764 36.897 9.4176 36.897 10.3895C36.897 11.3614 36.214 11.8514 34.8861 11.8514Z"
          fill="black"/>
    <path d="M53.5146 3.06067H49.3887V13.6124H51.5512V10.6233H53.5146C56.1469 10.6233 57.7753 9.16553 57.7753 6.83633C57.7753 4.50719 56.1469 3.06067 53.5146 3.06067ZM53.4689 8.86597H51.5512V4.81796H53.4689C54.8536 4.81796 55.6177 5.53722 55.6177 6.84277C55.6177 8.14832 54.8536 8.86597 53.4689 8.86597Z"
          fill="black"/>
    <path d="M27.2245 11.1222C26.6659 11.4406 26.04 11.6054 25.4048 11.6015C23.5035 11.6015 22.1242 10.1731 22.1242 8.20606C22.1242 6.23901 23.5035 4.80745 25.4048 4.80745C26.0904 4.79519 26.7618 5.01399 27.3209 5.43192L28.8336 4.25948L28.7313 4.18299C27.8489 3.36652 26.6699 2.93408 25.3203 2.93408C23.8564 2.93408 22.5291 3.45238 21.5814 4.3953C21.1022 4.8808 20.7233 5.46504 20.4681 6.11156C20.2129 6.75807 20.087 7.45296 20.0984 8.15295C20.0882 8.86005 20.2135 9.56204 20.4668 10.2171C20.7201 10.8721 21.0961 11.4666 21.5725 11.9653C22.5246 12.9457 23.849 13.4858 25.3025 13.4858C26.8211 13.4858 28.1485 12.9285 29.0472 11.9138L27.6932 10.8522L27.2245 11.1222Z"
          fill="black"/>
    <path d="M66.3501 7.17278H63.7196V4.81744H69.3724V3.05615H61.5566V13.6079H66.0656C68.5964 13.6079 70.0492 12.4006 70.0492 10.2951C70.0551 8.28077 68.7397 7.17278 66.3501 7.17278ZM65.9744 11.8514H63.7196V8.92764H65.9744C67.3433 8.92764 67.9848 9.4176 67.9848 10.3895C67.9848 11.3614 67.308 11.8514 65.9744 11.8514Z"
          fill="black"/>
    <path d="M94.6358 13.5928H92.4434V3.04108H94.6358V7.47287H95.8291L99.0515 3.04108H101.536L97.714 8.06066L102.152 13.5928H99.2433L95.9812 9.44292H94.6358V13.5928Z"
          fill="black"/>
    <path d="M78.0152 11.5875H73.3772L72.591 13.6366H70.2578L74.6078 3.08484H76.9406L81.22 13.6366H78.8014L78.0152 11.5875ZM77.2888 9.67566L75.7099 5.57757L74.1223 9.67566H77.2888Z"
          fill="black"/>
    <path d="M84.1708 3.08484V7.49105H88.7077V3.08484H90.9683V13.6366H88.7077V9.47882H84.1708V13.6366H81.9102V3.08484H84.1708Z"
          fill="black"/>
</svg>
