<svg width="136" height="155" viewBox="0 0 136 155" fill="none" xmlns="http://www.w3.org/2000/svg">
    <path d="M120.522 98.5L97.9659 104.991C97.9659 105.478 97.9659 106.127 97.9659 106.776C97.4791 113.105 92.6109 118.46 86.2823 119.595L85.3086 119.758C76.8705 121.38 68.27 122.192 59.6696 122.354L52.6918 122.516C51.5559 122.516 50.5823 122.192 49.7709 121.38C48.9596 120.569 48.4727 119.595 48.4727 118.46C48.4727 117.324 48.7973 116.35 49.6086 115.539C50.42 114.727 51.3936 114.24 52.5296 114.24L59.8318 114.078C67.6209 113.916 75.5723 113.105 83.1991 111.644L84.6596 111.32C87.4182 110.833 89.5277 108.561 89.69 105.802C89.8523 104.18 89.2032 102.557 88.2296 101.259C87.0936 99.9604 85.6332 99.3113 84.0105 99.1491L47.8236 97.0395C43.9291 96.8772 39.8723 97.8509 36.6268 100.123L1.90046 126.249C-0.371359 127.871 -0.695905 131.117 1.41364 133.226L20.3996 152.861C22.0223 154.484 24.6186 154.809 26.5659 153.348L35.0041 147.02C36.3023 146.046 38.0873 145.559 39.71 145.721L66.9718 148.967C72.1646 149.616 77.5196 148.155 81.7386 145.072L127.013 111.32C128.635 110.021 129.609 108.236 129.934 106.289C130.096 104.18 129.447 102.232 128.149 100.772C126.039 98.6622 123.118 97.8509 120.522 98.5Z"
          fill="black"/>
    <path d="M132.855 38.1341L115.654 24.6655V8.11364C115.654 7.30227 115.005 6.49091 114.031 6.49091H105.918C105.106 6.49091 104.295 7.14 104.295 8.11364V15.9027L86.445 1.94727C83.1996 -0.649091 78.6559 -0.649091 75.4105 1.94727L29.0005 38.1341C27.54 39.27 26.5664 41.2173 26.5664 43.1645V45.5986C26.5664 47.7082 28.3514 49.4932 30.461 49.4932H39.5482V90.5482C41.9823 89.8991 44.4164 89.4123 46.8505 89.4123C47.3373 89.4123 47.8241 89.4123 48.3109 89.4123L84.4978 91.5218C88.23 91.8464 91.6378 93.4691 94.3964 96.39C94.7209 96.7145 95.0455 97.2014 95.37 97.6882L95.6946 97.5259L118.25 91.035C119.549 90.7104 120.847 90.3859 122.307 90.3859V49.3309H131.395C133.504 49.3309 135.289 47.5459 135.289 45.4364V43.0023C135.289 41.055 134.315 39.27 132.855 38.1341ZM66.4855 33.4282C70.2178 33.4282 73.3009 36.5114 73.3009 40.2436C73.3009 43.9759 70.2178 47.0591 66.4855 47.0591C62.7532 47.0591 59.67 43.9759 59.67 40.2436C59.67 36.5114 62.7532 33.4282 66.4855 33.4282ZM95.2078 75.7814C91.4755 75.7814 88.3923 72.6982 88.3923 68.9659C88.3923 65.2336 91.4755 62.1504 95.2078 62.1504C98.94 62.1504 102.023 65.2336 102.023 68.9659C102.023 72.6982 98.94 75.7814 95.2078 75.7814ZM101.05 40.4059L66.6478 74.8077C65.025 76.4304 62.2664 76.4304 60.6437 74.8077C59.8323 73.9964 59.3455 73.0227 59.3455 71.8868C59.3455 70.7509 59.8323 69.7773 60.6437 68.9659L94.8832 34.7264C96.506 33.1036 99.2646 33.1036 100.887 34.7264C101.699 35.5377 102.185 36.5114 102.185 37.6473C102.185 38.6209 101.861 39.5945 101.05 40.4059Z"
          fill="black"/>
</svg>
