<svg width="50" height="50" viewBox="0 0 50 50" fill="none" xmlns="http://www.w3.org/2000/svg">
    <path d="M48.4375 32.0311H39.8438V30.4038C42.3924 30.2122 44.7746 29.0645 46.5128 27.1907C48.251 25.3168 49.2169 22.8554 49.2169 20.2995C49.2169 17.7436 48.251 15.2821 46.5128 13.4083C44.7746 11.5345 42.3924 10.3868 39.8438 10.1952V6.24988C39.8438 6.04268 39.7614 5.84396 39.6149 5.69745C39.4684 5.55094 39.2697 5.46863 39.0625 5.46863H32.0312V1.56238C32.0312 1.35518 31.9489 1.15646 31.8024 1.00995C31.6559 0.863438 31.4572 0.781128 31.25 0.781128H1.5625C1.3553 0.781128 1.15659 0.863438 1.01007 1.00995C0.86356 1.15646 0.78125 1.35518 0.78125 1.56238V39.0624C0.78125 39.2696 0.86356 39.4683 1.01007 39.6148C1.15659 39.7613 1.3553 39.8436 1.5625 39.8436H8.59375V43.7499C8.5954 45.1998 9.17211 46.5898 10.1973 47.615C11.2226 48.6403 12.6126 49.217 14.0625 49.2186H43.75C45.1999 49.217 46.5899 48.6403 47.6152 47.615C48.6404 46.5898 49.2171 45.1998 49.2188 43.7499V32.8124C49.2188 32.6052 49.1364 32.4065 48.9899 32.2599C48.8434 32.1134 48.6447 32.0311 48.4375 32.0311ZM47.6562 20.2991C47.6564 21.9964 47.1532 23.6556 46.2104 25.0669C45.2675 26.4782 43.9273 27.5782 42.3593 28.2278C40.7912 28.8774 39.0657 29.0474 37.4011 28.7163C35.7364 28.3852 34.2073 27.5679 33.0071 26.3677C31.807 25.1676 30.9897 23.6385 30.6586 21.9738C30.3275 20.3091 30.4975 18.5837 31.1471 17.0156C31.7967 15.4476 32.8967 14.1074 34.308 13.1645C35.7193 12.2216 37.3785 11.7185 39.0758 11.7186C41.3504 11.7221 43.5308 12.6273 45.1392 14.2357C46.7476 15.8441 47.6527 18.0245 47.6562 20.2991V20.2991ZM8.59375 6.24988V38.2811H2.34375V2.34363H30.4688V5.46863H9.375C9.1678 5.46863 8.96909 5.55094 8.82257 5.69745C8.67606 5.84396 8.59375 6.04268 8.59375 6.24988ZM14.0625 47.6561C13.0269 47.6549 12.034 47.2429 11.3017 46.5106C10.5694 45.7783 10.1575 44.7855 10.1562 43.7499V7.03113H38.2812V10.1968C35.8054 10.3896 33.4873 11.4876 31.7695 13.2811H13.2812V14.8436H30.5383C30.2178 15.3394 29.9412 15.8622 29.7117 16.4061H13.2812V17.9686H29.2133C29.0918 18.4823 29.0108 19.0048 28.9711 19.5311H13.2812V21.0936H28.9727C29.0533 22.1686 29.306 23.2237 29.7211 24.2186H13.2812V25.7811H30.5539C30.9163 26.3412 31.3326 26.8645 31.7969 27.3436H13.2812V28.9061H33.7336C35.1071 29.7632 36.6671 30.2764 38.2812 30.4022V43.7499C38.2811 44.4782 38.4269 45.1991 38.7102 45.87C38.9935 46.541 39.4084 47.1483 39.9305 47.6561H14.0625ZM47.6562 43.7499C47.6563 44.7859 47.2447 45.7794 46.5121 46.512C45.7796 47.2446 44.786 47.6561 43.75 47.6561C42.714 47.6561 41.7204 47.2446 40.9879 46.512C40.2553 45.7794 39.8438 44.7859 39.8438 43.7499V33.5936H47.6562V43.7499Z"
          fill="black"/>
    <path d="M32.0313 10.1562H16.4062V11.7188H32.0313V10.1562Z" fill="black"/>
    <path d="M35.1562 32.0312H13.2812V33.5938H35.1562V32.0312Z" fill="black"/>
    <path d="M35.1562 35.1562H13.2812V36.7188H35.1562V35.1562Z" fill="black"/>
    <path d="M34.9291 19.7602C34.7826 19.6138 34.5839 19.5315 34.3768 19.5315C34.1696 19.5315 33.9709 19.6138 33.8244 19.7602L32.2619 21.3227C32.1155 21.4692 32.0332 21.6679 32.0332 21.8751C32.0332 22.0822 32.1155 22.2809 32.2619 22.4274L35.3869 25.5524C35.5334 25.6989 35.7321 25.7812 35.9393 25.7812C36.1464 25.7812 36.3451 25.6989 36.4916 25.5524L45.0854 16.9587C45.2318 16.8122 45.3141 16.6135 45.3141 16.4063C45.3141 16.1992 45.2318 16.0005 45.0854 15.854L43.5229 14.2915C43.3764 14.145 43.1777 14.0627 42.9705 14.0627C42.7634 14.0627 42.5647 14.145 42.4182 14.2915L35.9393 20.7704L34.9291 19.7602ZM42.9705 15.9485L43.4283 16.4063L35.9393 23.8954L33.919 21.8751L34.3768 21.4173L35.3869 22.4274C35.5334 22.5739 35.7321 22.6562 35.9393 22.6562C36.1464 22.6562 36.3451 22.5739 36.4916 22.4274L42.9705 15.9485Z"
          fill="black"/>
    <path d="M35.1563 42.9688H24.2188V44.5313H35.1563V42.9688Z" fill="black"/>
</svg>
