<svg width="173" height="113" viewBox="0 0 173 113" fill="none" xmlns="http://www.w3.org/2000/svg">
<g clip-path="url(#clip0_101:3091)">
<path d="M47.4626 54.0259L37.0852 55.465L35.6853 45.37L46.3697 43.8883L60.6762 35.9592L33.0158 39.7949C30.4838 40.146 28.7393 42.2286 29.0974 44.811L32.5408 69.6422L34.752 85.5883L19.4448 87.711L24.9558 92.9104L35.5634 91.4394L37.965 108.758L44.3526 107.872L40.3007 78.6527L37.8966 61.3161L52.9736 59.2253L47.4626 54.0259Z" fill="white"/>
<path d="M13.9672 112.068L20.3548 111.182L17.9507 93.8456L17.1418 88.0125L15.5466 76.5089L8.54297 72.9521L13.9672 112.068Z" fill="white"/>
<path d="M87.1452 72.156C90.0609 71.7517 92.9289 70.1576 93.6118 69.5843C93.9072 69.3489 94.1855 69.0951 94.4449 68.8246L94.7179 70.793L100.683 69.9657L98.9856 57.7217C98.4271 53.6945 96.627 50.7231 93.6451 48.8174C90.7333 46.9207 87.1438 46.1604 83.6142 46.6928C79.8353 47.2168 76.7831 48.8917 74.4649 51.7716C72.1467 54.6516 71.313 57.8042 71.7989 61.3077C72.2847 64.8111 74.0098 67.6642 76.9666 69.8126C79.9235 71.9611 83.2896 72.6907 87.1452 72.156ZM84.3605 52.0744C88.7531 51.4652 92.4115 54.1606 92.995 58.3684C93.5784 62.5761 90.6765 66.1813 86.399 66.7744C82.1214 67.3676 78.3363 64.745 77.7453 60.4831C77.1543 56.2211 80.0829 52.6676 84.3605 52.0744Z" fill="white"/>
<path d="M123.649 67.095L121.543 51.9074C121.115 48.8193 122.132 47.1321 124.568 46.7943C127.004 46.4565 128.366 47.8138 128.794 50.9019L130.9 66.0896L136.846 65.265L134.74 50.0773C133.841 43.5941 129.522 40.6407 124.131 41.3882C121.082 41.8111 118.944 43.1751 117.623 45.4934C115.779 43.614 113.409 42.8751 110.359 43.2981C104.911 44.0535 101.474 48.0273 102.38 54.5647L104.487 69.7524L110.433 68.9278L108.327 53.7401C107.899 50.652 108.878 48.9701 111.294 48.635C113.711 48.2998 115.169 49.6439 115.597 52.732L117.703 67.9196L123.649 67.095Z" fill="white"/>
<path d="M57.9871 80.0121C54.2082 80.5361 51.2135 82.203 48.8953 85.083C46.5771 87.9629 45.6834 91.1055 46.1693 94.6089C46.6551 98.1124 48.3802 100.965 51.3946 103.106C54.409 105.246 57.7368 105.981 61.5156 105.457C65.2944 104.933 68.2316 103.274 70.5382 100.451C72.8447 97.6281 73.7475 94.4107 73.2542 90.853C72.7608 87.2954 71.0508 84.5507 68.0389 82.4283C65.027 80.3059 61.7084 79.4961 57.9871 80.0121ZM65.8765 97.2876C64.6448 98.8388 62.9369 99.7751 60.7693 100.076C59.7624 100.236 58.735 100.205 57.7476 99.9845C56.7602 99.7642 55.8326 99.3592 55.0195 98.7931C53.4072 97.5994 52.4162 95.9514 52.1157 93.7844C51.8152 91.6173 52.3228 89.7799 53.5545 88.2286C54.1721 87.449 54.9497 86.7939 55.8397 86.3034C56.7298 85.8129 57.7135 85.4972 58.7308 85.3756C60.8984 85.0751 62.7992 85.5293 64.4115 86.723C66.0238 87.9167 67.0673 89.5206 67.3653 91.6697C67.6633 93.8187 67.1798 95.6895 65.8765 97.2876Z" fill="white"/>
<path d="M56.8924 61.2408L58.9484 76.0673L64.8372 75.2507L62.7812 60.4242C62.3505 57.3181 63.6288 55.5394 66.602 55.1271L67.7146 54.9729L66.9708 49.6093L65.5513 49.8062C59.7776 50.6068 55.8957 54.0533 56.8924 61.2408Z" fill="white"/>
<path d="M111.104 82.9341C108.774 82.4842 106.916 81.9136 106.745 80.6855C106.575 79.4575 107.59 78.5989 109.834 78.2877C112.558 77.91 114.925 78.0603 116.839 78.752L116.118 73.551L115.331 73.2368C114.261 72.8514 111.622 72.5731 109.09 72.9242C103.7 73.6717 100.175 77.0134 100.799 81.5101C101.906 89.4922 112.992 86.5376 113.525 90.3842C113.743 91.9553 112.678 92.8761 110.261 93.2112C107.461 93.5996 104.956 93.3027 102.618 92.3752L103.372 97.811L104.377 98.1502C105.692 98.612 108.514 98.9386 111.008 98.5928C116.762 97.7948 120.128 94.2911 119.472 89.5596C118.816 84.8281 114.447 83.354 111.104 82.9341Z" fill="white"/>
<path d="M92.4049 89.2093C92.9809 93.3629 91.1764 95.8587 87.9539 96.3056C84.7313 96.7525 82.3808 94.8881 81.7973 90.6803L80.5502 81.6869L73.9902 78.087L75.8509 91.5049C76.4019 95.4779 77.9276 98.3033 80.3631 99.9351C82.8031 101.48 85.7803 102.103 88.7146 101.683C91.6489 101.262 94.3301 99.8283 96.2358 97.6604C98.1954 95.4376 98.8948 92.3035 98.3513 88.3847L97.1042 79.3913L90.5442 75.7915L92.4049 89.2093Z" fill="white"/>
<path d="M158.668 52.0226L158.443 52.9373C158.104 54.1622 156.549 56.2001 154.05 57.2094C152.526 57.8266 150.841 57.9681 149.242 57.613C147.644 57.2579 146.218 56.425 145.174 55.2375L164.133 47.5835C163.292 45.3257 162.034 40.3463 155.84 38.1131C152.548 36.9314 149.244 37.0766 145.837 38.451C142.431 39.8253 139.865 42.1874 138.391 45.5208C136.918 48.8542 136.92 52.1118 138.35 55.3739C139.78 58.636 142.231 60.9465 145.683 62.2902C149.134 63.6338 152.598 63.5215 156.137 62.1105C159.676 60.6995 162.017 58.1292 163.076 56.1785C163.594 55.1485 163.988 54.0689 164.252 52.9599C164.421 52.2003 164.518 51.6346 164.576 51.2033L158.668 52.0226ZM143.174 50.5451C142.876 47.5494 144.525 44.7806 148.006 43.3776C151.487 41.9745 155.11 43 156.6 45.1493L143.174 50.5451Z" fill="white"/>
<path d="M139.766 70.0875C136.477 68.9239 133.19 69.0483 129.783 70.4227C126.377 71.797 123.794 74.1798 122.34 77.5105C120.886 80.8413 120.866 84.0835 122.277 87.3482C123.687 90.613 126.158 92.9209 129.612 94.2826C133.066 95.6443 136.544 95.4932 140.064 94.0848C143.583 92.6765 145.966 90.1189 147.003 88.1529C147.521 87.1292 147.917 86.0556 148.182 84.9524C148.328 84.3655 148.442 83.7722 148.522 83.175L142.595 83.997L142.391 84.9271C142.031 86.1366 140.476 88.1745 137.996 89.1811C136.47 89.7999 134.781 89.9426 133.179 89.588C131.578 89.2335 130.148 88.4004 129.101 87.2118L148.081 79.5733C147.218 77.3001 145.961 72.3207 139.766 70.0875ZM127.123 82.5348C126.822 79.5211 128.471 76.7523 131.933 75.3519C135.395 73.9516 139.056 74.9717 140.527 77.1236L127.123 82.5348Z" fill="white"/>
<path fill-rule="evenodd" clip-rule="evenodd" d="M49.7346 31.6231L48.9032 25.6275L33.5834 33.8628L49.7346 31.6231Z" fill="white"/>
<path fill-rule="evenodd" clip-rule="evenodd" d="M57.8537 20.8156L50.5408 24.7563L51.4598 31.384L59.171 30.3147L57.8537 20.8156Z" fill="white"/>
<path fill-rule="evenodd" clip-rule="evenodd" d="M59.7031 21.4606L60.8977 30.0748L68.628 29.0028L67.9318 23.9824L59.7031 21.4606Z" fill="white"/>
<path fill-rule="evenodd" clip-rule="evenodd" d="M159.963 25.4126L147.126 19.4068L146.199 12.725L140.388 10.4385L141.252 16.6689L118.841 6.19284L85.5621 24.7781L81.7296 23.5057L81.1136 19.0632L77.0685 17.9492L77.6495 22.1389L58.1745 15.6363C42.6944 22.7159 24.7232 30.1593 9.24312 37.2388L17.5489 36.087L20.7118 58.8956L6.62068 68.3778L7.45557 68.759L17.0481 73.0795L29.1796 65.8201L24.5311 35.1188L28.8663 34.5176L57.6161 19.0821L57.6353 19.0795L82.2588 26.6166L54.0303 42.5688L79.1586 39.0843L118.97 11.9177L119.115 12.1184L119.078 11.8476L155.522 28.4948L164.02 27.3164L159.963 25.4126Z" fill="white"/>
<path fill-rule="evenodd" clip-rule="evenodd" d="M137.647 30.9734L140.236 30.6143L152.436 28.9226L136.342 21.5647L137.647 30.9734Z" fill="white"/>
<path fill-rule="evenodd" clip-rule="evenodd" d="M70.3536 28.7643L79.4266 27.5061L69.7676 24.5385L70.3536 28.7643Z" fill="white"/>
<path fill-rule="evenodd" clip-rule="evenodd" d="M122.258 22.0832L133.92 20.4659L121.229 14.6609L122.258 22.0832Z" fill="white"/>
<path fill-rule="evenodd" clip-rule="evenodd" d="M89.6703 37.6263L122.03 33.1389L119.331 13.6712L119.01 13.8997L89.6703 37.6263Z" fill="white"/>
<path d="M134.646 22.0207L122.484 23.7071L123.76 32.9028L135.921 31.2163L134.646 22.0207Z" fill="white"/>
</g>
<defs>
<clipPath id="clip0_101:3091">
<rect width="161.547" height="90.4664" fill="white" transform="translate(0.277344 22.6343) rotate(-7.89496)"/>
</clipPath>
</defs>
</svg>
