<svg width="37" height="33" viewBox="0 0 37 33" fill="none" xmlns="http://www.w3.org/2000/svg">
<path fill-rule="evenodd" clip-rule="evenodd" d="M0 6.5C0 6.22386 0.205666 6 0.459368 6H36.5406C36.7943 6 37 6.22386 37 6.5C37 6.77614 36.7943 7 36.5406 7H0.459368C0.205666 7 0 6.77614 0 6.5Z" fill="black"/>
<path fill-rule="evenodd" clip-rule="evenodd" d="M0 27.5C0 27.2239 0.205666 27 0.459368 27H36.5406C36.7943 27 37 27.2239 37 27.5C37 27.7761 36.7943 28 36.5406 28H0.459368C0.205666 28 0 27.7761 0 27.5Z" fill="black"/>
<path fill-rule="evenodd" clip-rule="evenodd" d="M0 17.5C0 17.2239 0.205666 17 0.459368 17H36.5406C36.7943 17 37 17.2239 37 17.5C37 17.7761 36.7943 18 36.5406 18H0.459368C0.205666 18 0 17.7761 0 17.5Z" fill="black"/>
<path d="M34.6365 6.09069C34.6365 8.50066 32.6828 10.4543 30.2728 10.4543C27.8628 10.4543 25.9092 8.50066 25.9092 6.09069C25.9092 3.68072 27.8628 1.72705 30.2728 1.72705C32.6828 1.72705 34.6365 3.68072 34.6365 6.09069Z" fill="#821E27"/>
<path fill-rule="evenodd" clip-rule="evenodd" d="M35.6365 6.09069C35.6365 9.05294 33.2351 11.4543 30.2728 11.4543C27.3106 11.4543 24.9092 9.05294 24.9092 6.09069C24.9092 3.12843 27.3106 0.727051 30.2728 0.727051C33.2351 0.727051 35.6365 3.12843 35.6365 6.09069ZM30.2728 10.4543C32.6828 10.4543 34.6365 8.50066 34.6365 6.09069C34.6365 3.68072 32.6828 1.72705 30.2728 1.72705C27.8628 1.72705 25.9092 3.68072 25.9092 6.09069C25.9092 8.50066 27.8628 10.4543 30.2728 10.4543Z" fill="white"/>
<path d="M34.6365 27.909C34.6365 30.319 32.6828 32.2727 30.2728 32.2727C27.8628 32.2727 25.9092 30.319 25.9092 27.909C25.9092 25.4991 27.8628 23.5454 30.2728 23.5454C32.6828 23.5454 34.6365 25.4991 34.6365 27.909Z" fill="white"/>
<path fill-rule="evenodd" clip-rule="evenodd" d="M30.2728 24.0454C28.139 24.0454 26.4092 25.7752 26.4092 27.909C26.4092 30.0429 28.139 31.7727 30.2728 31.7727C32.4066 31.7727 34.1365 30.0429 34.1365 27.909C34.1365 25.7752 32.4066 24.0454 30.2728 24.0454ZM25.4092 27.909C25.4092 25.2229 27.5867 23.0454 30.2728 23.0454C32.9589 23.0454 35.1365 25.2229 35.1365 27.909C35.1365 30.5952 32.9589 32.7727 30.2728 32.7727C27.5867 32.7727 25.4092 30.5952 25.4092 27.909Z" fill="black"/>
<path d="M12.2273 16.9999C12.2273 19.4098 10.2736 21.3635 7.86364 21.3635C5.45367 21.3635 3.5 19.4098 3.5 16.9999C3.5 14.5899 5.45367 12.6362 7.86364 12.6362C10.2736 12.6362 12.2273 14.5899 12.2273 16.9999Z" fill="white"/>
<path fill-rule="evenodd" clip-rule="evenodd" d="M7.86364 13.1362C5.72981 13.1362 4 14.866 4 16.9999C4 19.1337 5.72981 20.8635 7.86364 20.8635C9.99746 20.8635 11.7273 19.1337 11.7273 16.9999C11.7273 14.866 9.99746 13.1362 7.86364 13.1362ZM3 16.9999C3 14.3138 5.17752 12.1362 7.86364 12.1362C10.5497 12.1362 12.7273 14.3138 12.7273 16.9999C12.7273 19.686 10.5497 21.8635 7.86364 21.8635C5.17752 21.8635 3 19.686 3 16.9999Z" fill="black"/>
</svg>
