<svg width="44" height="30" viewBox="0 0 44 30" fill="none" xmlns="http://www.w3.org/2000/svg">
    <path d="M22 6.84375C21.1621 6.91992 20.3242 6.99609 19.5625 7.22461C19.9434 7.83398 20.0957 8.5957 20.1719 9.28125C20.1719 11.6426 18.1914 13.5469 15.9062 13.5469C15.1445 13.5469 14.3828 13.3945 13.8496 13.0137C13.6211 13.7754 13.4688 14.5371 13.4688 15.375C13.4688 20.0977 17.2773 23.9062 22 23.9062C26.7227 23.9062 30.5312 20.0977 30.5312 15.375C30.5312 10.7285 26.7227 6.91992 22 6.91992V6.84375ZM43.6328 14.3086C39.5195 6.23438 31.293 0.75 22 0.75C12.6309 0.75 4.4043 6.23438 0.291016 14.3086C0.138672 14.6133 0.0625 14.9941 0.0625 15.375C0.0625 15.832 0.138672 16.2129 0.291016 16.5176C4.4043 24.5918 12.6309 30 22 30C31.293 30 39.5195 24.5918 43.6328 16.5176C43.7852 16.2129 43.8613 15.832 43.8613 15.4512C43.8613 14.9941 43.7852 14.6133 43.6328 14.3086ZM22 26.3438C14.459 26.3438 7.52734 22.1543 3.87109 15.375C7.52734 8.5957 14.459 4.40625 22 4.40625C29.4648 4.40625 36.3965 8.5957 40.0527 15.375C36.3965 22.1543 29.4648 26.3438 22 26.3438Z"
          fill="black"/>
</svg>
