<svg width="32" height="44" viewBox="0 0 32 44" fill="none" xmlns="http://www.w3.org/2000/svg">
    <path d="M4.5 44H11C11.5 44 12.1012 44 14 44C15.8994 44 16 44 17.4444 44V39.8973H18.7338V44C20 44 20.1012 44 22 44C23.8994 44 23.5 44 25.6125 44V23.5544C25.7772 23.8876 25.9433 24.2693 26.1074 24.7145C26.8913 26.8538 27.5511 30.3633 27.5483 35.8417C27.5489 37.352 27.4994 39.0107 27.3915 40.8318C27.3197 42.0393 28.2569 43.0757 29.4836 43.1458C29.5276 43.1486 29.5715 43.1497 29.6152 43.1497C30.7849 43.1497 31.7661 42.2513 31.835 41.087C31.9469 39.189 31.9997 37.4456 31.9997 35.8419C31.9883 27.578 30.6469 23.0038 28.8185 20.2539C27.9047 18.8881 26.8354 18.0125 25.8481 17.5276C24.8968 17.0558 24.0611 16.9496 23.5596 16.9435C23.527 16.9419 23.495 16.9386 23.4622 16.9386H12.7157C12.6865 16.9386 12.6579 16.9419 12.6289 16.943C12.1888 16.9476 11.4884 17.027 10.6722 17.3704C10.1195 17.5982 9.53171 17.9498 8.95171 18.4435C8.19368 19.0888 7.449 19.9773 6.8117 21.1545C5.67452 23.2371 4.79298 26.2002 4.39602 30.5768C4.39546 30.5828 4.39602 30.5886 4.39546 30.5943C4.33482 31.2668 4.2867 31.9749 4.25109 32.7164C4.2038 33.6955 4.17765 34.7346 4.17737 35.8427C4.17793 37.4456 4.22995 39.189 4.34316 41.0873C4.41215 42.2516 5.39328 43.1499 6.56301 43.1499C6.60641 43.1499 6.65036 43.1483 6.69459 43.1461C7.9219 43.0749 8.85796 42.038 8.78647 40.831C8.67771 39.0102 8.62847 37.3523 8.62847 35.8425C8.62847 34.6111 8.66185 33.4811 8.72194 32.4417C8.75142 31.9308 8.78675 31.4401 8.82876 30.973C8.82903 30.9697 8.82987 30.9667 8.83015 30.9634C8.85073 30.7315 8.87326 30.507 8.89691 30.2855C9.24825 26.9842 9.91337 24.8654 10.566 23.5473V31.8843L9.26299 32.7528C9.24546 33.0871 9.23128 33.4275 9.21987 33.7738L10.4875 32.9289L15.4794 40.1832L9.5 44H4.5L1.15944 39.1479L3.64133 37.4933C3.63465 37.1614 3.62992 36.8348 3.62686 36.5106L0 38.9286L3.5 44H4.5ZM17.0319 19.1795H19.146L19.6746 21.233L19.5942 21.3579C19.1588 21.7155 18.6253 21.8946 18.0887 21.8951C17.5524 21.8946 17.0197 21.7158 16.5846 21.3593L16.5034 21.233L17.0319 19.1795ZM16.9685 22.5142C17.3293 22.6473 17.709 22.7168 18.0884 22.7165H18.0906C18.4698 22.7165 18.8489 22.647 19.2092 22.5139L20.7319 33.5545L18.0892 36.8402L15.4466 33.5545L16.9685 22.5142Z"
          fill="black"/>
    <path d="M9.86727 35.5634L9.41162 35.8772L12.4754 40.1874L12.931 39.8736L9.86727 35.5634Z" fill="black"/>
    <path d="M9.24268 38.7258C9.25519 39.0617 9.2691 39.3993 9.28551 39.7427L10.5242 41.4885L10.9804 41.175L9.24268 38.7258Z"
          fill="black"/>
    <path d="M19.1097 15.2949C22.0806 14.8149 24.3477 12.277 24.3477 9.21714C24.3477 8.91732 24.3246 8.6227 24.2829 8.33411H11.8949C11.8532 8.6227 11.8301 8.91705 11.8301 9.21714C11.8301 12.2772 14.0972 14.8149 17.0681 15.2949C17.4003 15.3486 17.7413 15.3779 18.089 15.3779C18.4368 15.3779 18.7775 15.3489 19.1097 15.2949Z"
          fill="black"/>
    <path d="M11.5426 6.13417C11.0792 6.13417 10.7036 6.50437 10.7036 6.96108C10.7036 7.41725 11.0792 7.78689 11.5426 7.78689H24.6347C25.0987 7.78689 25.4742 7.41725 25.4742 6.96108C25.4742 6.50437 25.0987 6.13417 24.6347 6.13417H24.5192C24.5142 5.94963 24.5023 5.767 24.4817 5.58655C24.2678 3.7104 23.2224 2.08205 21.7149 1.06813V1.57359C21.7149 1.93447 21.4178 2.22772 21.0509 2.22772C20.684 2.22772 20.3864 1.93474 20.3864 1.57359V0.383882C19.8706 0.189477 19.3232 0.0575002 18.7529 0V1.57359C18.7529 1.93447 18.4558 2.22772 18.0889 2.22772C17.7217 2.22772 17.4244 1.93474 17.4244 1.57359V0C16.8541 0.0575002 16.3066 0.189477 15.7906 0.383882V1.57331C15.7906 1.9342 15.4935 2.22745 15.1261 2.22745C14.7594 2.22745 14.4621 1.93447 14.4621 1.57331V1.06841C12.9552 2.08233 11.9095 3.7104 11.6959 5.58655C11.6756 5.767 11.6633 5.94963 11.6583 6.13417H11.5426Z"
          fill="black"/>
</svg>
