<svg width="36" height="52" viewBox="0 0 36 52" fill="none" xmlns="http://www.w3.org/2000/svg">
    <path d="M26.4603 44.1664C26.2842 44.1672 26.1102 44.1271 25.9522 44.0493C25.7941 43.9715 25.6563 43.858 25.5495 43.7179L25.1976 43.2694L24.6525 43.4281C24.484 43.4779 24.3063 43.4883 24.1332 43.4584C23.96 43.4285 23.796 43.3592 23.6539 43.2558C23.5118 43.1524 23.3955 43.0177 23.3138 42.8621C23.2321 42.7066 23.1873 42.5343 23.1828 42.3586V41.7928L22.6515 41.5996C22.4867 41.5405 22.3376 41.4444 22.2157 41.3187C22.0938 41.193 22.0023 41.041 21.9483 40.8744C21.8944 40.7078 21.8793 40.5311 21.9043 40.3577C21.9293 40.1844 21.9938 40.0191 22.0926 39.8746L22.41 39.4054L22.0926 38.9362C21.9938 38.7917 21.9293 38.6264 21.9043 38.4531C21.8793 38.2797 21.8944 38.103 21.9483 37.9364C22.0023 37.7698 22.0938 37.6178 22.2157 37.4921C22.3376 37.3664 22.4867 37.2703 22.6515 37.2112L23.169 37.0042V36.4315C23.1735 36.2558 23.2183 36.0835 23.3 35.928C23.3817 35.7724 23.498 35.6377 23.6401 35.5343C23.7822 35.4309 23.9462 35.3616 24.1194 35.3317C24.2925 35.3018 24.4702 35.3122 24.6387 35.362L25.1838 35.5207L25.5357 35.0722C25.6472 34.9401 25.7861 34.8339 25.9428 34.761C26.0995 34.6881 26.2703 34.6504 26.4431 34.6504C26.6159 34.6504 26.7867 34.6881 26.9434 34.761C27.1001 34.8339 27.239 34.9401 27.3504 35.0722L27.7023 35.5207L28.2474 35.362C28.416 35.3122 28.5937 35.3018 28.7668 35.3317C28.94 35.3616 29.104 35.4309 29.2461 35.5343C29.3881 35.6377 29.5045 35.7724 29.5862 35.928C29.6679 36.0835 29.7127 36.2558 29.7171 36.4315V37.0042L30.2553 37.1974C30.4202 37.2565 30.5693 37.3526 30.6912 37.4783C30.8131 37.604 30.9046 37.756 30.9586 37.9226C31.0125 38.0892 31.0276 38.2659 31.0026 38.4393C30.9776 38.6126 30.9131 38.7779 30.8142 38.9224L30.4968 39.3916L30.8142 39.8608C30.9118 40.0057 30.9751 40.1709 30.9993 40.3439C31.0236 40.5169 31.0083 40.6931 30.9544 40.8593C30.9006 41.0254 30.8097 41.1772 30.6886 41.3031C30.5675 41.4289 30.4193 41.5256 30.2553 41.5858L29.7171 41.779V42.3517C29.7127 42.5274 29.6679 42.6997 29.5862 42.8552C29.5045 43.0108 29.3881 43.1455 29.2461 43.2489C29.104 43.3523 28.94 43.4216 28.7668 43.4515C28.5937 43.4814 28.416 43.471 28.2474 43.4212L27.7023 43.2625L27.3504 43.711C27.2465 43.8496 27.1123 43.9627 26.9581 44.0416C26.8038 44.1206 26.6336 44.1632 26.4603 44.1664ZM25.2943 41.8342C25.4693 41.8345 25.6418 41.8751 25.7986 41.9528C25.9554 42.0306 26.0921 42.1435 26.1981 42.2827L26.4603 42.6208L26.7225 42.2827C26.8632 42.1002 27.0557 41.9643 27.2748 41.8929C27.494 41.8215 27.7295 41.8179 27.9507 41.8825L28.3647 41.9998V41.572C28.3707 41.341 28.4464 41.1173 28.5819 40.9301C28.7173 40.7429 28.9062 40.6011 29.1237 40.5232L29.5515 40.399L29.31 40.0471C29.1795 39.8573 29.1096 39.6323 29.1096 39.402C29.1096 39.1716 29.1795 38.9466 29.31 38.7568L29.5515 38.3842L29.1513 38.2393C28.9333 38.1623 28.7439 38.0206 28.6083 37.8333C28.4727 37.6459 28.3974 37.4217 28.3923 37.1905V36.7627L27.9783 36.88C27.7571 36.9446 27.5216 36.941 27.3024 36.8696C27.0833 36.7982 26.8908 36.6623 26.7501 36.4798L26.4879 36.1417L26.2257 36.4798C26.0857 36.6631 25.8932 36.7995 25.6739 36.871C25.4546 36.9424 25.2187 36.9456 24.9975 36.88L24.5835 36.7627V37.1905C24.5776 37.4215 24.5019 37.6452 24.3664 37.8324C24.231 38.0196 24.0421 38.1614 23.8245 38.2393L23.3829 38.3842L23.6244 38.7361C23.755 38.9259 23.8249 39.1509 23.8249 39.3813C23.8249 39.6116 23.755 39.8366 23.6244 40.0264L23.3829 40.3783L23.7831 40.5232C24.0012 40.6002 24.1906 40.7419 24.3262 40.9292C24.4618 41.1166 24.5371 41.3408 24.5421 41.572V41.9998L24.9561 41.8825C25.0658 41.8498 25.1798 41.8335 25.2943 41.8342Z"
          fill="black"/>
    <path d="M26.5083 45C26.2959 45.0009 26.0861 44.9546 25.8955 44.8646C25.7049 44.7747 25.5387 44.6435 25.41 44.4815L24.9856 43.9631L24.3283 44.1466C24.1251 44.2041 23.9108 44.2161 23.7019 44.1816C23.4931 44.147 23.2954 44.0669 23.124 43.9474C22.9527 43.8279 22.8123 43.6722 22.7138 43.4923C22.6153 43.3125 22.5613 43.1133 22.556 42.9103V42.2562L21.9152 42.0329C21.7165 41.9646 21.5366 41.8535 21.3896 41.7082C21.2426 41.5629 21.1323 41.3872 21.0672 41.1946C21.0022 41.002 20.984 40.7977 21.0142 40.5974C21.0443 40.397 21.122 40.206 21.2413 40.0389L21.624 39.4965L21.2413 38.9542C21.122 38.7871 21.0443 38.596 21.0142 38.3957C20.984 38.1953 21.0022 37.991 21.0672 37.7985C21.1323 37.6059 21.2426 37.4302 21.3896 37.2849C21.5366 37.1395 21.7165 37.0285 21.9152 36.9602L22.5393 36.7209V36.0589C22.5447 35.8558 22.5987 35.6566 22.6972 35.4768C22.7957 35.297 22.9361 35.1413 23.1074 35.0217C23.2787 34.9022 23.4765 34.8221 23.6853 34.7876C23.8941 34.753 24.1084 34.765 24.3116 34.8226L24.969 35.006L25.3933 34.4876C25.5277 34.3348 25.6952 34.2121 25.8842 34.1279C26.0732 34.0436 26.2791 34 26.4875 34C26.6959 34 26.9018 34.0436 27.0908 34.1279C27.2798 34.2121 27.4474 34.3348 27.5817 34.4876L28.0061 35.006L28.6634 34.8226C28.8666 34.765 29.0809 34.753 29.2898 34.7876C29.4986 34.8221 29.6963 34.9022 29.8676 35.0217C30.039 35.1413 30.1793 35.297 30.2778 35.4768C30.3764 35.6566 30.4304 35.8558 30.4357 36.0589V36.7209L31.0847 36.9442C31.2835 37.0125 31.4634 37.1236 31.6104 37.2689C31.7574 37.4142 31.8677 37.5899 31.9328 37.7825C31.9978 37.9751 32.016 38.1794 31.9858 38.3797C31.9557 38.5801 31.878 38.7711 31.7587 38.9382L31.376 39.4806L31.7587 40.0229C31.8763 40.1905 31.9526 40.3814 31.9819 40.5814C32.0112 40.7813 31.9927 40.985 31.9278 41.1771C31.8629 41.3692 31.7532 41.5446 31.6072 41.6901C31.4611 41.8356 31.2825 41.9474 31.0847 42.017L30.4357 42.2403V42.9023C30.4304 43.1054 30.3764 43.3045 30.2778 43.4844C30.1793 43.6642 30.039 43.8199 29.8676 43.9394C29.6963 44.0589 29.4986 44.1391 29.2898 44.1736C29.0809 44.2081 28.8666 44.1962 28.6634 44.1386L28.0061 43.9551L27.5817 44.4736C27.4564 44.6338 27.2945 44.7645 27.1085 44.8558C26.9225 44.947 26.7172 44.9963 26.5083 45ZM25.1021 42.3041C25.3131 42.3044 25.5213 42.3513 25.7103 42.4412C25.8994 42.5311 26.0642 42.6616 26.1921 42.8225L26.5083 43.2134L26.8245 42.8225C26.9942 42.6116 27.2263 42.4545 27.4905 42.372C27.7548 42.2895 28.0388 42.2853 28.3056 42.3599L28.8049 42.4955V42.001C28.8121 41.734 28.9033 41.4753 29.0667 41.259C29.23 41.0426 29.4578 40.8787 29.7201 40.7886L30.236 40.6451L29.9448 40.2383C29.7874 40.0189 29.7031 39.7588 29.7031 39.4925C29.7031 39.2262 29.7874 38.9662 29.9448 38.7468L30.236 38.3161L29.7534 38.1486C29.4905 38.0595 29.262 37.8958 29.0985 37.6792C28.935 37.4627 28.8442 37.2035 28.8381 36.9362V36.4417L28.3389 36.5773C28.0721 36.652 27.7881 36.6478 27.5238 36.5652C27.2596 36.4827 27.0275 36.3257 26.8578 36.1147L26.5416 35.7239L26.2254 36.1147C26.0565 36.3266 25.8244 36.4842 25.5599 36.5668C25.2954 36.6495 25.011 36.6531 24.7443 36.5773L24.2451 36.4417V36.9362C24.2379 37.2032 24.1466 37.4619 23.9833 37.6783C23.8199 37.8946 23.5921 38.0586 23.3298 38.1486L22.7973 38.3161L23.0885 38.7229C23.2459 38.9423 23.3302 39.2023 23.3302 39.4686C23.3302 39.7349 23.2459 39.995 23.0885 40.2144L22.7973 40.6212L23.2799 40.7886C23.5428 40.8777 23.7713 41.0414 23.9348 41.258C24.0983 41.4746 24.1891 41.7337 24.1951 42.001V42.4955L24.6944 42.3599C24.8267 42.3221 24.9641 42.3033 25.1021 42.3041Z"
          fill="black"/>
    <path d="M26.5053 43C26.3701 43.0006 26.2366 42.9711 26.1153 42.9138C25.9941 42.8566 25.8883 42.7732 25.8064 42.6701L25.5363 42.3402L25.118 42.4569C24.9887 42.4935 24.8523 42.5012 24.7194 42.4792C24.5865 42.4572 24.4607 42.4062 24.3517 42.3302C24.2426 42.2541 24.1533 42.155 24.0906 42.0406C24.0279 41.9261 23.9936 41.7994 23.9902 41.6702V41.254L23.5824 41.1119C23.4559 41.0684 23.3415 40.9977 23.2479 40.9052C23.1544 40.8127 23.0842 40.7009 23.0428 40.5784C23.0014 40.4558 22.9898 40.3258 23.009 40.1983C23.0282 40.0708 23.0777 39.9493 23.1535 39.8429L23.3971 39.4978L23.1535 39.1526C23.0777 39.0463 23.0282 38.9248 23.009 38.7973C22.9898 38.6698 23.0014 38.5397 23.0428 38.4172C23.0842 38.2947 23.1544 38.1828 23.2479 38.0904C23.3415 37.9979 23.4559 37.9272 23.5824 37.8837L23.9796 37.7315V37.3102C23.983 37.181 24.0173 37.0542 24.08 36.9398C24.1427 36.8253 24.232 36.7263 24.3411 36.6502C24.4501 36.5741 24.5759 36.5231 24.7088 36.5012C24.8417 36.4792 24.9781 36.4868 25.1074 36.5235L25.5257 36.6402L25.7958 36.3103C25.8813 36.2131 25.9879 36.135 26.1081 36.0814C26.2284 36.0278 26.3594 36 26.4921 36C26.6247 36 26.7557 36.0278 26.876 36.0814C26.9963 36.135 27.1029 36.2131 27.1884 36.3103L27.4584 36.6402L27.8767 36.5235C28.006 36.4868 28.1424 36.4792 28.2753 36.5012C28.4082 36.5231 28.534 36.5741 28.643 36.6502C28.7521 36.7263 28.8414 36.8253 28.9041 36.9398C28.9668 37.0542 29.0011 37.181 29.0046 37.3102V37.7315L29.4176 37.8736C29.5441 37.917 29.6585 37.9877 29.7521 38.0802C29.8456 38.1727 29.9158 38.2845 29.9572 38.407C29.9986 38.5296 30.0102 38.6596 29.991 38.7871C29.9718 38.9146 29.9224 39.0362 29.8465 39.1425L29.6029 39.4876L29.8465 39.8328C29.9213 39.9394 29.9699 40.0609 29.9885 40.1881C30.0071 40.3154 29.9954 40.445 29.954 40.5673C29.9127 40.6895 29.843 40.8011 29.75 40.8937C29.6571 40.9863 29.5434 41.0574 29.4176 41.1017L29.0046 41.2438V41.6651C29.0011 41.7943 28.9668 41.9211 28.9041 42.0355C28.8414 42.1499 28.7521 42.249 28.643 42.3251C28.534 42.4011 28.4082 42.4521 28.2753 42.4741C28.1424 42.4961 28.006 42.4885 27.8767 42.4518L27.4584 42.3351L27.1884 42.665C27.1086 42.767 27.0056 42.8502 26.8872 42.9082C26.7689 42.9663 26.6382 42.9977 26.5053 43ZM25.6104 41.2844C25.7447 41.2846 25.8772 41.3145 25.9975 41.3717C26.1178 41.4289 26.2227 41.5119 26.3041 41.6143L26.5053 41.863L26.7065 41.6143C26.8145 41.4801 26.9622 41.3802 27.1303 41.3276C27.2985 41.2751 27.4793 41.2724 27.649 41.32L27.9667 41.4062V41.0915C27.9713 40.9216 28.0294 40.757 28.1333 40.6194C28.2373 40.4817 28.3822 40.3773 28.5492 40.32L28.8775 40.2287L28.6922 39.9698C28.592 39.8302 28.5383 39.6647 28.5383 39.4953C28.5383 39.3258 28.592 39.1603 28.6922 39.0207L28.8775 38.7466L28.5704 38.64C28.403 38.5833 28.2577 38.4792 28.1536 38.3413C28.0496 38.2035 27.9918 38.0386 27.9879 37.8685V37.5538L27.6702 37.6401C27.5004 37.6876 27.3197 37.6849 27.1515 37.6324C26.9834 37.5799 26.8357 37.48 26.7277 37.3457L26.5265 37.097L26.3253 37.3457C26.2178 37.4805 26.0701 37.5809 25.9018 37.6334C25.7335 37.686 25.5525 37.6883 25.3827 37.6401L25.065 37.5538V37.8685C25.0605 38.0384 25.0024 38.203 24.8984 38.3407C24.7945 38.4784 24.6495 38.5827 24.4826 38.64L24.1437 38.7466L24.329 39.0055C24.4292 39.1451 24.4828 39.3106 24.4828 39.48C24.4828 39.6495 24.4292 39.815 24.329 39.9546L24.1437 40.2135L24.4508 40.32C24.6182 40.3767 24.7635 40.4809 24.8676 40.6187C24.9716 40.7565 25.0294 40.9215 25.0333 41.0915V41.4062L25.351 41.32C25.4352 41.2959 25.5226 41.2839 25.6104 41.2844Z"
          fill="black"/>
    <path d="M28.73 50.5484C28.622 50.5477 28.5157 50.5217 28.4195 50.4725L26.4599 49.4927L24.5003 50.4725C24.3896 50.5276 24.2662 50.5519 24.1429 50.5429C24.0195 50.5339 23.9009 50.492 23.7994 50.4215C23.6978 50.351 23.6171 50.2544 23.5656 50.142C23.5141 50.0296 23.4938 49.9054 23.5067 49.7825L24.4796 43.4897C24.4937 43.3991 24.5254 43.3121 24.5731 43.2338C24.6207 43.1554 24.6833 43.0872 24.7573 43.0331C24.8313 42.979 24.9153 42.9399 25.0044 42.9182C25.0935 42.8965 25.186 42.8926 25.2766 42.9066C25.3672 42.9207 25.4541 42.9524 25.5325 43.0001C25.6108 43.0477 25.679 43.1103 25.7332 43.1843C25.7873 43.2584 25.8263 43.3423 25.848 43.4314C25.8697 43.5205 25.8737 43.613 25.8596 43.7036L25.0937 48.6785L26.1701 48.1403C26.2655 48.0929 26.3706 48.0682 26.4772 48.0682C26.5837 48.0682 26.6888 48.0929 26.7842 48.1403L27.8261 48.6302L26.9912 43.6622C26.961 43.4792 27.0048 43.2917 27.1128 43.1409C27.2209 42.9902 27.3844 42.8885 27.5674 42.8583C27.7504 42.8281 27.9379 42.8719 28.0886 42.9799C28.2394 43.088 28.341 43.2515 28.3712 43.4345L29.4131 49.7342C29.4314 49.834 29.4274 49.9367 29.4015 50.0348C29.3755 50.1329 29.3282 50.2241 29.263 50.3019C29.1978 50.3796 29.1162 50.442 29.024 50.4847C28.9319 50.5273 28.8315 50.549 28.73 50.5484Z"
          fill="black"/>
    <path d="M27.6482 49C27.5935 48.9996 27.5396 48.9827 27.4909 48.9507L26.4981 48.3144L25.5053 48.9507C25.4492 48.9865 25.3867 49.0023 25.3242 48.9964C25.2617 48.9906 25.2016 48.9634 25.1502 48.9176C25.0987 48.8718 25.0578 48.8091 25.0317 48.7361C25.0057 48.6631 24.9954 48.5825 25.0019 48.5026L25.4948 44.4161C25.5019 44.3572 25.518 44.3007 25.5422 44.2499C25.5663 44.199 25.598 44.1547 25.6355 44.1196C25.673 44.0844 25.7155 44.059 25.7607 44.045C25.8058 44.0309 25.8527 44.0283 25.8986 44.0374C25.9445 44.0465 25.9885 44.0672 26.0282 44.0981C26.0679 44.1291 26.1025 44.1697 26.1299 44.2178C26.1573 44.2658 26.1771 44.3203 26.1881 44.3782C26.1991 44.4361 26.2011 44.4961 26.194 44.555L25.8059 47.7857L26.3513 47.4362C26.3996 47.4054 26.4529 47.3894 26.5068 47.3894C26.5608 47.3894 26.6141 47.4054 26.6624 47.4362L27.1903 47.7543L26.7673 44.5281C26.752 44.4092 26.7741 44.2875 26.8289 44.1896C26.8836 44.0917 26.9665 44.0257 27.0592 44.0061C27.1519 43.9865 27.2469 44.0149 27.3233 44.085C27.3996 44.1552 27.4511 44.2614 27.4664 44.3802L27.9943 48.4712C28.0035 48.5361 28.0015 48.6027 27.9884 48.6665C27.9752 48.7302 27.9513 48.7894 27.9182 48.8399C27.8852 48.8904 27.8438 48.9309 27.7972 48.9586C27.7505 48.9863 27.6996 49.0004 27.6482 49Z"
          fill="black"/>
    <path d="M29.9446 52C29.7805 51.9992 29.6188 51.9688 29.4727 51.9113L26.4943 50.766L23.5159 51.9113C23.3477 51.9756 23.16 52.0041 22.9726 51.9936C22.7852 51.9831 22.6049 51.9341 22.4505 51.8516C22.2962 51.7692 22.1735 51.6564 22.0952 51.525C22.017 51.3936 21.9861 51.2484 22.0058 51.1047L23.4845 43.7489C23.5058 43.643 23.5541 43.5413 23.6265 43.4498C23.6989 43.3582 23.7941 43.2785 23.9066 43.2152C24.0191 43.1519 24.1466 43.1063 24.282 43.0809C24.4175 43.0556 24.558 43.051 24.6957 43.0674C24.8335 43.0838 24.9656 43.1209 25.0847 43.1766C25.2038 43.2323 25.3074 43.3055 25.3897 43.392C25.472 43.4785 25.5313 43.5766 25.5643 43.6808C25.5973 43.7849 25.6033 43.893 25.5819 43.9989L24.4178 49.8142L26.0538 49.1851C26.1989 49.1297 26.3586 49.1008 26.5205 49.1008C26.6825 49.1008 26.8422 49.1297 26.9872 49.1851L28.5708 49.7578L27.3018 43.9505C27.2559 43.7366 27.3224 43.5175 27.4866 43.3412C27.6509 43.165 27.8994 43.0462 28.1775 43.0109C28.4557 42.9756 28.7406 43.0267 28.9698 43.153C29.1989 43.2793 29.3534 43.4705 29.3993 43.6844L30.9829 51.0482C31.0106 51.165 31.0046 51.2849 30.9651 51.3996C30.9257 51.5143 30.8538 51.621 30.7547 51.7118C30.6555 51.8027 30.5315 51.8757 30.3915 51.9255C30.2515 51.9753 30.0989 52.0007 29.9446 52Z"
          fill="black"/>
    <path d="M10 23.5C10 22.6716 10.6716 22 11.5 22H24.5C25.3284 22 26 22.6716 26 23.5C26 24.3284 25.3284 25 24.5 25H11.5C10.6716 25 10 24.3284 10 23.5Z"
          fill="black"/>
    <path d="M6 19.5C6 18.6716 6.67157 18 7.5 18H28.5C29.3284 18 30 18.6716 30 19.5C30 20.3284 29.3284 21 28.5 21H7.5C6.67157 21 6 20.3284 6 19.5Z"
          fill="black"/>
    <path d="M8 15.5C8 14.6716 8.67157 14 9.5 14H26.5C27.3284 14 28 14.6716 28 15.5C28 16.3284 27.3284 17 26.5 17H9.5C8.67157 17 8 16.3284 8 15.5Z"
          fill="black"/>
    <path fill-rule="evenodd" clip-rule="evenodd"
          d="M0.5 4C0.5 2.067 2.067 0.5 4 0.5H32C33.933 0.5 35.5 2.067 35.5 4V42C35.5 43.933 33.933 45.5 32 45.5H4C2.067 45.5 0.5 43.933 0.5 42V4ZM4 3.5C3.72386 3.5 3.5 3.72386 3.5 4V42C3.5 42.2761 3.72386 42.5 4 42.5H32C32.2761 42.5 32.5 42.2761 32.5 42V4C32.5 3.72386 32.2761 3.5 32 3.5H4Z"
          fill="black"/>
</svg>
