<svg width="72" height="72" viewBox="0 0 72 72" fill="none" xmlns="http://www.w3.org/2000/svg">
    <mask id="path-1-outside-1" maskUnits="userSpaceOnUse" x="9" y="10" width="54" height="52" fill="black">
        <rect fill="white" x="9" y="10" width="54" height="52"/>
        <path d="M62 32.5673V32.557C62 32.557 62 32.5477 62 32.542C62 32.5362 62 32.5016 61.9931 32.482V32.4601C61.9884 32.434 61.9818 32.4082 61.9736 32.3829C61.9741 32.3803 61.9741 32.3775 61.9736 32.3749C61.9655 32.353 61.9575 32.3311 61.9471 32.3092C61.9445 32.302 61.9415 32.2951 61.9379 32.2884C61.9291 32.2701 61.9191 32.2524 61.9081 32.2354C61.905 32.2294 61.9016 32.2236 61.8977 32.2181C61.8838 32.197 61.8688 32.1766 61.8529 32.157L61.8403 32.1432C61.8265 32.1282 61.8127 32.1132 61.7977 32.0994L61.7793 32.0821C61.7621 32.0683 61.7449 32.0533 61.7265 32.0406L61.7173 32.0337C61.6954 32.0185 61.6723 32.005 61.6483 31.9934H61.6426L48.9006 25.5531V17.2447C48.9012 17.2335 48.9012 17.2224 48.9006 17.2112V17.1974C48.9006 17.1974 48.9006 17.1974 48.9006 17.1905C48.8986 17.1618 48.8947 17.1334 48.8891 17.1052C48.8891 17.1052 48.8891 17.1052 48.8891 17.0983C48.8832 17.0726 48.8759 17.0472 48.8673 17.0222C48.8649 17.017 48.8629 17.0116 48.8615 17.0061C48.8408 16.9529 48.8134 16.9025 48.7799 16.8563C48.7776 16.8516 48.7745 16.8473 48.7708 16.8436C48.7547 16.8228 48.7374 16.8021 48.7202 16.7836C48.7002 16.764 48.6791 16.7455 48.657 16.7283L48.6432 16.718C48.6232 16.7031 48.6025 16.6892 48.5811 16.6765L48.5708 16.6695C48.5455 16.6557 48.5202 16.6442 48.4938 16.6327H48.488L43.3255 14.6158H43.3117L34.1681 11.0453C34.0803 11.0109 33.9861 10.9958 33.8919 11.001C33.7978 11.0062 33.7058 11.0315 33.6222 11.0752L20.5206 17.8935L20.493 17.9085L10.3438 23.1882C10.3326 23.194 10.3219 23.2006 10.3116 23.2078L10.2966 23.2158C10.2748 23.2308 10.253 23.2458 10.2334 23.2619H10.2277C10.21 23.2772 10.1931 23.2933 10.1771 23.3103L10.1633 23.3253C10.1495 23.3399 10.1369 23.3549 10.1254 23.3703L10.1139 23.3864C10.1002 23.4057 10.0875 23.4257 10.076 23.4463V23.4463C10.0639 23.4687 10.0531 23.4918 10.0438 23.5155L10.0369 23.5339C10.03 23.5516 10.0242 23.5697 10.0197 23.5881C10.0172 23.5952 10.0153 23.6026 10.0139 23.61C10.0085 23.6309 10.0043 23.652 10.0013 23.6734C10.0013 23.6734 10.0013 23.6814 10.0013 23.6849C9.99957 23.7114 9.99957 23.7379 10.0013 23.7644V45.7786C10.0012 45.9004 10.0344 46.0198 10.0975 46.1239C10.1605 46.228 10.2509 46.3127 10.3587 46.3687L24.3396 53.6457L24.3637 53.6583L38.3492 60.9284C38.3987 60.9558 38.4516 60.9763 38.5066 60.9895C38.5236 60.9937 38.5409 60.9968 38.5583 60.9987H38.5848C38.6112 61.0004 38.6377 61.0004 38.6641 60.9987H38.6733C38.7009 60.9985 38.7286 60.9966 38.756 60.993L38.7939 60.9849L38.8468 60.9734L38.887 60.9584L38.9353 60.9399L38.9732 60.9203L39.0089 60.9019L39.0215 60.8927H39.033L61.7069 45.6449C61.7972 45.5841 61.8711 45.5019 61.9222 45.4056C61.9733 45.3093 62 45.2019 62 45.0929V32.5673ZM57.0754 31.1751L59.9727 32.6388L57.4845 34.1601C56.6237 32.8693 56.8605 31.7398 57.0754 31.1751ZM50.6774 27.9365C49.9391 28.3666 49.1089 28.6132 48.2562 28.6557C47.4034 28.6982 46.5529 28.5354 45.7758 28.1809L48.2605 26.716L50.6774 27.9365ZM47.5744 25.5773L40.1099 29.9788V22.5912L47.5744 18.3822V25.5773ZM43.4048 16.0749L46.6883 17.3553L43.7002 19.0414C42.9911 17.7748 43.1888 16.6753 43.4048 16.0749ZM33.967 12.3949L36.708 13.4633C35.9063 13.9125 35.0117 14.1692 34.0944 14.2132C33.1771 14.2572 32.2621 14.0873 31.4214 13.7168L33.967 12.3949ZM29.9871 14.4694C31.1692 15.1581 32.5092 15.5274 33.8762 15.5412C35.1864 15.5412 36.6954 15.1782 38.2434 14.0683L42.1693 15.5931C41.8521 16.4506 41.5717 17.9753 42.5383 19.6949L39.426 21.4502L27.7391 15.6346L29.9871 14.4694ZM26.2795 16.3941L38.7813 22.6177V30.7671L34.8439 33.086V25.1705C34.8441 25.0468 34.8099 24.9255 34.7451 24.8203C34.6804 24.715 34.5876 24.6299 34.4773 24.5746L22.2835 18.4744L26.2795 16.3941ZM29.7595 36.0837C29.6706 36.091 29.5841 36.1162 29.5051 36.1578C29.4261 36.1993 29.3563 36.2565 29.2998 36.3257C29.2854 36.3438 29.272 36.3626 29.2596 36.3822L25.3199 38.701V30.9331L28.4988 29.1409L33.5176 26.3115V33.872L29.7595 36.0837ZM29.6159 41.4636L26.0773 39.7971L29.7446 37.6361C30.04 37.9934 30.4158 38.5858 30.4571 39.313C30.4974 40.0206 30.2146 40.7421 29.6159 41.4636ZM31.7811 39.2196C31.7151 38.3944 31.4086 37.6068 30.8996 36.955L34.2095 35.0037L46.3159 40.9968L41.9613 43.6614C38.7721 41.5062 35.5174 43.1002 34.4532 43.741L30.849 42.0433C31.5271 41.1328 31.8409 40.1855 31.7811 39.2196ZM18.1128 23.3991C18.0456 22.5643 17.7332 21.7683 17.2153 21.1113L20.8228 19.2327L32.766 25.2051L28.2 27.7798C25.0291 25.7053 21.8146 27.2969 20.7734 27.9273L17.1969 26.1985C17.8634 25.2961 18.1714 24.3568 18.1128 23.3991ZM16.012 21.7372C16.3142 22.0829 16.7441 22.7099 16.7889 23.4913C16.8279 24.1828 16.559 24.8997 15.974 25.6108L12.1332 23.7564L16.012 21.7372ZM23.9925 39.8616V51.963L11.3126 45.3741V43.741L20.2286 48.2046C20.3862 48.2837 20.5687 48.2967 20.7358 48.2408C20.9029 48.1849 21.0411 48.0648 21.1199 47.9067C21.1987 47.7487 21.2117 47.5657 21.1559 47.3981C21.1002 47.2305 20.9804 47.092 20.8228 47.0129L11.3138 42.2531V40.8505L20.2298 45.3153C20.3867 45.3887 20.566 45.3978 20.7295 45.3406C20.893 45.2834 21.0277 45.1644 21.105 45.0091C21.1824 44.8537 21.1961 44.6742 21.1434 44.5088C21.0907 44.3434 20.9757 44.2052 20.8228 44.1236L11.3126 39.3626V37.9634L20.2286 42.4271C20.3202 42.4735 20.4214 42.4976 20.524 42.4974C20.6742 42.4983 20.8203 42.4482 20.9385 42.3551C21.0566 42.2621 21.1398 42.1316 21.1745 41.985C21.2091 41.8384 21.1932 41.6844 21.1294 41.548C21.0655 41.4117 20.9574 41.3011 20.8228 41.2342L11.3126 36.4732V34.5992L20.2286 39.0629C20.3202 39.1093 20.4214 39.1334 20.524 39.1332C20.6734 39.1331 20.8184 39.0825 20.9355 38.9896C21.0527 38.8966 21.1352 38.7668 21.1698 38.6211C21.2043 38.4753 21.1889 38.3222 21.1259 38.1863C21.063 38.0505 20.9562 37.9399 20.8228 37.8724L11.3126 33.1113V31.2385L20.2286 35.7022C20.3868 35.7812 20.5698 35.7939 20.7374 35.7376C20.905 35.6813 21.0434 35.5606 21.1222 35.4019C21.201 35.2433 21.2137 35.0598 21.1576 34.8917C21.1014 34.7237 20.981 34.5849 20.8228 34.5059L11.3138 29.746V27.8766L20.2298 32.3403C20.3867 32.4137 20.566 32.4228 20.7295 32.3656C20.893 32.3084 21.0277 32.1894 21.105 32.0341C21.1824 31.8787 21.1961 31.6992 21.1434 31.5338C21.0907 31.3684 20.9757 31.2302 20.8228 31.1486L11.3138 26.3887V24.8374L15.835 27.0203L23.9879 30.9573L23.9925 39.8616ZM22.2468 28.6396C23.3041 28.159 25.0429 27.6864 26.8438 28.5428L24.6292 29.7909L22.2468 28.6396ZM37.9998 51.8178V59.248L25.3199 52.6568V50.006L34.4474 54.5769C34.5393 54.6235 34.6409 54.6476 34.7439 54.6472C34.8937 54.6477 35.0392 54.5973 35.1568 54.5043C35.2743 54.4112 35.357 54.281 35.3914 54.1349C35.4258 53.9887 35.4098 53.8351 35.3461 53.6992C35.2823 53.5633 35.1746 53.453 35.0404 53.3864L25.3199 48.5181V47.2988L34.4474 51.8685C34.6048 51.9474 34.7871 51.9603 34.954 51.9044C35.1209 51.8485 35.2589 51.7284 35.3375 51.5706C35.4162 51.4127 35.429 51.23 35.3733 51.0626C35.3176 50.8952 35.1979 50.7568 35.0404 50.6779L25.3199 45.8109V44.4106L34.4474 48.9814C34.5257 49.0232 34.6116 49.0489 34.6999 49.0569C34.7883 49.0649 34.8773 49.055 34.9618 49.0279C35.0463 49.0009 35.1245 48.9571 35.1919 48.8992C35.2592 48.8413 35.3143 48.7705 35.3539 48.6909C35.3935 48.6113 35.4168 48.5245 35.4225 48.4358C35.4281 48.347 35.416 48.258 35.3867 48.174C35.3575 48.09 35.3118 48.0127 35.2524 47.9467C35.1929 47.8807 35.1208 47.8274 35.0404 47.7897L25.3199 42.9192V40.9115L34.1015 45.0468C34.1705 45.097 34.2485 45.1334 34.3313 45.1539L38.0032 46.8827L37.9998 51.8178ZM38.6227 45.7095L35.9472 44.4463C37.0402 43.9553 38.8376 43.4863 40.6833 44.4463L38.6227 45.7095ZM47.0262 53.9177L39.3261 59.0959V54.6414L44.0737 51.4144C44.1458 51.3653 44.2075 51.3024 44.2553 51.2294C44.3031 51.1564 44.3362 51.0746 44.3525 50.9888C44.3688 50.9029 44.3681 50.8147 44.3505 50.7292C44.3328 50.6436 44.2985 50.5624 44.2495 50.4901C44.2006 50.4178 44.1379 50.3559 44.065 50.308C43.9922 50.26 43.9107 50.2269 43.8251 50.2105C43.7395 50.1941 43.6515 50.1948 43.5662 50.2125C43.4809 50.2302 43.3999 50.2646 43.3278 50.3138L39.3261 53.0337V52.1693L44.0737 48.9365C44.1458 48.8874 44.2075 48.8245 44.2553 48.7515C44.3031 48.6785 44.3362 48.5967 44.3525 48.5109C44.3688 48.425 44.3681 48.3368 44.3505 48.2512C44.3328 48.1657 44.2985 48.0844 44.2495 48.0122C44.2006 47.9399 44.1379 47.878 44.065 47.83C43.9922 47.7821 43.9107 47.749 43.8251 47.7326C43.7395 47.7162 43.6515 47.7169 43.5662 47.7346C43.4809 47.7523 43.3999 47.7867 43.3278 47.8358L39.3261 50.5604V49.4079L44.0507 46.4759C44.1248 46.4299 44.1891 46.3697 44.2401 46.2987C44.291 46.2278 44.3274 46.1475 44.3474 46.0624C44.3673 45.9773 44.3704 45.8891 44.3564 45.8029C44.3423 45.7166 44.3115 45.6339 44.2656 45.5596C44.2197 45.4853 44.1597 45.4208 44.089 45.3697C44.0182 45.3187 43.9381 45.2821 43.8533 45.2621C43.7685 45.2421 43.6805 45.239 43.5945 45.2531C43.5085 45.2672 43.4261 45.2981 43.3519 45.3441L39.3295 47.8439V46.8378L47.0296 42.1251L47.0262 53.9177ZM51.9519 50.6053L48.3536 53.0256V40.9357C48.3533 40.8116 48.3185 40.69 48.2531 40.5845C48.1877 40.4791 48.0944 40.394 47.9835 40.3387L35.5783 34.197L39.4686 31.9035L51.9531 38.2423L51.9519 50.6053ZM40.827 31.1025L44.4369 28.9738C45.532 29.6229 46.7781 29.9715 48.0502 29.9845C49.2511 29.9845 50.6326 29.6526 52.0542 28.6361L55.8882 30.5735C55.5549 31.3664 55.1446 33.0122 56.3479 34.8562L52.6622 37.1117L40.827 31.1025ZM60.6726 34.7467L55.8457 37.9104C55.7053 38.01 55.6089 38.1603 55.5768 38.3296C55.5447 38.499 55.5793 38.6743 55.6733 38.8186C55.7674 38.9629 55.9136 39.0651 56.0812 39.1035C56.2488 39.142 56.4247 39.1138 56.572 39.0249L60.6726 36.3372V37.3168L55.8457 40.4817C55.6984 40.5782 55.5955 40.7295 55.5595 40.9022C55.5235 41.0749 55.5574 41.2549 55.6537 41.4025C55.7501 41.5501 55.9009 41.6534 56.0731 41.6895C56.2453 41.7256 56.4248 41.6916 56.572 41.595L60.6726 38.9073V39.887L55.8457 43.0518C55.6984 43.1483 55.5955 43.2996 55.5595 43.4723C55.5235 43.645 55.5574 43.825 55.6537 43.9726C55.7501 44.1203 55.9009 44.2235 56.0731 44.2596C56.2453 44.2957 56.4248 44.2617 56.572 44.1651L60.6726 41.4774V44.7413L53.2793 49.7191V38.2942L60.6737 33.7694L60.6726 34.7467Z"/>
    </mask>
    <path d="M62 32.5673V32.557C62 32.557 62 32.5477 62 32.542C62 32.5362 62 32.5016 61.9931 32.482V32.4601C61.9884 32.434 61.9818 32.4082 61.9736 32.3829C61.9741 32.3803 61.9741 32.3775 61.9736 32.3749C61.9655 32.353 61.9575 32.3311 61.9471 32.3092C61.9445 32.302 61.9415 32.2951 61.9379 32.2884C61.9291 32.2701 61.9191 32.2524 61.9081 32.2354C61.905 32.2294 61.9016 32.2236 61.8977 32.2181C61.8838 32.197 61.8688 32.1766 61.8529 32.157L61.8403 32.1432C61.8265 32.1282 61.8127 32.1132 61.7977 32.0994L61.7793 32.0821C61.7621 32.0683 61.7449 32.0533 61.7265 32.0406L61.7173 32.0337C61.6954 32.0185 61.6723 32.005 61.6483 31.9934H61.6426L48.9006 25.5531V17.2447C48.9012 17.2335 48.9012 17.2224 48.9006 17.2112V17.1974C48.9006 17.1974 48.9006 17.1974 48.9006 17.1905C48.8986 17.1618 48.8947 17.1334 48.8891 17.1052C48.8891 17.1052 48.8891 17.1052 48.8891 17.0983C48.8832 17.0726 48.8759 17.0472 48.8673 17.0222C48.8649 17.017 48.8629 17.0116 48.8615 17.0061C48.8408 16.9529 48.8134 16.9025 48.7799 16.8563C48.7776 16.8516 48.7745 16.8473 48.7708 16.8436C48.7547 16.8228 48.7374 16.8021 48.7202 16.7836C48.7002 16.764 48.6791 16.7455 48.657 16.7283L48.6432 16.718C48.6232 16.7031 48.6025 16.6892 48.5811 16.6765L48.5708 16.6695C48.5455 16.6557 48.5202 16.6442 48.4938 16.6327H48.488L43.3255 14.6158H43.3117L34.1681 11.0453C34.0803 11.0109 33.9861 10.9958 33.8919 11.001C33.7978 11.0062 33.7058 11.0315 33.6222 11.0752L20.5206 17.8935L20.493 17.9085L10.3438 23.1882C10.3326 23.194 10.3219 23.2006 10.3116 23.2078L10.2966 23.2158C10.2748 23.2308 10.253 23.2458 10.2334 23.2619H10.2277C10.21 23.2772 10.1931 23.2933 10.1771 23.3103L10.1633 23.3253C10.1495 23.3399 10.1369 23.3549 10.1254 23.3703L10.1139 23.3864C10.1002 23.4057 10.0875 23.4257 10.076 23.4463V23.4463C10.0639 23.4687 10.0531 23.4918 10.0438 23.5155L10.0369 23.5339C10.03 23.5516 10.0242 23.5697 10.0197 23.5881C10.0172 23.5952 10.0153 23.6026 10.0139 23.61C10.0085 23.6309 10.0043 23.652 10.0013 23.6734C10.0013 23.6734 10.0013 23.6814 10.0013 23.6849C9.99957 23.7114 9.99957 23.7379 10.0013 23.7644V45.7786C10.0012 45.9004 10.0344 46.0198 10.0975 46.1239C10.1605 46.228 10.2509 46.3127 10.3587 46.3687L24.3396 53.6457L24.3637 53.6583L38.3492 60.9284C38.3987 60.9558 38.4516 60.9763 38.5066 60.9895C38.5236 60.9937 38.5409 60.9968 38.5583 60.9987H38.5848C38.6112 61.0004 38.6377 61.0004 38.6641 60.9987H38.6733C38.7009 60.9985 38.7286 60.9966 38.756 60.993L38.7939 60.9849L38.8468 60.9734L38.887 60.9584L38.9353 60.9399L38.9732 60.9203L39.0089 60.9019L39.0215 60.8927H39.033L61.7069 45.6449C61.7972 45.5841 61.8711 45.5019 61.9222 45.4056C61.9733 45.3093 62 45.2019 62 45.0929V32.5673ZM57.0754 31.1751L59.9727 32.6388L57.4845 34.1601C56.6237 32.8693 56.8605 31.7398 57.0754 31.1751ZM50.6774 27.9365C49.9391 28.3666 49.1089 28.6132 48.2562 28.6557C47.4034 28.6982 46.5529 28.5354 45.7758 28.1809L48.2605 26.716L50.6774 27.9365ZM47.5744 25.5773L40.1099 29.9788V22.5912L47.5744 18.3822V25.5773ZM43.4048 16.0749L46.6883 17.3553L43.7002 19.0414C42.9911 17.7748 43.1888 16.6753 43.4048 16.0749ZM33.967 12.3949L36.708 13.4633C35.9063 13.9125 35.0117 14.1692 34.0944 14.2132C33.1771 14.2572 32.2621 14.0873 31.4214 13.7168L33.967 12.3949ZM29.9871 14.4694C31.1692 15.1581 32.5092 15.5274 33.8762 15.5412C35.1864 15.5412 36.6954 15.1782 38.2434 14.0683L42.1693 15.5931C41.8521 16.4506 41.5717 17.9753 42.5383 19.6949L39.426 21.4502L27.7391 15.6346L29.9871 14.4694ZM26.2795 16.3941L38.7813 22.6177V30.7671L34.8439 33.086V25.1705C34.8441 25.0468 34.8099 24.9255 34.7451 24.8203C34.6804 24.715 34.5876 24.6299 34.4773 24.5746L22.2835 18.4744L26.2795 16.3941ZM29.7595 36.0837C29.6706 36.091 29.5841 36.1162 29.5051 36.1578C29.4261 36.1993 29.3563 36.2565 29.2998 36.3257C29.2854 36.3438 29.272 36.3626 29.2596 36.3822L25.3199 38.701V30.9331L28.4988 29.1409L33.5176 26.3115V33.872L29.7595 36.0837ZM29.6159 41.4636L26.0773 39.7971L29.7446 37.6361C30.04 37.9934 30.4158 38.5858 30.4571 39.313C30.4974 40.0206 30.2146 40.7421 29.6159 41.4636ZM31.7811 39.2196C31.7151 38.3944 31.4086 37.6068 30.8996 36.955L34.2095 35.0037L46.3159 40.9968L41.9613 43.6614C38.7721 41.5062 35.5174 43.1002 34.4532 43.741L30.849 42.0433C31.5271 41.1328 31.8409 40.1855 31.7811 39.2196ZM18.1128 23.3991C18.0456 22.5643 17.7332 21.7683 17.2153 21.1113L20.8228 19.2327L32.766 25.2051L28.2 27.7798C25.0291 25.7053 21.8146 27.2969 20.7734 27.9273L17.1969 26.1985C17.8634 25.2961 18.1714 24.3568 18.1128 23.3991ZM16.012 21.7372C16.3142 22.0829 16.7441 22.7099 16.7889 23.4913C16.8279 24.1828 16.559 24.8997 15.974 25.6108L12.1332 23.7564L16.012 21.7372ZM23.9925 39.8616V51.963L11.3126 45.3741V43.741L20.2286 48.2046C20.3862 48.2837 20.5687 48.2967 20.7358 48.2408C20.9029 48.1849 21.0411 48.0648 21.1199 47.9067C21.1987 47.7487 21.2117 47.5657 21.1559 47.3981C21.1002 47.2305 20.9804 47.092 20.8228 47.0129L11.3138 42.2531V40.8505L20.2298 45.3153C20.3867 45.3887 20.566 45.3978 20.7295 45.3406C20.893 45.2834 21.0277 45.1644 21.105 45.0091C21.1824 44.8537 21.1961 44.6742 21.1434 44.5088C21.0907 44.3434 20.9757 44.2052 20.8228 44.1236L11.3126 39.3626V37.9634L20.2286 42.4271C20.3202 42.4735 20.4214 42.4976 20.524 42.4974C20.6742 42.4983 20.8203 42.4482 20.9385 42.3551C21.0566 42.2621 21.1398 42.1316 21.1745 41.985C21.2091 41.8384 21.1932 41.6844 21.1294 41.548C21.0655 41.4117 20.9574 41.3011 20.8228 41.2342L11.3126 36.4732V34.5992L20.2286 39.0629C20.3202 39.1093 20.4214 39.1334 20.524 39.1332C20.6734 39.1331 20.8184 39.0825 20.9355 38.9896C21.0527 38.8966 21.1352 38.7668 21.1698 38.6211C21.2043 38.4753 21.1889 38.3222 21.1259 38.1863C21.063 38.0505 20.9562 37.9399 20.8228 37.8724L11.3126 33.1113V31.2385L20.2286 35.7022C20.3868 35.7812 20.5698 35.7939 20.7374 35.7376C20.905 35.6813 21.0434 35.5606 21.1222 35.4019C21.201 35.2433 21.2137 35.0598 21.1576 34.8917C21.1014 34.7237 20.981 34.5849 20.8228 34.5059L11.3138 29.746V27.8766L20.2298 32.3403C20.3867 32.4137 20.566 32.4228 20.7295 32.3656C20.893 32.3084 21.0277 32.1894 21.105 32.0341C21.1824 31.8787 21.1961 31.6992 21.1434 31.5338C21.0907 31.3684 20.9757 31.2302 20.8228 31.1486L11.3138 26.3887V24.8374L15.835 27.0203L23.9879 30.9573L23.9925 39.8616ZM22.2468 28.6396C23.3041 28.159 25.0429 27.6864 26.8438 28.5428L24.6292 29.7909L22.2468 28.6396ZM37.9998 51.8178V59.248L25.3199 52.6568V50.006L34.4474 54.5769C34.5393 54.6235 34.6409 54.6476 34.7439 54.6472C34.8937 54.6477 35.0392 54.5973 35.1568 54.5043C35.2743 54.4112 35.357 54.281 35.3914 54.1349C35.4258 53.9887 35.4098 53.8351 35.3461 53.6992C35.2823 53.5633 35.1746 53.453 35.0404 53.3864L25.3199 48.5181V47.2988L34.4474 51.8685C34.6048 51.9474 34.7871 51.9603 34.954 51.9044C35.1209 51.8485 35.2589 51.7284 35.3375 51.5706C35.4162 51.4127 35.429 51.23 35.3733 51.0626C35.3176 50.8952 35.1979 50.7568 35.0404 50.6779L25.3199 45.8109V44.4106L34.4474 48.9814C34.5257 49.0232 34.6116 49.0489 34.6999 49.0569C34.7883 49.0649 34.8773 49.055 34.9618 49.0279C35.0463 49.0009 35.1245 48.9571 35.1919 48.8992C35.2592 48.8413 35.3143 48.7705 35.3539 48.6909C35.3935 48.6113 35.4168 48.5245 35.4225 48.4358C35.4281 48.347 35.416 48.258 35.3867 48.174C35.3575 48.09 35.3118 48.0127 35.2524 47.9467C35.1929 47.8807 35.1208 47.8274 35.0404 47.7897L25.3199 42.9192V40.9115L34.1015 45.0468C34.1705 45.097 34.2485 45.1334 34.3313 45.1539L38.0032 46.8827L37.9998 51.8178ZM38.6227 45.7095L35.9472 44.4463C37.0402 43.9553 38.8376 43.4863 40.6833 44.4463L38.6227 45.7095ZM47.0262 53.9177L39.3261 59.0959V54.6414L44.0737 51.4144C44.1458 51.3653 44.2075 51.3024 44.2553 51.2294C44.3031 51.1564 44.3362 51.0746 44.3525 50.9888C44.3688 50.9029 44.3681 50.8147 44.3505 50.7292C44.3328 50.6436 44.2985 50.5624 44.2495 50.4901C44.2006 50.4178 44.1379 50.3559 44.065 50.308C43.9922 50.26 43.9107 50.2269 43.8251 50.2105C43.7395 50.1941 43.6515 50.1948 43.5662 50.2125C43.4809 50.2302 43.3999 50.2646 43.3278 50.3138L39.3261 53.0337V52.1693L44.0737 48.9365C44.1458 48.8874 44.2075 48.8245 44.2553 48.7515C44.3031 48.6785 44.3362 48.5967 44.3525 48.5109C44.3688 48.425 44.3681 48.3368 44.3505 48.2512C44.3328 48.1657 44.2985 48.0844 44.2495 48.0122C44.2006 47.9399 44.1379 47.878 44.065 47.83C43.9922 47.7821 43.9107 47.749 43.8251 47.7326C43.7395 47.7162 43.6515 47.7169 43.5662 47.7346C43.4809 47.7523 43.3999 47.7867 43.3278 47.8358L39.3261 50.5604V49.4079L44.0507 46.4759C44.1248 46.4299 44.1891 46.3697 44.2401 46.2987C44.291 46.2278 44.3274 46.1475 44.3474 46.0624C44.3673 45.9773 44.3704 45.8891 44.3564 45.8029C44.3423 45.7166 44.3115 45.6339 44.2656 45.5596C44.2197 45.4853 44.1597 45.4208 44.089 45.3697C44.0182 45.3187 43.9381 45.2821 43.8533 45.2621C43.7685 45.2421 43.6805 45.239 43.5945 45.2531C43.5085 45.2672 43.4261 45.2981 43.3519 45.3441L39.3295 47.8439V46.8378L47.0296 42.1251L47.0262 53.9177ZM51.9519 50.6053L48.3536 53.0256V40.9357C48.3533 40.8116 48.3185 40.69 48.2531 40.5845C48.1877 40.4791 48.0944 40.394 47.9835 40.3387L35.5783 34.197L39.4686 31.9035L51.9531 38.2423L51.9519 50.6053ZM40.827 31.1025L44.4369 28.9738C45.532 29.6229 46.7781 29.9715 48.0502 29.9845C49.2511 29.9845 50.6326 29.6526 52.0542 28.6361L55.8882 30.5735C55.5549 31.3664 55.1446 33.0122 56.3479 34.8562L52.6622 37.1117L40.827 31.1025ZM60.6726 34.7467L55.8457 37.9104C55.7053 38.01 55.6089 38.1603 55.5768 38.3296C55.5447 38.499 55.5793 38.6743 55.6733 38.8186C55.7674 38.9629 55.9136 39.0651 56.0812 39.1035C56.2488 39.142 56.4247 39.1138 56.572 39.0249L60.6726 36.3372V37.3168L55.8457 40.4817C55.6984 40.5782 55.5955 40.7295 55.5595 40.9022C55.5235 41.0749 55.5574 41.2549 55.6537 41.4025C55.7501 41.5501 55.9009 41.6534 56.0731 41.6895C56.2453 41.7256 56.4248 41.6916 56.572 41.595L60.6726 38.9073V39.887L55.8457 43.0518C55.6984 43.1483 55.5955 43.2996 55.5595 43.4723C55.5235 43.645 55.5574 43.825 55.6537 43.9726C55.7501 44.1203 55.9009 44.2235 56.0731 44.2596C56.2453 44.2957 56.4248 44.2617 56.572 44.1651L60.6726 41.4774V44.7413L53.2793 49.7191V38.2942L60.6737 33.7694L60.6726 34.7467Z"
          fill="black"/>
    <path d="M62 32.5673V32.557C62 32.557 62 32.5477 62 32.542C62 32.5362 62 32.5016 61.9931 32.482V32.4601C61.9884 32.434 61.9818 32.4082 61.9736 32.3829C61.9741 32.3803 61.9741 32.3775 61.9736 32.3749C61.9655 32.353 61.9575 32.3311 61.9471 32.3092C61.9445 32.302 61.9415 32.2951 61.9379 32.2884C61.9291 32.2701 61.9191 32.2524 61.9081 32.2354C61.905 32.2294 61.9016 32.2236 61.8977 32.2181C61.8838 32.197 61.8688 32.1766 61.8529 32.157L61.8403 32.1432C61.8265 32.1282 61.8127 32.1132 61.7977 32.0994L61.7793 32.0821C61.7621 32.0683 61.7449 32.0533 61.7265 32.0406L61.7173 32.0337C61.6954 32.0185 61.6723 32.005 61.6483 31.9934H61.6426L48.9006 25.5531V17.2447C48.9012 17.2335 48.9012 17.2224 48.9006 17.2112V17.1974C48.9006 17.1974 48.9006 17.1974 48.9006 17.1905C48.8986 17.1618 48.8947 17.1334 48.8891 17.1052C48.8891 17.1052 48.8891 17.1052 48.8891 17.0983C48.8832 17.0726 48.8759 17.0472 48.8673 17.0222C48.8649 17.017 48.8629 17.0116 48.8615 17.0061C48.8408 16.9529 48.8134 16.9025 48.7799 16.8563C48.7776 16.8516 48.7745 16.8473 48.7708 16.8436C48.7547 16.8228 48.7374 16.8021 48.7202 16.7836C48.7002 16.764 48.6791 16.7455 48.657 16.7283L48.6432 16.718C48.6232 16.7031 48.6025 16.6892 48.5811 16.6765L48.5708 16.6695C48.5455 16.6557 48.5202 16.6442 48.4938 16.6327H48.488L43.3255 14.6158H43.3117L34.1681 11.0453C34.0803 11.0109 33.9861 10.9958 33.8919 11.001C33.7978 11.0062 33.7058 11.0315 33.6222 11.0752L20.5206 17.8935L20.493 17.9085L10.3438 23.1882C10.3326 23.194 10.3219 23.2006 10.3116 23.2078L10.2966 23.2158C10.2748 23.2308 10.253 23.2458 10.2334 23.2619H10.2277C10.21 23.2772 10.1931 23.2933 10.1771 23.3103L10.1633 23.3253C10.1495 23.3399 10.1369 23.3549 10.1254 23.3703L10.1139 23.3864C10.1002 23.4057 10.0875 23.4257 10.076 23.4463V23.4463C10.0639 23.4687 10.0531 23.4918 10.0438 23.5155L10.0369 23.5339C10.03 23.5516 10.0242 23.5697 10.0197 23.5881C10.0172 23.5952 10.0153 23.6026 10.0139 23.61C10.0085 23.6309 10.0043 23.652 10.0013 23.6734C10.0013 23.6734 10.0013 23.6814 10.0013 23.6849C9.99957 23.7114 9.99957 23.7379 10.0013 23.7644V45.7786C10.0012 45.9004 10.0344 46.0198 10.0975 46.1239C10.1605 46.228 10.2509 46.3127 10.3587 46.3687L24.3396 53.6457L24.3637 53.6583L38.3492 60.9284C38.3987 60.9558 38.4516 60.9763 38.5066 60.9895C38.5236 60.9937 38.5409 60.9968 38.5583 60.9987H38.5848C38.6112 61.0004 38.6377 61.0004 38.6641 60.9987H38.6733C38.7009 60.9985 38.7286 60.9966 38.756 60.993L38.7939 60.9849L38.8468 60.9734L38.887 60.9584L38.9353 60.9399L38.9732 60.9203L39.0089 60.9019L39.0215 60.8927H39.033L61.7069 45.6449C61.7972 45.5841 61.8711 45.5019 61.9222 45.4056C61.9733 45.3093 62 45.2019 62 45.0929V32.5673ZM57.0754 31.1751L59.9727 32.6388L57.4845 34.1601C56.6237 32.8693 56.8605 31.7398 57.0754 31.1751ZM50.6774 27.9365C49.9391 28.3666 49.1089 28.6132 48.2562 28.6557C47.4034 28.6982 46.5529 28.5354 45.7758 28.1809L48.2605 26.716L50.6774 27.9365ZM47.5744 25.5773L40.1099 29.9788V22.5912L47.5744 18.3822V25.5773ZM43.4048 16.0749L46.6883 17.3553L43.7002 19.0414C42.9911 17.7748 43.1888 16.6753 43.4048 16.0749ZM33.967 12.3949L36.708 13.4633C35.9063 13.9125 35.0117 14.1692 34.0944 14.2132C33.1771 14.2572 32.2621 14.0873 31.4214 13.7168L33.967 12.3949ZM29.9871 14.4694C31.1692 15.1581 32.5092 15.5274 33.8762 15.5412C35.1864 15.5412 36.6954 15.1782 38.2434 14.0683L42.1693 15.5931C41.8521 16.4506 41.5717 17.9753 42.5383 19.6949L39.426 21.4502L27.7391 15.6346L29.9871 14.4694ZM26.2795 16.3941L38.7813 22.6177V30.7671L34.8439 33.086V25.1705C34.8441 25.0468 34.8099 24.9255 34.7451 24.8203C34.6804 24.715 34.5876 24.6299 34.4773 24.5746L22.2835 18.4744L26.2795 16.3941ZM29.7595 36.0837C29.6706 36.091 29.5841 36.1162 29.5051 36.1578C29.4261 36.1993 29.3563 36.2565 29.2998 36.3257C29.2854 36.3438 29.272 36.3626 29.2596 36.3822L25.3199 38.701V30.9331L28.4988 29.1409L33.5176 26.3115V33.872L29.7595 36.0837ZM29.6159 41.4636L26.0773 39.7971L29.7446 37.6361C30.04 37.9934 30.4158 38.5858 30.4571 39.313C30.4974 40.0206 30.2146 40.7421 29.6159 41.4636ZM31.7811 39.2196C31.7151 38.3944 31.4086 37.6068 30.8996 36.955L34.2095 35.0037L46.3159 40.9968L41.9613 43.6614C38.7721 41.5062 35.5174 43.1002 34.4532 43.741L30.849 42.0433C31.5271 41.1328 31.8409 40.1855 31.7811 39.2196ZM18.1128 23.3991C18.0456 22.5643 17.7332 21.7683 17.2153 21.1113L20.8228 19.2327L32.766 25.2051L28.2 27.7798C25.0291 25.7053 21.8146 27.2969 20.7734 27.9273L17.1969 26.1985C17.8634 25.2961 18.1714 24.3568 18.1128 23.3991ZM16.012 21.7372C16.3142 22.0829 16.7441 22.7099 16.7889 23.4913C16.8279 24.1828 16.559 24.8997 15.974 25.6108L12.1332 23.7564L16.012 21.7372ZM23.9925 39.8616V51.963L11.3126 45.3741V43.741L20.2286 48.2046C20.3862 48.2837 20.5687 48.2967 20.7358 48.2408C20.9029 48.1849 21.0411 48.0648 21.1199 47.9067C21.1987 47.7487 21.2117 47.5657 21.1559 47.3981C21.1002 47.2305 20.9804 47.092 20.8228 47.0129L11.3138 42.2531V40.8505L20.2298 45.3153C20.3867 45.3887 20.566 45.3978 20.7295 45.3406C20.893 45.2834 21.0277 45.1644 21.105 45.0091C21.1824 44.8537 21.1961 44.6742 21.1434 44.5088C21.0907 44.3434 20.9757 44.2052 20.8228 44.1236L11.3126 39.3626V37.9634L20.2286 42.4271C20.3202 42.4735 20.4214 42.4976 20.524 42.4974C20.6742 42.4983 20.8203 42.4482 20.9385 42.3551C21.0566 42.2621 21.1398 42.1316 21.1745 41.985C21.2091 41.8384 21.1932 41.6844 21.1294 41.548C21.0655 41.4117 20.9574 41.3011 20.8228 41.2342L11.3126 36.4732V34.5992L20.2286 39.0629C20.3202 39.1093 20.4214 39.1334 20.524 39.1332C20.6734 39.1331 20.8184 39.0825 20.9355 38.9896C21.0527 38.8966 21.1352 38.7668 21.1698 38.6211C21.2043 38.4753 21.1889 38.3222 21.1259 38.1863C21.063 38.0505 20.9562 37.9399 20.8228 37.8724L11.3126 33.1113V31.2385L20.2286 35.7022C20.3868 35.7812 20.5698 35.7939 20.7374 35.7376C20.905 35.6813 21.0434 35.5606 21.1222 35.4019C21.201 35.2433 21.2137 35.0598 21.1576 34.8917C21.1014 34.7237 20.981 34.5849 20.8228 34.5059L11.3138 29.746V27.8766L20.2298 32.3403C20.3867 32.4137 20.566 32.4228 20.7295 32.3656C20.893 32.3084 21.0277 32.1894 21.105 32.0341C21.1824 31.8787 21.1961 31.6992 21.1434 31.5338C21.0907 31.3684 20.9757 31.2302 20.8228 31.1486L11.3138 26.3887V24.8374L15.835 27.0203L23.9879 30.9573L23.9925 39.8616ZM22.2468 28.6396C23.3041 28.159 25.0429 27.6864 26.8438 28.5428L24.6292 29.7909L22.2468 28.6396ZM37.9998 51.8178V59.248L25.3199 52.6568V50.006L34.4474 54.5769C34.5393 54.6235 34.6409 54.6476 34.7439 54.6472C34.8937 54.6477 35.0392 54.5973 35.1568 54.5043C35.2743 54.4112 35.357 54.281 35.3914 54.1349C35.4258 53.9887 35.4098 53.8351 35.3461 53.6992C35.2823 53.5633 35.1746 53.453 35.0404 53.3864L25.3199 48.5181V47.2988L34.4474 51.8685C34.6048 51.9474 34.7871 51.9603 34.954 51.9044C35.1209 51.8485 35.2589 51.7284 35.3375 51.5706C35.4162 51.4127 35.429 51.23 35.3733 51.0626C35.3176 50.8952 35.1979 50.7568 35.0404 50.6779L25.3199 45.8109V44.4106L34.4474 48.9814C34.5257 49.0232 34.6116 49.0489 34.6999 49.0569C34.7883 49.0649 34.8773 49.055 34.9618 49.0279C35.0463 49.0009 35.1245 48.9571 35.1919 48.8992C35.2592 48.8413 35.3143 48.7705 35.3539 48.6909C35.3935 48.6113 35.4168 48.5245 35.4225 48.4358C35.4281 48.347 35.416 48.258 35.3867 48.174C35.3575 48.09 35.3118 48.0127 35.2524 47.9467C35.1929 47.8807 35.1208 47.8274 35.0404 47.7897L25.3199 42.9192V40.9115L34.1015 45.0468C34.1705 45.097 34.2485 45.1334 34.3313 45.1539L38.0032 46.8827L37.9998 51.8178ZM38.6227 45.7095L35.9472 44.4463C37.0402 43.9553 38.8376 43.4863 40.6833 44.4463L38.6227 45.7095ZM47.0262 53.9177L39.3261 59.0959V54.6414L44.0737 51.4144C44.1458 51.3653 44.2075 51.3024 44.2553 51.2294C44.3031 51.1564 44.3362 51.0746 44.3525 50.9888C44.3688 50.9029 44.3681 50.8147 44.3505 50.7292C44.3328 50.6436 44.2985 50.5624 44.2495 50.4901C44.2006 50.4178 44.1379 50.3559 44.065 50.308C43.9922 50.26 43.9107 50.2269 43.8251 50.2105C43.7395 50.1941 43.6515 50.1948 43.5662 50.2125C43.4809 50.2302 43.3999 50.2646 43.3278 50.3138L39.3261 53.0337V52.1693L44.0737 48.9365C44.1458 48.8874 44.2075 48.8245 44.2553 48.7515C44.3031 48.6785 44.3362 48.5967 44.3525 48.5109C44.3688 48.425 44.3681 48.3368 44.3505 48.2512C44.3328 48.1657 44.2985 48.0844 44.2495 48.0122C44.2006 47.9399 44.1379 47.878 44.065 47.83C43.9922 47.7821 43.9107 47.749 43.8251 47.7326C43.7395 47.7162 43.6515 47.7169 43.5662 47.7346C43.4809 47.7523 43.3999 47.7867 43.3278 47.8358L39.3261 50.5604V49.4079L44.0507 46.4759C44.1248 46.4299 44.1891 46.3697 44.2401 46.2987C44.291 46.2278 44.3274 46.1475 44.3474 46.0624C44.3673 45.9773 44.3704 45.8891 44.3564 45.8029C44.3423 45.7166 44.3115 45.6339 44.2656 45.5596C44.2197 45.4853 44.1597 45.4208 44.089 45.3697C44.0182 45.3187 43.9381 45.2821 43.8533 45.2621C43.7685 45.2421 43.6805 45.239 43.5945 45.2531C43.5085 45.2672 43.4261 45.2981 43.3519 45.3441L39.3295 47.8439V46.8378L47.0296 42.1251L47.0262 53.9177ZM51.9519 50.6053L48.3536 53.0256V40.9357C48.3533 40.8116 48.3185 40.69 48.2531 40.5845C48.1877 40.4791 48.0944 40.394 47.9835 40.3387L35.5783 34.197L39.4686 31.9035L51.9531 38.2423L51.9519 50.6053ZM40.827 31.1025L44.4369 28.9738C45.532 29.6229 46.7781 29.9715 48.0502 29.9845C49.2511 29.9845 50.6326 29.6526 52.0542 28.6361L55.8882 30.5735C55.5549 31.3664 55.1446 33.0122 56.3479 34.8562L52.6622 37.1117L40.827 31.1025ZM60.6726 34.7467L55.8457 37.9104C55.7053 38.01 55.6089 38.1603 55.5768 38.3296C55.5447 38.499 55.5793 38.6743 55.6733 38.8186C55.7674 38.9629 55.9136 39.0651 56.0812 39.1035C56.2488 39.142 56.4247 39.1138 56.572 39.0249L60.6726 36.3372V37.3168L55.8457 40.4817C55.6984 40.5782 55.5955 40.7295 55.5595 40.9022C55.5235 41.0749 55.5574 41.2549 55.6537 41.4025C55.7501 41.5501 55.9009 41.6534 56.0731 41.6895C56.2453 41.7256 56.4248 41.6916 56.572 41.595L60.6726 38.9073V39.887L55.8457 43.0518C55.6984 43.1483 55.5955 43.2996 55.5595 43.4723C55.5235 43.645 55.5574 43.825 55.6537 43.9726C55.7501 44.1203 55.9009 44.2235 56.0731 44.2596C56.2453 44.2957 56.4248 44.2617 56.572 44.1651L60.6726 41.4774V44.7413L53.2793 49.7191V38.2942L60.6737 33.7694L60.6726 34.7467Z"
          stroke="black" stroke-width="0.1" mask="url(#path-1-outside-1)"/>
</svg>
