<svg width="72" height="72" viewBox="0 0 72 72" fill="none" xmlns="http://www.w3.org/2000/svg">
    <path d="M6.49316 41.1823V45.4169L6.83816 45.9916L25.4764 55.9207L25.4806 55.9201C25.5724 55.9684 25.6772 55.998 25.7842 55.998C25.8911 55.998 26.0002 55.9711 26.1009 55.9145L68.2599 32.3938L68.5932 31.8246V27.6742C68.5932 27.4286 68.4517 27.223 68.253 27.1119V27.1008L49.6147 17.0268L48.9875 17.031L6.82643 40.5538C6.59528 40.6821 6.47522 40.9319 6.49661 41.1803L6.49316 41.1823ZM8.44586 41.1403L36.0334 25.7491C32.6124 31.6652 24.8016 36.1647 19.9323 37.575C14.7124 39.0861 12.7873 40.0618 9.89486 41.911L8.44586 41.1403ZM53.4849 20.5996C52.0511 21.7616 50.669 22.3302 48.4893 23.2161C47.9566 23.4321 47.377 23.6674 46.7374 23.9358C40.6102 26.5047 37.3776 29.7415 36.9856 32.0543C36.6648 33.9436 30.1609 36.3793 24.8637 38.3244C20.5574 39.9079 16.837 41.2727 16.0262 42.4126C15.2086 43.5594 14.6545 44.0555 14.3233 44.2701L10.5538 42.2629C13.0164 40.6987 14.9526 39.6933 20.1145 38.2002C25.3343 36.6877 33.8579 31.6886 37.0753 25.1681L49.3084 18.3427L53.4849 20.5996ZM23.1691 48.9828C25.5137 47.9816 31.1103 45.4748 32.4027 43.8609C33.3266 42.7031 36.0245 43.2427 37.6743 43.814L25.8525 50.4125L23.1691 48.9828ZM17.6153 46.0241C18.1569 45.4486 19.2071 44.5778 20.8569 44.188C25.375 43.1212 40.3377 35.1883 40.5074 35.1069C41.5873 34.5784 41.3527 33.8214 41.1643 33.2115C40.9117 32.4028 40.653 31.5665 42.4049 30.3466C43.6007 29.5131 47.6572 27.9337 50.1281 29.1446C50.4489 29.3026 50.6138 29.5641 50.6283 29.9478C50.6794 31.1898 49.2325 33.1694 47.5268 34.1851C46.814 34.6108 45.4388 35.2187 44.2513 34.5142C43.907 34.3086 43.8836 34.096 43.9022 33.9346C44.0181 32.9224 46.4524 30.3804 47.2308 30.132C46.2965 30.4308 43.413 32.4952 43.2543 33.8601C43.215 34.2113 43.2971 34.7053 43.9195 35.0731C45.0131 35.7244 46.4138 35.6078 47.8607 34.7446C49.7665 33.6089 51.3259 31.4119 51.279 29.9395C52.2505 29.6283 56.5182 28.1213 59.4859 23.844L63.4968 26.0134C62.8827 26.9911 61.2164 27.6563 59.323 28.4084C56.9674 29.3454 54.2998 30.4073 52.6224 32.4511C52.0339 33.168 52.8363 34.3079 53.4615 35.0096L42.1075 41.3445L38.8659 40.4779L40.8352 42.0552L38.4305 43.3952C37.1381 42.8321 33.8351 41.6364 32.4379 43.3807C31.1524 44.987 24.3918 47.8001 22.4363 48.5923L17.6153 46.0241ZM42.2379 41.9503L41.7363 44.0983L41.5976 42.3547L41.1546 41.9462C41.1498 41.9379 41.1436 41.9331 41.136 41.9289L40.2901 41.1478L42.2379 41.9503ZM14.9567 44.6075C15.3755 44.2673 15.902 43.7091 16.5568 42.7887C17.2523 41.8158 20.7092 40.3461 24.5629 38.9288C30.5914 36.7153 37.352 34.43 37.6322 32.1316C37.9447 29.5634 41.0939 27.0063 46.9879 24.5354C47.6254 24.2677 50.1012 23.2437 50.6311 23.0284C52.9695 22.0776 52.6507 22.2225 54.1094 20.9371L58.288 23.1961C55.5991 27.058 52.107 28.8334 51.1189 29.2778C50.9754 28.9707 50.7463 28.7223 50.4144 28.5595C47.6655 27.2092 43.3633 28.8859 42.033 29.8111C39.8892 31.3022 40.2804 32.567 40.5419 33.4033C40.7296 34.0112 40.8007 34.2375 40.2204 34.5204C40.0534 34.6018 23.3257 42.7279 20.6623 43.5677C18.7903 44.1562 17.618 45.1395 17.0488 45.7219L14.9567 44.6075ZM66.5901 27.6832L54.0466 34.6805C53.4283 34.0029 52.8791 33.1639 53.1247 32.8623C54.6952 30.949 57.3158 29.5828 59.599 28.6754C61.6035 27.8771 63.3499 27.4079 64.0612 26.3156L66.5901 27.6832ZM67.2904 31.4416L26.4342 54.2371V51.5779L41.2174 43.3296L41.737 45.1567L42.7285 42.4492L67.2911 28.7817V31.4416H67.2904ZM7.79588 42.267L25.1314 51.5027V54.2613L7.79588 45.0263V42.267Z"
          fill="black"/>
</svg>
