<svg width="43" height="47" viewBox="0 0 43 47" fill="none" xmlns="http://www.w3.org/2000/svg">
    <path d="M18.2303 8.37433C18.355 8.57969 18.53 8.74906 18.7382 8.86614C18.9464 8.98321 19.1809 9.04404 19.4191 9.04277H23.3816C23.6054 9.06121 23.829 9.00613 24.0194 8.88572C24.2097 8.7653 24.3567 8.58596 24.4383 8.37433C24.9622 7.54704 25.3628 6.6461 25.6271 5.70058C25.7717 5.32911 25.8233 4.92718 25.7772 4.53063C25.7311 4.13408 25.5888 3.75524 25.3629 3.42789C25.0421 3.03245 24.639 2.71357 24.1823 2.49403C23.7257 2.27449 23.2267 2.1597 22.7212 2.15786V1.95733C22.7212 1.60277 22.582 1.26273 22.3343 1.01201C22.0866 0.761302 21.7507 0.620453 21.4003 0.620453C21.05 0.620453 20.7141 0.761302 20.4664 1.01201C20.2187 1.26273 20.0795 1.60277 20.0795 1.95733V2.17123C19.131 2.20325 18.2316 2.60571 17.5699 3.2942C17.3177 3.60792 17.1392 3.97544 17.0476 4.36909C16.9561 4.76275 16.954 5.17229 17.0415 5.56689C17.3075 6.55386 17.7076 7.49869 18.2303 8.37433Z"
          fill="black"/>
    <path d="M0.927421 21.4759C1.45576 24.5507 2.64453 28.5614 5.68251 30.2993C8.72048 32.0372 10.7018 30.7004 12.4189 29.7645C13.8718 28.9624 14.6643 28.695 15.3248 29.3635L12.683 32.7057C12.2499 33.2597 12.0252 33.9514 12.049 34.6575C11.8354 34.7051 11.6388 34.8115 11.4811 34.965L9.77716 36.7698L8.77331 35.7404C8.92849 35.2326 8.9422 34.6914 8.81294 34.1762C8.77274 34.0034 8.69891 33.8403 8.59577 33.6967C8.49263 33.553 8.36225 33.4316 8.21223 33.3395C8.06221 33.2474 7.89557 33.1865 7.72203 33.1603C7.54849 33.1341 7.37153 33.1432 7.20149 33.1869C6.86714 33.2753 6.58032 33.4927 6.40253 33.7926C6.22475 34.0925 6.17016 34.451 6.25047 34.7912C6.23006 34.9289 6.16502 35.0559 6.06555 35.1522L5.94668 35.2992C5.94668 35.2992 5.78817 35.2992 5.73534 35.2992C5.40095 35.2293 5.05279 35.2931 4.76389 35.4773C4.475 35.6615 4.26781 35.9518 4.1858 36.2873C4.10379 36.6228 4.15333 36.9774 4.32402 37.2767C4.49471 37.576 4.77329 37.7968 5.10133 37.8927C5.33376 37.9567 5.57373 37.9882 5.81459 37.9863C6.2008 37.9814 6.58229 37.8996 6.93732 37.7457L8.45631 39.2697C8.51565 39.4175 8.60065 39.5533 8.70727 39.6708C8.81889 39.7844 8.95431 39.8712 9.10353 39.9248L10.9527 41.8098C11.0755 41.9351 11.2216 42.0345 11.3826 42.1024C11.5435 42.1703 11.7162 42.2052 11.8905 42.2052C12.0649 42.2052 12.2375 42.1703 12.3985 42.1024C12.5595 42.0345 12.7056 41.9351 12.8283 41.8098C12.9521 41.6855 13.0504 41.5376 13.1175 41.3747C13.1845 41.2118 13.2191 41.0371 13.2191 40.8606C13.2191 40.6841 13.1845 40.5094 13.1175 40.3465C13.0504 40.1836 12.9521 40.0357 12.8283 39.9114L11.5735 38.6548L13.251 36.9703C14.9549 38.1468 19.1552 35.6334 19.1552 35.6334C20.0798 38.5746 14.4002 41.1146 14.2681 42.9862C14.2681 44.4568 16.9098 44.4568 18.759 45.1252C19.4194 45.3926 21.4007 46.4621 21.4007 46.4621C21.4007 46.4621 23.382 45.3926 24.0424 45.1252C26.0237 44.4568 28.5333 44.4568 28.5333 42.9862C28.5333 41.2483 22.7216 38.7082 23.6462 35.6334C23.6462 35.6334 27.9786 38.2002 29.6296 36.9035L31.9015 39.3098C32.0368 40.1529 32.4528 40.9237 33.0806 41.4945C33.7083 42.0652 34.5101 42.4015 35.3527 42.4476C36.1953 42.4936 37.0281 42.2467 37.713 41.7476C38.3978 41.2486 38.8934 40.5276 39.1176 39.7042C39.3418 38.8808 39.281 38.0046 38.9454 37.221C38.6098 36.4373 38.0194 35.7935 37.2725 35.3962C36.5255 34.9989 35.6667 34.8721 34.8387 35.0368C34.0107 35.2016 33.2633 35.6479 32.7204 36.3019L31.4656 34.965C31.2685 34.7658 31.0143 34.6348 30.7392 34.5907C30.7215 33.8829 30.4545 33.2049 29.9863 32.6789L27.3446 29.3367C28.005 28.6683 28.7975 28.9357 30.2504 29.7378C31.9676 30.6736 33.9488 31.8768 36.9868 30.2726C40.0248 28.6683 41.2136 24.524 41.7419 21.4492C42.3788 17.4887 42.1989 13.4377 41.2136 9.551C41.1714 9.39631 41.0837 9.2583 40.9621 9.15539C40.8404 9.05248 40.6907 8.98957 40.5328 8.97504C40.3749 8.96051 40.2164 8.99507 40.0785 9.07409C39.9405 9.15311 39.8296 9.27284 39.7606 9.41731C39.2323 10.3531 38.3077 11.9574 37.3831 13.2942C34.7414 17.1712 33.1563 19.3102 29.3258 19.4439C28.8832 19.435 28.4474 19.3312 28.0473 19.1393C27.6472 18.9474 27.2918 18.6718 27.0047 18.3307C26.7176 17.9896 26.5052 17.5907 26.3817 17.1603C26.2581 16.73 26.2261 16.2781 26.2879 15.8343C26.3075 15.2213 26.4894 14.625 26.8147 14.1076C27.1401 13.5902 27.5968 13.1708 28.1371 12.8932C29.1938 12.2247 30.5146 12.3584 32.7601 13.5616C32.7601 13.5616 33.5526 8.74887 30.1184 8.74887C25.0991 8.74887 21.797 14.7648 21.4007 15.5669C21.0044 14.7648 17.7023 8.74887 12.683 8.74887C9.38091 8.74887 10.0413 13.5616 10.0413 13.5616C12.2868 12.4921 13.6076 12.3584 14.6643 12.8932C15.1852 13.1948 15.6257 13.6202 15.9479 14.1326C16.27 14.645 16.4642 15.229 16.5135 15.8343C16.5687 16.2784 16.5323 16.7292 16.4065 17.1583C16.2808 17.5874 16.0684 17.9854 15.7829 18.3272C15.4974 18.6689 15.1449 18.947 14.7477 19.1438C14.3506 19.3406 13.9174 19.4519 13.4756 19.4706C9.64508 19.4706 8.06005 17.3316 5.41833 13.321C4.55307 12.0759 3.75925 10.7814 3.04079 9.44405C2.9718 9.29958 2.86092 9.17985 2.72295 9.10083C2.58498 9.0218 2.42647 8.98725 2.26859 9.00178C2.11071 9.0163 1.96096 9.07922 1.83933 9.18213C1.7177 9.28504 1.62997 9.42305 1.58785 9.57773C0.611553 13.4636 0.387289 17.5039 0.927421 21.4759ZM35.5339 37.6521C35.7429 37.6521 35.9472 37.7148 36.1209 37.8324C36.2947 37.9499 36.4301 38.1169 36.5101 38.3123C36.5901 38.5078 36.611 38.7228 36.5703 38.9303C36.5295 39.1377 36.4288 39.3283 36.2811 39.4779C36.1333 39.6274 35.945 39.7293 35.74 39.7706C35.535 39.8118 35.3226 39.7906 35.1295 39.7097C34.9364 39.6287 34.7714 39.4917 34.6553 39.3158C34.5392 39.1399 34.4772 38.9331 34.4772 38.7216C34.4772 38.438 34.5885 38.1659 34.7867 37.9654C34.9849 37.7648 35.2536 37.6521 35.5339 37.6521Z"
          fill="black"/>
</svg>
