<svg width="94" height="56" viewBox="0 0 94 56" fill="none" xmlns="http://www.w3.org/2000/svg">
<g clip-path="url(#clip0)">
<path d="M24.6892 23.26H18.5931V16.9512H24.8695L33.7489 13.3059H17.5C16.0126 13.3059 14.8407 14.4345 14.8407 16.0483V31.5663V41.5316H5.84863L8.60936 45.1882H14.8407V56.0112H18.5931V37.7509V26.9165H27.4499L24.6892 23.26Z" fill="#191314"/>
<path d="M0.744141 56H4.49648V45.1657V41.5204V34.3313L0.744141 31.555V56Z" fill="#191314"/>
<path d="M46.1098 37.7509C47.8226 37.7509 49.603 37.0174 50.0424 36.7239C50.2314 36.6047 50.4122 36.4727 50.5833 36.3289V37.5591H54.0877V29.9073C54.0877 27.3906 53.2877 25.4156 51.7214 23.9936C50.1947 22.583 48.1867 21.8117 46.1098 21.838C43.8899 21.838 41.9969 22.6054 40.4306 24.1741C38.8643 25.7429 38.1318 27.605 38.1318 29.7945C38.1318 31.9839 38.8981 33.8799 40.4306 35.4486C41.9631 37.0174 43.8449 37.7509 46.1098 37.7509ZM46.1098 25.2012C48.6902 25.2012 50.5833 27.1649 50.5833 29.7945C50.5833 32.4241 48.6226 34.3878 46.1098 34.3878C43.597 34.3878 41.625 32.4579 41.625 29.7945C41.625 27.131 43.597 25.2012 46.1098 25.2012Z" fill="#191314"/>
<path d="M67.5529 37.7509V28.2596C67.5529 26.3297 68.2741 25.3817 69.7051 25.3817C71.1362 25.3817 71.8123 26.3297 71.8123 28.2596V37.7509H75.3055V28.2596C75.3055 24.208 73.0518 22.0298 69.8854 22.0298C68.0938 22.0298 66.7529 22.6844 65.8063 23.9935C64.8936 22.6844 63.5865 22.0298 61.7948 22.0298C58.5946 22.0298 56.2959 24.1741 56.2959 28.2596V37.7509H59.7891V28.2596C59.7891 26.3297 60.4877 25.3817 61.9075 25.3817C63.3273 25.3817 64.0597 26.3297 64.0597 28.2596V37.7509H67.5529Z" fill="#191314"/>
<path d="M28.6781 40.0871C26.4583 40.0871 24.599 40.8545 23.0327 42.4232C21.4664 43.9919 20.7002 45.8428 20.7002 48.0323C20.7002 50.2217 21.4664 52.1177 23.0327 53.6864C24.599 55.2551 26.4583 55.9887 28.6781 55.9887C30.898 55.9887 32.7234 55.2213 34.2785 53.6864C35.8335 52.1516 36.611 50.2556 36.611 48.0323C36.611 45.809 35.8448 43.9807 34.2785 42.4232C32.7122 40.8658 30.8642 40.0871 28.6781 40.0871ZM31.8445 51.3503C31.0107 52.1967 29.9514 52.6256 28.6781 52.6256C28.085 52.6381 27.4953 52.5317 26.9438 52.3127C26.3923 52.0937 25.8901 51.7665 25.4667 51.3503C24.6328 50.4813 24.1934 49.3865 24.1934 48.0323C24.1934 46.678 24.6328 45.5945 25.4667 44.7481C25.8849 44.3226 26.3855 43.9871 26.9377 43.762C27.4899 43.5369 28.0821 43.427 28.6781 43.4389C29.9514 43.4389 31.0107 43.8791 31.8445 44.7481C32.6784 45.6171 33.1516 46.6892 33.1516 48.0323C33.1516 49.3753 32.7234 50.4813 31.8445 51.3503Z" fill="#191314"/>
<path d="M29.5459 28.4853V37.7509H33.0053V28.4853C33.0053 26.5442 33.8842 25.5623 35.6308 25.5623H36.2843V22.2104H35.4505C32.0587 22.2104 29.5459 23.9936 29.5459 28.4853Z" fill="#191314"/>
<path d="M59.0571 46.3958C57.75 45.9218 56.7246 45.414 56.7246 44.6465C56.7246 43.8791 57.3782 43.4389 58.6966 43.4389C60.2967 43.4389 61.6489 43.7324 62.6968 44.3192V41.0689L62.2686 40.8094C61.6827 40.4821 60.184 40.0871 58.6966 40.0871C55.5302 40.0871 53.2314 41.8364 53.2314 44.6465C53.2314 49.6348 59.8572 48.7658 59.8572 51.1697C59.8572 52.1516 59.1698 52.6256 57.75 52.6256C56.1049 52.6256 54.6851 52.2306 53.4117 51.4631V54.8601L53.9639 55.1536C54.6851 55.5486 56.2851 55.9887 57.75 55.9887C61.1305 55.9887 63.3504 54.1266 63.3504 51.1697C63.3504 48.2128 60.9502 46.9375 59.0571 46.3958Z" fill="#191314"/>
<path d="M47.7773 48.653C47.7773 51.2487 46.5377 52.6256 44.6447 52.6256C42.7516 52.6256 41.5459 51.2825 41.5459 48.653V43.0327L38.0527 40.2676V48.653C38.0527 51.1358 38.7063 52.998 39.9796 54.2056C41.2624 55.3604 42.9285 55.9956 44.6534 55.9872C46.3782 55.9789 48.0382 55.3276 49.3097 54.1604C50.6169 52.9641 51.2704 51.102 51.2704 48.653V43.0327L47.7773 40.2676V48.653Z" fill="#191314"/>
<path d="M88.9401 31.4873L88.7373 32.029C88.4443 32.7513 87.3851 33.8686 85.8638 34.2749C84.9364 34.5238 83.9537 34.4672 83.0608 34.1136C82.168 33.76 81.4124 33.128 80.9058 32.3112L92.4445 29.2301C92.1403 27.7743 91.8135 24.6143 88.4218 22.7182C86.6188 21.7138 84.7032 21.522 82.6299 22.075C80.5565 22.628 78.8888 23.8581 77.7732 25.7767C76.6577 27.6953 76.3985 29.6929 76.9619 31.8146C77.5253 33.9363 78.7536 35.5615 80.6354 36.6787C82.5172 37.796 84.5229 38.0218 86.6752 37.4575C88.8274 36.8932 90.3824 35.5163 91.1487 34.4103C91.5293 33.8228 91.843 33.1944 92.0839 32.5369C92.2417 32.0854 92.3431 31.7469 92.4107 31.4873H88.9401ZM80.1283 29.264C80.1959 27.4018 81.3678 25.8444 83.4862 25.2801C85.6047 24.7158 87.6104 25.6525 88.2978 27.0971L80.1283 29.264Z" fill="#191314"/>
<path d="M76.6016 40.9561C74.7987 39.9629 72.8944 39.7598 70.821 40.3128C68.7476 40.8658 67.0687 42.1072 65.9644 44.0258C64.8601 45.9444 64.5896 47.9307 65.1418 50.0524C65.6939 52.1741 66.9335 53.7993 68.8153 54.9279C70.6971 56.0564 72.7141 56.2596 74.8551 55.6953C76.996 55.131 78.5736 53.7654 79.3286 52.6481C79.7091 52.0645 80.0228 51.4399 80.2638 50.786C80.3951 50.4386 80.5079 50.0845 80.6019 49.7251H77.12L76.9284 50.2781C76.6242 50.9891 75.565 52.1064 74.055 52.5127C73.126 52.7624 72.1414 52.7063 71.2466 52.3528C70.3518 51.9992 69.5942 51.3668 69.0857 50.549L80.6357 47.4793C80.3202 46.0121 79.9934 42.8521 76.6016 40.9561ZM68.3195 47.5131C68.3871 45.6397 69.559 44.0822 71.6661 43.518C73.7733 42.9537 75.8016 43.8904 76.4777 45.335L68.3195 47.5131Z" fill="#191314"/>
<path fill-rule="evenodd" clip-rule="evenodd" d="M27.7877 9.71703V5.97015L18.2998 9.71703H27.7877Z" fill="#821E27"/>
<path fill-rule="evenodd" clip-rule="evenodd" d="M33.3316 3.78073L28.8018 5.57517V9.71705H33.3316V3.78073Z" fill="#821E27"/>
<path fill-rule="evenodd" clip-rule="evenodd" d="M34.3457 4.33371V9.71702H38.8868V6.57958L34.3457 4.33371Z" fill="#821E27"/>
<path fill-rule="evenodd" clip-rule="evenodd" d="M91.814 15.2809L84.8952 10.5071V6.33132L81.7288 4.43531V8.3289L69.6492 0L48.9832 8.5659L46.876 7.45989V4.6836L44.6337 3.65659V6.27489L33.9288 0.632003C24.4409 3.65659 13.4881 6.69246 4.00024 9.71705H8.87941V23.971L0 28.5869L0.450731 28.8916L5.63414 32.3563L13.2064 28.9367L12.9811 9.71705H15.5277L33.3316 2.6973H33.3428L46.9324 9.41233L29.3877 16.7932H44.1491L69.2661 3.52116L69.3337 3.65659V3.4873L89.0082 16.7932H94L91.814 15.2809Z" fill="#821E27"/>
<path fill-rule="evenodd" clip-rule="evenodd" d="M78.5059 16.7932H80.0271H87.1937L78.5059 10.9133V16.7932Z" fill="#821E27"/>
<path fill-rule="evenodd" clip-rule="evenodd" d="M39.9014 9.71704H45.2313L39.9014 7.07617V9.71704Z" fill="#821E27"/>
<path fill-rule="evenodd" clip-rule="evenodd" d="M70.3477 10.033H77.1988L70.3477 5.39459V10.033Z" fill="#821E27"/>
<path fill-rule="evenodd" clip-rule="evenodd" d="M50.3242 16.7932H69.3338V4.62717L69.131 4.74002L50.3242 16.7932Z" fill="#821E27"/>
<path d="M77.4917 11.0488H70.3477V16.7955H77.4917V11.0488Z" fill="#821E27"/>
</g>
<defs>
<clipPath id="clip0">
<rect width="94" height="56" fill="white"/>
</clipPath>
</defs>
</svg>
