<svg width="64" height="64" viewBox="0 0 64 64" fill="none" xmlns="http://www.w3.org/2000/svg">
    <path d="M30.3333 40.3333C30.3333 41.25 31.0833 42 32 42C32.9167 42 33.6667 41.25 33.6667 40.3333C33.6667 39.4167 32.9167 38.6667 32 38.6667C31.0833 38.6667 30.3333 39.4167 30.3333 40.3333ZM30.3333 17V23.6667H33.6667V20.4667C39.3167 21.2833 43.6667 26.1167 43.6667 32C43.6667 38.45 38.45 43.6667 32 43.6667C25.55 43.6667 20.3333 38.45 20.3333 32C20.3333 29.2 21.3167 26.6333 22.9667 24.6333L32 33.6667L34.35 31.3167L23.0167 19.9833V20.0167C19.3667 22.75 17 27.0833 17 32C17 40.2833 23.7 47 32 47C40.2833 47 47 40.2833 47 32C47 23.7167 40.2833 17 32 17H30.3333ZM42 32C42 31.0833 41.25 30.3333 40.3333 30.3333C39.4167 30.3333 38.6667 31.0833 38.6667 32C38.6667 32.9167 39.4167 33.6667 40.3333 33.6667C41.25 33.6667 42 32.9167 42 32ZM22 32C22 32.9167 22.75 33.6667 23.6667 33.6667C24.5833 33.6667 25.3333 32.9167 25.3333 32C25.3333 31.0833 24.5833 30.3333 23.6667 30.3333C22.75 30.3333 22 31.0833 22 32Z"
          fill="black"/>
</svg>
