<svg width="22" height="18" viewBox="0 0 22 18" fill="none" xmlns="http://www.w3.org/2000/svg">
<g clip-path="url(#clip0)">
<path d="M16.8368 0.0205078H5.16336C4.32983 0.0205078 3.53043 0.351629 2.94103 0.941029C2.35163 1.53043 2.02051 2.32983 2.02051 3.16336V14.8368C2.02051 15.6704 2.35163 16.4698 2.94103 17.0592C3.53043 17.6486 4.32983 17.9797 5.16336 17.9797H16.8368C17.6704 17.9797 18.4698 17.6486 19.0592 17.0592C19.6486 16.4698 19.9797 15.6704 19.9797 14.8368V3.16336C19.9797 2.32983 19.6486 1.53043 19.0592 0.941029C18.4698 0.351629 17.6704 0.0205078 16.8368 0.0205078V0.0205078ZM19.0817 14.8368C19.0817 15.4322 18.8452 16.0032 18.4242 16.4242C18.0032 16.8452 17.4322 17.0817 16.8368 17.0817H5.16336C4.56798 17.0817 3.99698 16.8452 3.57598 16.4242C3.15498 16.0032 2.91847 15.4322 2.91847 14.8368V3.16336C2.91847 2.56798 3.15498 1.99698 3.57598 1.57598C3.99698 1.15498 4.56798 0.918467 5.16336 0.918467H16.8368C17.4322 0.918467 18.0032 1.15498 18.4242 1.57598C18.8452 1.99698 19.0817 2.56798 19.0817 3.16336V14.8368Z" fill="black" stroke="black" stroke-width="0.3"/>
<path d="M8.75493 12.1426H7.1835V10.7957C7.1835 10.6766 7.1362 10.5624 7.052 10.4782C6.9678 10.394 6.8536 10.3467 6.73452 10.3467C6.61545 10.3467 6.50125 10.394 6.41705 10.4782C6.33285 10.5624 6.28554 10.6766 6.28554 10.7957V12.1426H4.71412C4.59504 12.1426 4.48084 12.1899 4.39664 12.2741C4.31244 12.3583 4.26514 12.4725 4.26514 12.5916C4.26514 12.7107 4.31244 12.8249 4.39664 12.9091C4.48084 12.9933 4.59504 13.0406 4.71412 13.0406H6.28554V14.612C6.28554 14.7311 6.33285 14.8453 6.41705 14.9295C6.50125 15.0137 6.61545 15.061 6.73452 15.061C6.8536 15.061 6.9678 15.0137 7.052 14.9295C7.1362 14.8453 7.1835 14.7311 7.1835 14.612V13.0406H8.75493C8.87401 13.0406 8.98821 12.9933 9.07241 12.9091C9.15661 12.8249 9.20391 12.7107 9.20391 12.5916C9.20391 12.4725 9.15661 12.3583 9.07241 12.2741C8.98821 12.1899 8.87401 12.1426 8.75493 12.1426Z" fill="black" stroke="black" stroke-width="0.3"/>
<path d="M8.75493 4.73486H4.71412C4.59504 4.73486 4.48084 4.78217 4.39664 4.86637C4.31244 4.95057 4.26514 5.06477 4.26514 5.18384C4.26514 5.30292 4.31244 5.41712 4.39664 5.50132C4.48084 5.58552 4.59504 5.63282 4.71412 5.63282H8.75493C8.87401 5.63282 8.98821 5.58552 9.07241 5.50132C9.15661 5.41712 9.20391 5.30292 9.20391 5.18384C9.20391 5.06477 9.15661 4.95057 9.07241 4.86637C8.98821 4.78217 8.87401 4.73486 8.75493 4.73486Z" fill="black" stroke="black" stroke-width="0.3"/>
<path d="M16.8365 13.4897H12.7957C12.6766 13.4897 12.5624 13.537 12.4782 13.6212C12.394 13.7054 12.3467 13.8196 12.3467 13.9387C12.3467 14.0578 12.394 14.172 12.4782 14.2562C12.5624 14.3404 12.6766 14.3877 12.7957 14.3877H16.8365C16.9556 14.3877 17.0698 14.3404 17.154 14.2562C17.2382 14.172 17.2855 14.0578 17.2855 13.9387C17.2855 13.8196 17.2382 13.7054 17.154 13.6212C17.0698 13.537 16.9556 13.4897 16.8365 13.4897Z" fill="black" stroke="black" stroke-width="0.3"/>
<path d="M16.8365 11.4697H12.7957C12.6766 11.4697 12.5624 11.517 12.4782 11.6012C12.394 11.6854 12.3467 11.7996 12.3467 11.9187C12.3467 12.0378 12.394 12.152 12.4782 12.2362C12.5624 12.3204 12.6766 12.3677 12.7957 12.3677H16.8365C16.9556 12.3677 17.0698 12.3204 17.154 12.2362C17.2382 12.152 17.2855 12.0378 17.2855 11.9187C17.2855 11.7996 17.2382 11.6854 17.154 11.6012C17.0698 11.517 16.9556 11.4697 16.8365 11.4697Z" fill="black" stroke="black" stroke-width="0.3"/>
<path d="M13.1328 6.86764C13.1728 6.91119 13.2213 6.94596 13.2754 6.96975C13.3295 6.99353 13.388 7.00581 13.4471 7.00581C13.5062 7.00581 13.5646 6.99353 13.6187 6.96975C13.6728 6.94596 13.7214 6.91119 13.7614 6.86764L14.9063 5.72275L16.0512 6.86764C16.0911 6.91119 16.1397 6.94596 16.1938 6.96975C16.2479 6.99353 16.3064 7.00581 16.3655 7.00581C16.4246 7.00581 16.483 6.99353 16.5371 6.96975C16.5912 6.94596 16.6398 6.91119 16.6797 6.86764C16.7233 6.82769 16.7581 6.77912 16.7818 6.72502C16.8056 6.67091 16.8179 6.61246 16.8179 6.55336C16.8179 6.49426 16.8056 6.4358 16.7818 6.3817C16.7581 6.3276 16.7233 6.27903 16.6797 6.23907L15.5348 5.09417L16.6797 3.94928C16.7312 3.91068 16.7738 3.86148 16.8046 3.805C16.8353 3.74852 16.8536 3.68609 16.8582 3.62192C16.8628 3.55776 16.8535 3.49336 16.831 3.4331C16.8085 3.37283 16.7733 3.3181 16.7278 3.27262C16.6823 3.22713 16.6276 3.19195 16.5673 3.16946C16.5071 3.14696 16.4427 3.13768 16.3785 3.14224C16.3144 3.1468 16.2519 3.1651 16.1954 3.19589C16.139 3.22668 16.0898 3.26924 16.0512 3.32071L14.9063 4.4656L13.7614 3.32071C13.6749 3.25586 13.568 3.22438 13.4602 3.23204C13.3523 3.2397 13.2509 3.28599 13.1745 3.36241C13.0981 3.43883 13.0518 3.54026 13.0441 3.64806C13.0365 3.75587 13.068 3.86282 13.1328 3.94928L14.2777 5.09417L13.1328 6.23907C13.0893 6.27903 13.0545 6.3276 13.0307 6.3817C13.0069 6.4358 12.9946 6.49426 12.9946 6.55336C12.9946 6.61246 13.0069 6.67091 13.0307 6.72502C13.0545 6.77912 13.0893 6.82769 13.1328 6.86764V6.86764Z" fill="black" stroke="black" stroke-width="0.3"/>
</g>
<defs>
<clipPath id="clip0">
<rect width="22" height="18" fill="white"/>
</clipPath>
</defs>
</svg>
