<svg width="19" height="16" viewBox="0 0 19 16" fill="none" xmlns="http://www.w3.org/2000/svg">
<path d="M3.03716 4.5H7.78716V5.6875H3.03716V4.5ZM3.03716 8.0625H7.78716V6.875H3.03716V8.0625ZM3.03716 10.4375H7.78716V9.25H3.03716V10.4375ZM16.0997 4.5H11.3497V5.6875H16.0997V4.5ZM16.0997 6.875H11.3497V8.0625H16.0997V6.875ZM16.0997 9.25H11.3497V10.4375H16.0997V9.25ZM18.4747 2.125V12.8125C18.4623 13.1465 18.3448 13.4248 18.1221 13.6475C17.8995 13.8701 17.6211 13.9876 17.2872 14H10.7559L9.56841 15.1875L8.38091 14H1.84966C1.51568 13.9876 1.23736 13.8701 1.0147 13.6475C0.792045 13.4248 0.674532 13.1465 0.662162 12.8125V2.125C0.674532 1.79102 0.792045 1.5127 1.0147 1.29004C1.23736 1.06738 1.51568 0.94987 1.84966 0.9375H8.38091L9.56841 2.125L10.7559 0.9375H17.2872C17.6211 0.94987 17.8995 1.06738 18.1221 1.29004C18.3448 1.5127 18.4623 1.79102 18.4747 2.125ZM8.97466 2.71875L8.38091 2.125H1.84966V12.8125H8.97466V2.71875ZM17.2872 2.125H10.7559L10.1622 2.71875V12.8125H17.2872V2.125Z" fill="black"/>
</svg>
