<svg width="18" height="20" viewBox="0 0 18 20" fill="none" xmlns="http://www.w3.org/2000/svg">
    <path d="M2.41694 10.764L1.69724 15.6285V15.6492H3.7124L4.32929 11.4885L3.01326 11.0745C2.78707 10.9917 2.602 10.8882 2.41694 10.764Z"
          fill="black"/>
    <path d="M1.615 7.8039L2.06738 6.21L2.95158 5.7753L2.64314 8.9631C2.60201 9.4392 2.8899 9.8739 3.32172 10.0188L6.07715 10.8882L6.11827 13.662H8.11287L8.05119 10.143C8.05119 9.7083 7.76331 9.3357 7.35205 9.2115L5.6042 8.6526L6.09771 6.4584L6.94079 7.5348C7.14642 7.8039 7.47542 7.9074 7.80443 7.8246L9.69622 7.3278C10.1486 7.2036 10.4159 6.7482 10.2925 6.3135C10.1692 5.8581 9.71678 5.589 9.28496 5.7132L7.92781 6.0651L6.8791 4.7196C6.83797 4.6782 6.81741 4.6368 6.77629 4.5954C6.50897 4.347 6.1594 4.1814 5.80983 4.0986L4.24705 3.7674C3.79466 3.6639 3.30115 3.726 2.86933 3.933L1.01867 4.8231C0.813042 4.9266 0.648539 5.1129 0.58685 5.3406L0.0316517 7.3071C-0.0917258 7.7418 0.155029 8.2179 0.607413 8.3421C0.689665 8.3628 0.751353 8.3835 0.833605 8.3835C1.18317 8.4042 1.51218 8.1558 1.615 7.8039Z"
          fill="black"/>
    <path d="M17.2223 10.557H13.6649C13.4387 10.557 13.2536 10.7433 13.2536 10.971V12.5235H9.51116C9.28497 12.5235 9.0999 12.7098 9.0999 12.9375V14.49H5.35745C5.13126 14.49 4.9462 14.6763 4.9462 14.904V16.4565H1.22431C0.998116 16.4565 0.813049 16.6428 0.813049 16.8705V19.2096C0.813049 19.4373 0.998116 19.6236 1.22431 19.6236H17.2223C17.4484 19.6236 17.6335 19.4373 17.6335 19.2096V10.9296C17.6335 10.7433 17.4484 10.557 17.2223 10.557Z"
          fill="black"/>
    <path d="M5.68645 3.519C6.65175 3.519 7.43429 2.73124 7.43429 1.7595C7.43429 0.787755 6.65175 0 5.68645 0C4.72114 0 3.9386 0.787755 3.9386 1.7595C3.9386 2.73124 4.72114 3.519 5.68645 3.519Z"
          fill="black"/>
</svg>
