<svg width="25" height="22" viewBox="0 0 25 22" fill="none" xmlns="http://www.w3.org/2000/svg">
    <path d="M24.0428 10.4869L12.4403 0.133875C12.2363 -0.044625 11.9558 -0.044625 11.7518 0.133875L7.36577 4.03537V1.79137C7.36577 1.51087 7.13627 1.28137 6.85577 1.28137H4.53527C4.25477 1.28137 4.02527 1.51087 4.02527 1.79137V7.04437L0.174774 10.4869C-0.182226 10.7929 0.0472738 11.3794 0.506274 11.3794H2.72477V21.0184C2.72477 21.2989 2.95427 21.5284 3.23477 21.5284H20.9573C21.2378 21.5284 21.4673 21.2989 21.4673 21.0184V11.3794H23.6858C24.1703 11.3794 24.3998 10.7929 24.0428 10.4869ZM14.7608 11.2264L10.7063 17.6779C10.5788 17.9074 10.2218 17.7544 10.2728 17.4994L11.0378 13.3174H9.66077C9.50777 13.3174 9.40577 13.1899 9.43127 13.0369L10.5788 6.78937C10.6043 6.68737 10.7063 6.58537 10.8083 6.58537H13.7918C13.9448 6.58537 14.0723 6.73837 14.0213 6.89137L12.7973 10.8439H14.5568C14.7353 10.8694 14.8628 11.0734 14.7608 11.2264Z"
          fill="black"/>
</svg>
