<svg width="72" height="72" viewBox="0 0 72 72" fill="none" xmlns="http://www.w3.org/2000/svg">
<path d="M54.7135 24.0866L54.7372 24.0785C54.7585 24.1408 54.7715 24.2056 54.7757 24.2713L54.7757 24.2718C54.7759 24.2758 54.7771 24.28 54.7794 24.2879L54.7795 24.2882C54.7814 24.2951 54.7844 24.3053 54.7844 24.3167V57.2833C54.7844 57.48 54.7062 57.6687 54.5671 57.8078C54.4281 57.9469 54.2394 58.025 54.0427 58.025H21.076C20.8793 58.025 20.6907 57.9469 20.5516 57.8078C20.4125 57.6687 20.3344 57.48 20.3344 57.2833V15.7167C20.3344 15.52 20.4125 15.3313 20.5516 15.1922C20.6907 15.0531 20.8793 14.975 21.076 14.975H45.4427C45.4551 14.975 45.466 14.9782 45.4738 14.9808C45.4757 14.9814 45.4774 14.982 45.479 14.9825C45.4842 14.9842 45.4875 14.9853 45.4907 14.9859C45.5539 14.9901 45.6163 15.0026 45.6764 15.0229L54.7135 24.0866ZM54.7135 24.0866L54.7371 24.0785C54.7352 24.0727 54.7332 24.0667 54.7312 24.0605M54.7135 24.0866L54.7312 24.0605M54.7312 24.0605C54.726 24.0442 54.7204 24.0268 54.7126 24.0097L54.7312 24.0605ZM21.8177 56.5417V16.4583H44.701V24.3167C44.701 24.5134 44.7792 24.702 44.9183 24.8411C45.0574 24.9802 45.246 25.0583 45.4427 25.0583H53.301V56.5417H21.8177ZM46.1844 17.5071L52.2523 23.575H46.1844V17.5071Z" fill="black" stroke="black" stroke-width="0.05"/>
<path d="M28.2424 42.2583H28.2424C29.0978 42.2583 29.934 42.0046 30.6452 41.5294C31.3565 41.0542 31.9108 40.3787 32.2382 39.5884C32.5655 38.7981 32.6512 37.9285 32.4843 37.0895C32.3174 36.2506 31.9055 35.4799 31.3006 34.8751C30.6958 34.2702 29.9251 33.8583 29.0861 33.6914C28.2472 33.5245 27.3776 33.6102 26.5873 33.9375C25.797 34.2649 25.1215 34.8192 24.6463 35.5305C24.171 36.2417 23.9174 37.0779 23.9174 37.9333L23.9174 37.9333C23.9185 39.08 24.3746 40.1794 25.1854 40.9903C25.9962 41.8011 27.0957 42.2572 28.2424 42.2583ZM28.2424 35.0916C28.8044 35.0916 29.3538 35.2583 29.8211 35.5705C30.2884 35.8828 30.6527 36.3266 30.8677 36.8458C31.0828 37.3651 31.1391 37.9365 31.0294 38.4877C30.9198 39.0389 30.6492 39.5452 30.2517 39.9427C29.8543 40.3401 29.348 40.6107 28.7968 40.7204C28.2455 40.83 27.6742 40.7737 27.1549 40.5587C26.6357 40.3436 26.1919 39.9794 25.8796 39.512C25.5674 39.0447 25.4007 38.4953 25.4007 37.9333C25.4007 37.1796 25.7001 36.4569 26.233 35.9239C26.7659 35.391 27.4887 35.0916 28.2424 35.0916Z" fill="black" stroke="black" stroke-width="0.05"/>
<path d="M34.1422 23.766L34.1599 23.7484L34.1422 23.7307L33.1289 22.7173L33.1112 22.6996L33.0935 22.7173L31.1257 24.6851C30.3294 23.9795 29.2985 23.5955 28.2341 23.6086C27.1617 23.6217 26.1334 24.0368 25.3524 24.7718C24.5714 25.5068 24.0948 26.5081 24.0166 27.5777C23.9385 28.6473 24.2647 29.7073 24.9306 30.5479C25.5965 31.3885 26.5537 31.9487 27.6127 32.1174C28.6718 32.2862 29.7557 32.0514 30.6499 31.4594C31.5441 30.8674 32.1836 29.9613 32.4419 28.9205C32.6986 27.8856 32.5599 26.7925 32.0534 25.8548L34.1422 23.766ZM28.7672 29.141L30.9224 26.9858C31.0266 27.2795 31.0814 27.5884 31.0845 27.9002C31.0845 28.4621 30.9178 29.0115 30.6056 29.4787C30.2934 29.9461 29.8496 30.3103 29.3303 30.5254C28.8111 30.7404 28.2397 30.7967 27.6885 30.6871C27.1373 30.5774 26.6309 30.3068 26.2335 29.9094C25.8361 29.5119 25.5654 29.0056 25.4558 28.4544C25.3462 27.9032 25.4024 27.3318 25.6175 26.8125C25.8326 26.2933 26.1968 25.8495 26.6641 25.5372C27.1314 25.225 27.6808 25.0584 28.2428 25.0583C28.9139 25.061 29.5617 25.3034 30.0696 25.7412L28.2429 27.5679L27.3339 26.659L27.3162 26.6413L27.2985 26.659L26.2852 27.6723L26.2675 27.69L26.2852 27.7077L27.7185 29.141L27.7358 29.1238L27.7185 29.141C27.8576 29.2801 28.0462 29.3582 28.2429 29.3582C28.4395 29.3582 28.6281 29.2801 28.7672 29.141L28.7672 29.141Z" fill="black" stroke="black" stroke-width="0.05"/>
<path d="M33.1289 42.784L33.1112 42.7663L33.0935 42.784L31.1257 44.7517C30.3294 44.0461 29.2985 43.6622 28.2341 43.6752C27.1617 43.6884 26.1334 44.1035 25.3524 44.8385C24.5714 45.5735 24.0948 46.5748 24.0166 47.6444C23.9385 48.714 24.2647 49.7739 24.9306 50.6145C25.5965 51.4552 26.5537 52.0153 27.6127 52.1841C28.6718 52.3529 29.7557 52.118 30.6499 51.526C31.5441 50.934 32.1836 50.028 32.4419 48.9871C32.6986 47.9523 32.5599 46.8592 32.0534 45.9215L34.1422 43.8327L34.1599 43.815L34.1422 43.7973L33.1289 42.784ZM28.7672 49.2077L30.9224 47.0525C31.0266 47.3461 31.0814 47.6551 31.0845 47.9668C31.0845 48.5288 30.9178 49.0781 30.6056 49.5454C30.2934 50.0127 29.8496 50.3769 29.3303 50.592C28.8111 50.8071 28.2397 50.8634 27.6885 50.7537C27.1373 50.6441 26.6309 50.3734 26.2335 49.976C25.8361 49.5786 25.5654 49.0723 25.4558 48.521C25.3462 47.9698 25.4024 47.3984 25.6175 46.8792C25.8326 46.3599 26.1968 45.9161 26.6641 45.6039C27.1314 45.2917 27.6808 45.125 28.2428 45.125C28.9139 45.1277 29.5617 45.3701 30.0696 45.8079L28.2429 47.6346L27.3339 46.7256L27.3162 46.7079L27.2985 46.7256L26.2852 47.739L26.2675 47.7567L26.2852 47.7743L27.7185 49.2077L27.7185 49.2077C27.8576 49.3467 28.0462 49.4248 28.2429 49.4248C28.4395 49.4248 28.6281 49.3467 28.7672 49.2077L28.7672 49.2077Z" fill="black" stroke="black" stroke-width="0.05"/>
<path d="M35.4092 25.725H35.3842V25.75V27.1833V27.2083H35.4092H44.0092H44.0342V27.1833V25.75V25.725H44.0092H35.4092Z" fill="black" stroke="black" stroke-width="0.05"/>
<path d="M35.4092 28.5916H35.3842V28.6166V30.05V30.075H35.4092H48.3092H48.3342V30.05V28.6166V28.5916H48.3092H35.4092Z" fill="black" stroke="black" stroke-width="0.05"/>
<path d="M35.4092 35.7583H35.3842V35.7833V37.2167V37.2417H35.4092H44.0092H44.0342V37.2167V35.7833V35.7583H44.0092H35.4092Z" fill="black" stroke="black" stroke-width="0.05"/>
<path d="M35.4092 38.625H35.3842V38.65V40.0833V40.1083H35.4092H48.3092H48.3342V40.0833V38.65V38.625H48.3092H35.4092Z" fill="black" stroke="black" stroke-width="0.05"/>
<path d="M35.4092 45.7917H35.3842V45.8167V47.25V47.275H35.4092H44.0092H44.0342V47.25V45.8167V45.7917H44.0092H35.4092Z" fill="black" stroke="black" stroke-width="0.05"/>
<path d="M35.4092 48.6583H35.3842V48.6833V50.1167V50.1417H35.4092H48.3092H48.3342V50.1167V48.6833V48.6583H48.3092H35.4092Z" fill="black" stroke="black" stroke-width="0.05"/>
<path d="M24.6592 17.8417H24.6342V17.8667V19.3V19.325H24.6592H36.8425H36.8675V19.3V17.8667V17.8417H36.8425H24.6592Z" fill="black" stroke="black" stroke-width="0.05"/>
<path d="M38.2764 17.8417H38.2514V17.8667V19.3V19.325H38.2764H43.293H43.318V19.3V17.8667V17.8417H43.293H38.2764Z" fill="black" stroke="black" stroke-width="0.05"/>
</svg>
