<svg width="72" height="72" viewBox="0 0 72 72" fill="none" xmlns="http://www.w3.org/2000/svg">
<path d="M48.29 55.8964H50.36C50.9289 55.8964 51.4745 55.6704 51.8767 55.2681C52.279 54.8659 52.505 54.3203 52.505 53.7514V15.07C52.505 14.5011 52.279 13.9555 51.8767 13.5533C51.4745 13.151 50.9289 12.925 50.36 12.925H22.07C21.5011 12.925 20.9555 13.151 20.5533 13.5533C20.151 13.9555 19.925 14.5011 19.925 15.07V53.7514C19.925 54.3203 20.151 54.8659 20.5533 55.2681C20.9555 55.6704 21.5011 55.8964 22.07 55.8964H38.63C38.8329 55.8964 39.0275 55.8158 39.1709 55.6723C39.3144 55.5289 39.395 55.3343 39.395 55.1314C39.395 54.9285 39.3144 54.7339 39.1709 54.5905C39.0275 54.447 38.8329 54.3664 38.63 54.3664H22.07C21.9069 54.3664 21.7505 54.3016 21.6351 54.1863C21.5198 54.0709 21.455 53.9145 21.455 53.7514V15.07C21.455 14.9069 21.5198 14.7505 21.6351 14.6351C21.7505 14.5198 21.9069 14.455 22.07 14.455H50.36C50.5231 14.455 50.6795 14.5198 50.7949 14.6351C50.9102 14.7505 50.975 14.9069 50.975 15.07V53.7514C50.975 53.9145 50.9102 54.0709 50.7949 54.1863C50.6795 54.3016 50.5231 54.3664 50.36 54.3664H48.29C48.0871 54.3664 47.8925 54.447 47.7491 54.5905C47.6056 54.7339 47.525 54.9285 47.525 55.1314C47.525 55.3343 47.6056 55.5289 47.7491 55.6723C47.8925 55.8158 48.0871 55.8964 48.29 55.8964Z" fill="black" stroke="black" stroke-width="0.15"/>
<path d="M28.2252 27.0475H45.0267C45.2295 27.0475 45.4241 26.9669 45.5676 26.8234C45.7111 26.68 45.7917 26.4854 45.7917 26.2825C45.7917 26.0796 45.7111 25.885 45.5676 25.7416C45.4241 25.5981 45.2295 25.5175 45.0267 25.5175H28.2252C28.0223 25.5175 27.8277 25.5981 27.6842 25.7416C27.5408 25.885 27.4602 26.0796 27.4602 26.2825C27.4602 26.4854 27.5408 26.68 27.6842 26.8234C27.8277 26.9669 28.0223 27.0475 28.2252 27.0475Z" fill="black" stroke="black" stroke-width="0.15"/>
<path d="M25.9957 30.9391H47.2408C47.4437 30.9391 47.6382 30.8585 47.7817 30.715C47.9252 30.5716 48.0058 30.377 48.0058 30.1741C48.0058 29.9712 47.9252 29.7766 47.7817 29.6332C47.6382 29.4897 47.4437 29.4091 47.2408 29.4091H25.9957C25.7928 29.4091 25.5982 29.4897 25.4547 29.6332C25.3113 29.7766 25.2307 29.9712 25.2307 30.1741C25.2307 30.377 25.3113 30.5716 25.4547 30.715C25.5982 30.8585 25.7928 30.9391 25.9957 30.9391Z" fill="black" stroke="black" stroke-width="0.15"/>
<path d="M30.2193 34.8307H43.0395C43.2424 34.8307 43.437 34.7501 43.5804 34.6066C43.7239 34.4632 43.8045 34.2686 43.8045 34.0657C43.8045 33.8628 43.7239 33.6682 43.5804 33.5248C43.437 33.3813 43.2424 33.3007 43.0395 33.3007H30.2193C30.0164 33.3007 29.8218 33.3813 29.6784 33.5248C29.5349 33.6682 29.4543 33.8628 29.4543 34.0657C29.4543 34.2686 29.5349 34.4632 29.6784 34.6066C29.8218 34.7501 30.0164 34.8307 30.2193 34.8307Z" fill="black" stroke="black" stroke-width="0.15"/>
<mask id="path-5-outside-1" maskUnits="userSpaceOnUse" x="37.8926" y="45.6504" width="11" height="11" fill="black">
<rect fill="white" x="37.8926" y="45.6504" width="11" height="11"/>
<path d="M43.4603 56.1664C43.2842 56.1672 43.1102 56.1271 42.9522 56.0493C42.7941 55.9715 42.6563 55.858 42.5495 55.7179L42.1976 55.2694L41.6525 55.4281C41.484 55.4779 41.3063 55.4883 41.1332 55.4584C40.96 55.4285 40.796 55.3592 40.6539 55.2558C40.5118 55.1524 40.3955 55.0177 40.3138 54.8621C40.2321 54.7066 40.1873 54.5343 40.1828 54.3586V53.7928L39.6515 53.5996C39.4867 53.5405 39.3376 53.4444 39.2157 53.3187C39.0938 53.193 39.0023 53.041 38.9483 52.8744C38.8944 52.7078 38.8793 52.5311 38.9043 52.3577C38.9293 52.1844 38.9938 52.0191 39.0926 51.8746L39.41 51.4054L39.0926 50.9362C38.9938 50.7917 38.9293 50.6264 38.9043 50.4531C38.8793 50.2797 38.8944 50.103 38.9483 49.9364C39.0023 49.7698 39.0938 49.6178 39.2157 49.4921C39.3376 49.3664 39.4867 49.2703 39.6515 49.2112L40.169 49.0042V48.4315C40.1735 48.2558 40.2183 48.0835 40.3 47.928C40.3817 47.7724 40.498 47.6377 40.6401 47.5343C40.7822 47.4309 40.9462 47.3616 41.1194 47.3317C41.2925 47.3018 41.4702 47.3122 41.6387 47.362L42.1838 47.5207L42.5357 47.0722C42.6472 46.9401 42.7861 46.8339 42.9428 46.761C43.0995 46.6881 43.2703 46.6504 43.4431 46.6504C43.6159 46.6504 43.7867 46.6881 43.9434 46.761C44.1001 46.8339 44.239 46.9401 44.3504 47.0722L44.7023 47.5207L45.2474 47.362C45.416 47.3122 45.5937 47.3018 45.7668 47.3317C45.94 47.3616 46.104 47.4309 46.2461 47.5343C46.3881 47.6377 46.5045 47.7724 46.5862 47.928C46.6679 48.0835 46.7127 48.2558 46.7171 48.4315V49.0042L47.2553 49.1974C47.4202 49.2565 47.5693 49.3526 47.6912 49.4783C47.8131 49.604 47.9046 49.756 47.9586 49.9226C48.0125 50.0892 48.0276 50.2659 48.0026 50.4393C47.9776 50.6126 47.9131 50.7779 47.8142 50.9224L47.4968 51.3916L47.8142 51.8608C47.9118 52.0057 47.9751 52.1709 47.9993 52.3439C48.0236 52.5169 48.0083 52.6931 47.9544 52.8593C47.9006 53.0254 47.8097 53.1772 47.6886 53.3031C47.5675 53.4289 47.4193 53.5256 47.2553 53.5858L46.7171 53.779V54.3517C46.7127 54.5274 46.6679 54.6997 46.5862 54.8552C46.5045 55.0108 46.3881 55.1455 46.2461 55.2489C46.104 55.3523 45.94 55.4216 45.7668 55.4515C45.5937 55.4814 45.416 55.471 45.2474 55.4212L44.7023 55.2625L44.3504 55.711C44.2465 55.8496 44.1123 55.9627 43.9581 56.0416C43.8038 56.1206 43.6336 56.1632 43.4603 56.1664V56.1664ZM42.2942 53.8342C42.4693 53.8345 42.6418 53.8751 42.7986 53.9528C42.9554 54.0306 43.0921 54.1435 43.1981 54.2827L43.4603 54.6208L43.7225 54.2827C43.8632 54.1002 44.0557 53.9643 44.2748 53.8929C44.494 53.8215 44.7295 53.8179 44.9507 53.8825L45.3647 53.9998V53.572C45.3707 53.341 45.4464 53.1173 45.5819 52.9301C45.7173 52.7429 45.9062 52.6011 46.1237 52.5232L46.5515 52.399L46.31 52.0471C46.1795 51.8573 46.1096 51.6323 46.1096 51.402C46.1096 51.1716 46.1795 50.9466 46.31 50.7568L46.5515 50.3842L46.1513 50.2393C45.9333 50.1623 45.7439 50.0206 45.6083 49.8333C45.4727 49.6459 45.3974 49.4217 45.3923 49.1905V48.7627L44.9783 48.88C44.7571 48.9446 44.5216 48.941 44.3024 48.8696C44.0833 48.7982 43.8908 48.6623 43.7501 48.4798L43.4879 48.1417L43.2257 48.4798C43.0857 48.6631 42.8932 48.7995 42.6739 48.871C42.4546 48.9424 42.2187 48.9456 41.9975 48.88L41.5835 48.7627V49.1905C41.5776 49.4215 41.5019 49.6452 41.3664 49.8324C41.231 50.0196 41.0421 50.1614 40.8245 50.2393L40.3829 50.3842L40.6244 50.7361C40.755 50.9259 40.8249 51.1509 40.8249 51.3813C40.8249 51.6116 40.755 51.8366 40.6244 52.0264L40.3829 52.3783L40.7831 52.5232C41.0012 52.6002 41.1906 52.7419 41.3262 52.9292C41.4618 53.1166 41.5371 53.3408 41.5421 53.572V53.9998L41.9561 53.8825C42.0658 53.8498 42.1798 53.8335 42.2942 53.8342V53.8342Z"/>
</mask>
<path d="M43.4603 56.1664C43.2842 56.1672 43.1102 56.1271 42.9522 56.0493C42.7941 55.9715 42.6563 55.858 42.5495 55.7179L42.1976 55.2694L41.6525 55.4281C41.484 55.4779 41.3063 55.4883 41.1332 55.4584C40.96 55.4285 40.796 55.3592 40.6539 55.2558C40.5118 55.1524 40.3955 55.0177 40.3138 54.8621C40.2321 54.7066 40.1873 54.5343 40.1828 54.3586V53.7928L39.6515 53.5996C39.4867 53.5405 39.3376 53.4444 39.2157 53.3187C39.0938 53.193 39.0023 53.041 38.9483 52.8744C38.8944 52.7078 38.8793 52.5311 38.9043 52.3577C38.9293 52.1844 38.9938 52.0191 39.0926 51.8746L39.41 51.4054L39.0926 50.9362C38.9938 50.7917 38.9293 50.6264 38.9043 50.4531C38.8793 50.2797 38.8944 50.103 38.9483 49.9364C39.0023 49.7698 39.0938 49.6178 39.2157 49.4921C39.3376 49.3664 39.4867 49.2703 39.6515 49.2112L40.169 49.0042V48.4315C40.1735 48.2558 40.2183 48.0835 40.3 47.928C40.3817 47.7724 40.498 47.6377 40.6401 47.5343C40.7822 47.4309 40.9462 47.3616 41.1194 47.3317C41.2925 47.3018 41.4702 47.3122 41.6387 47.362L42.1838 47.5207L42.5357 47.0722C42.6472 46.9401 42.7861 46.8339 42.9428 46.761C43.0995 46.6881 43.2703 46.6504 43.4431 46.6504C43.6159 46.6504 43.7867 46.6881 43.9434 46.761C44.1001 46.8339 44.239 46.9401 44.3504 47.0722L44.7023 47.5207L45.2474 47.362C45.416 47.3122 45.5937 47.3018 45.7668 47.3317C45.94 47.3616 46.104 47.4309 46.2461 47.5343C46.3881 47.6377 46.5045 47.7724 46.5862 47.928C46.6679 48.0835 46.7127 48.2558 46.7171 48.4315V49.0042L47.2553 49.1974C47.4202 49.2565 47.5693 49.3526 47.6912 49.4783C47.8131 49.604 47.9046 49.756 47.9586 49.9226C48.0125 50.0892 48.0276 50.2659 48.0026 50.4393C47.9776 50.6126 47.9131 50.7779 47.8142 50.9224L47.4968 51.3916L47.8142 51.8608C47.9118 52.0057 47.9751 52.1709 47.9993 52.3439C48.0236 52.5169 48.0083 52.6931 47.9544 52.8593C47.9006 53.0254 47.8097 53.1772 47.6886 53.3031C47.5675 53.4289 47.4193 53.5256 47.2553 53.5858L46.7171 53.779V54.3517C46.7127 54.5274 46.6679 54.6997 46.5862 54.8552C46.5045 55.0108 46.3881 55.1455 46.2461 55.2489C46.104 55.3523 45.94 55.4216 45.7668 55.4515C45.5937 55.4814 45.416 55.471 45.2474 55.4212L44.7023 55.2625L44.3504 55.711C44.2465 55.8496 44.1123 55.9627 43.9581 56.0416C43.8038 56.1206 43.6336 56.1632 43.4603 56.1664V56.1664ZM42.2942 53.8342C42.4693 53.8345 42.6418 53.8751 42.7986 53.9528C42.9554 54.0306 43.0921 54.1435 43.1981 54.2827L43.4603 54.6208L43.7225 54.2827C43.8632 54.1002 44.0557 53.9643 44.2748 53.8929C44.494 53.8215 44.7295 53.8179 44.9507 53.8825L45.3647 53.9998V53.572C45.3707 53.341 45.4464 53.1173 45.5819 52.9301C45.7173 52.7429 45.9062 52.6011 46.1237 52.5232L46.5515 52.399L46.31 52.0471C46.1795 51.8573 46.1096 51.6323 46.1096 51.402C46.1096 51.1716 46.1795 50.9466 46.31 50.7568L46.5515 50.3842L46.1513 50.2393C45.9333 50.1623 45.7439 50.0206 45.6083 49.8333C45.4727 49.6459 45.3974 49.4217 45.3923 49.1905V48.7627L44.9783 48.88C44.7571 48.9446 44.5216 48.941 44.3024 48.8696C44.0833 48.7982 43.8908 48.6623 43.7501 48.4798L43.4879 48.1417L43.2257 48.4798C43.0857 48.6631 42.8932 48.7995 42.6739 48.871C42.4546 48.9424 42.2187 48.9456 41.9975 48.88L41.5835 48.7627V49.1905C41.5776 49.4215 41.5019 49.6452 41.3664 49.8324C41.231 50.0196 41.0421 50.1614 40.8245 50.2393L40.3829 50.3842L40.6244 50.7361C40.755 50.9259 40.8249 51.1509 40.8249 51.3813C40.8249 51.6116 40.755 51.8366 40.6244 52.0264L40.3829 52.3783L40.7831 52.5232C41.0012 52.6002 41.1906 52.7419 41.3262 52.9292C41.4618 53.1166 41.5371 53.3408 41.5421 53.572V53.9998L41.9561 53.8825C42.0658 53.8498 42.1798 53.8335 42.2942 53.8342V53.8342Z" fill="black"/>
<path d="M43.4603 56.1664C43.2842 56.1672 43.1102 56.1271 42.9522 56.0493C42.7941 55.9715 42.6563 55.858 42.5495 55.7179L42.1976 55.2694L41.6525 55.4281C41.484 55.4779 41.3063 55.4883 41.1332 55.4584C40.96 55.4285 40.796 55.3592 40.6539 55.2558C40.5118 55.1524 40.3955 55.0177 40.3138 54.8621C40.2321 54.7066 40.1873 54.5343 40.1828 54.3586V53.7928L39.6515 53.5996C39.4867 53.5405 39.3376 53.4444 39.2157 53.3187C39.0938 53.193 39.0023 53.041 38.9483 52.8744C38.8944 52.7078 38.8793 52.5311 38.9043 52.3577C38.9293 52.1844 38.9938 52.0191 39.0926 51.8746L39.41 51.4054L39.0926 50.9362C38.9938 50.7917 38.9293 50.6264 38.9043 50.4531C38.8793 50.2797 38.8944 50.103 38.9483 49.9364C39.0023 49.7698 39.0938 49.6178 39.2157 49.4921C39.3376 49.3664 39.4867 49.2703 39.6515 49.2112L40.169 49.0042V48.4315C40.1735 48.2558 40.2183 48.0835 40.3 47.928C40.3817 47.7724 40.498 47.6377 40.6401 47.5343C40.7822 47.4309 40.9462 47.3616 41.1194 47.3317C41.2925 47.3018 41.4702 47.3122 41.6387 47.362L42.1838 47.5207L42.5357 47.0722C42.6472 46.9401 42.7861 46.8339 42.9428 46.761C43.0995 46.6881 43.2703 46.6504 43.4431 46.6504C43.6159 46.6504 43.7867 46.6881 43.9434 46.761C44.1001 46.8339 44.239 46.9401 44.3504 47.0722L44.7023 47.5207L45.2474 47.362C45.416 47.3122 45.5937 47.3018 45.7668 47.3317C45.94 47.3616 46.104 47.4309 46.2461 47.5343C46.3881 47.6377 46.5045 47.7724 46.5862 47.928C46.6679 48.0835 46.7127 48.2558 46.7171 48.4315V49.0042L47.2553 49.1974C47.4202 49.2565 47.5693 49.3526 47.6912 49.4783C47.8131 49.604 47.9046 49.756 47.9586 49.9226C48.0125 50.0892 48.0276 50.2659 48.0026 50.4393C47.9776 50.6126 47.9131 50.7779 47.8142 50.9224L47.4968 51.3916L47.8142 51.8608C47.9118 52.0057 47.9751 52.1709 47.9993 52.3439C48.0236 52.5169 48.0083 52.6931 47.9544 52.8593C47.9006 53.0254 47.8097 53.1772 47.6886 53.3031C47.5675 53.4289 47.4193 53.5256 47.2553 53.5858L46.7171 53.779V54.3517C46.7127 54.5274 46.6679 54.6997 46.5862 54.8552C46.5045 55.0108 46.3881 55.1455 46.2461 55.2489C46.104 55.3523 45.94 55.4216 45.7668 55.4515C45.5937 55.4814 45.416 55.471 45.2474 55.4212L44.7023 55.2625L44.3504 55.711C44.2465 55.8496 44.1123 55.9627 43.9581 56.0416C43.8038 56.1206 43.6336 56.1632 43.4603 56.1664V56.1664ZM42.2942 53.8342C42.4693 53.8345 42.6418 53.8751 42.7986 53.9528C42.9554 54.0306 43.0921 54.1435 43.1981 54.2827L43.4603 54.6208L43.7225 54.2827C43.8632 54.1002 44.0557 53.9643 44.2748 53.8929C44.494 53.8215 44.7295 53.8179 44.9507 53.8825L45.3647 53.9998V53.572C45.3707 53.341 45.4464 53.1173 45.5819 52.9301C45.7173 52.7429 45.9062 52.6011 46.1237 52.5232L46.5515 52.399L46.31 52.0471C46.1795 51.8573 46.1096 51.6323 46.1096 51.402C46.1096 51.1716 46.1795 50.9466 46.31 50.7568L46.5515 50.3842L46.1513 50.2393C45.9333 50.1623 45.7439 50.0206 45.6083 49.8333C45.4727 49.6459 45.3974 49.4217 45.3923 49.1905V48.7627L44.9783 48.88C44.7571 48.9446 44.5216 48.941 44.3024 48.8696C44.0833 48.7982 43.8908 48.6623 43.7501 48.4798L43.4879 48.1417L43.2257 48.4798C43.0857 48.6631 42.8932 48.7995 42.6739 48.871C42.4546 48.9424 42.2187 48.9456 41.9975 48.88L41.5835 48.7627V49.1905C41.5776 49.4215 41.5019 49.6452 41.3664 49.8324C41.231 50.0196 41.0421 50.1614 40.8245 50.2393L40.3829 50.3842L40.6244 50.7361C40.755 50.9259 40.8249 51.1509 40.8249 51.3813C40.8249 51.6116 40.755 51.8366 40.6244 52.0264L40.3829 52.3783L40.7831 52.5232C41.0012 52.6002 41.1906 52.7419 41.3262 52.9292C41.4618 53.1166 41.5371 53.3408 41.5421 53.572V53.9998L41.9561 53.8825C42.0658 53.8498 42.1798 53.8335 42.2942 53.8342V53.8342Z" stroke="black" stroke-width="0.3" mask="url(#path-5-outside-1)"/>
<path d="M45.7295 61.6234C45.8421 61.6241 45.9534 61.6 46.0555 61.5528C46.1577 61.5055 46.2481 61.4363 46.3205 61.3501C46.3928 61.2639 46.4452 61.1628 46.474 61.054C46.5027 60.9454 46.5071 60.8319 46.487 60.7214L45.4452 54.4223C45.4452 54.4223 45.4452 54.4223 45.4452 54.4223C45.4118 54.2197 45.2992 54.0386 45.1323 53.919C44.9654 53.7994 44.7578 53.7509 44.5552 53.7844C44.3525 53.8178 44.1715 53.9303 44.0519 54.0973C43.9322 54.2642 43.8838 54.4718 43.9172 54.6744L43.9173 54.6746L44.7284 59.5014L43.8169 59.0728C43.7113 59.0205 43.595 58.9932 43.4772 58.9932C43.359 58.9932 43.2425 59.0206 43.1367 59.0731L43.1366 59.0732L42.1899 59.5466L42.9337 54.7151C42.9337 54.7151 42.9337 54.7151 42.9337 54.7151L42.9338 54.715L42.8596 54.7036M45.7295 61.6234L40.5067 60.7825L41.4796 54.4897C41.4937 54.3991 41.5254 54.3121 41.5731 54.2338C41.6207 54.1555 41.6833 54.0873 41.7573 54.0331C41.8313 53.979 41.9153 53.94 42.0044 53.9183C42.0935 53.8966 42.186 53.8926 42.2766 53.9067C42.3672 53.9207 42.4541 53.9525 42.5325 54.0001C42.6108 54.0478 42.679 54.1104 42.7332 54.1844C42.7873 54.2584 42.8263 54.3423 42.848 54.4314C42.8697 54.5205 42.8737 54.613 42.8596 54.7036M45.7295 61.6234C45.6099 61.6227 45.4921 61.5939 45.3856 61.5394C45.3855 61.5394 45.3854 61.5393 45.3853 61.5393L43.4599 60.5766L45.7295 61.6234ZM42.8596 54.7036L42.1077 59.5877L42.8596 54.7036Z" fill="black" stroke="black" stroke-width="0.15"/>
</svg>
