<svg width="36" height="47" viewBox="0 0 36 47" fill="none" xmlns="http://www.w3.org/2000/svg">
    <path fill-rule="evenodd" clip-rule="evenodd"
          d="M31.5115 46.825H0V0H31.5115C33.5535 0 35.2785 1.64314 35.2785 3.58765V43.2373C35.2785 45.1818 33.5535 46.825 31.5115 46.825ZM29.0021 6.07227H5.08447V7.26815H29.0021V6.07227ZM7.47559 38.7811H26.6097V41.1729H7.47559V38.7811ZM26.6089 8.46399H8.07275V9.65987H26.6089V8.46399ZM23.4106 17.9019C24.5407 19.2305 25.043 22.1777 24.2214 24.1181C24.4534 24.1868 24.7362 24.356 24.341 24.7513C24.2072 24.8851 24.095 24.9886 23.9976 25.0786C23.6641 25.3864 23.5039 25.5344 23.242 26.1887C23.1904 26.3177 23.133 26.4624 23.0721 26.6159C22.7334 27.4691 22.2864 28.5952 22.143 28.8101C22.1268 28.834 22.1071 28.8705 22.0856 28.9153C22.3756 29.1509 22.4928 29.5713 22.058 29.9091C21.9086 30.0251 21.7495 30.0753 21.5863 30.0831C21.447 30.3893 21.3106 30.6368 21.2126 30.6697C21.0122 30.7367 20.8658 30.3815 20.9369 29.9384C20.7919 29.8774 20.6497 29.8047 20.5142 29.7354C20.2238 29.587 19.9643 29.4544 19.7751 29.4858C19.565 29.5209 19.6737 29.6718 19.8313 29.8907C20.0544 30.2005 20.3756 30.6464 20.0286 31.0924C19.7124 31.4991 19.0342 31.6644 18.3937 31.8205C17.8608 31.9503 17.3539 32.0739 17.1035 32.3248C17.0856 32.3685 17.0652 32.3876 17.0431 32.3798C17.021 32.387 17.0007 32.3679 16.9827 32.3248C16.7323 32.0739 16.2255 31.9503 15.6925 31.8205C15.052 31.6644 14.3738 31.4991 14.0576 31.0924C13.7105 30.6462 14.0318 30.1999 14.2549 29.8901C14.4124 29.6714 14.5209 29.5207 14.3111 29.4858C14.1226 29.4544 13.8635 29.5867 13.5734 29.7349C13.4375 29.8043 13.2948 29.8772 13.1493 29.9384C13.2205 30.3815 13.074 30.7367 12.8737 30.6697C12.7756 30.6374 12.6399 30.3893 12.5 30.0831C12.3367 30.0759 12.1777 30.0251 12.0282 29.9091C11.5935 29.5713 11.7107 29.1509 12.0007 28.9153C11.9786 28.8705 11.9594 28.8346 11.9433 28.8101C11.8017 28.5972 11.3616 27.4897 11.0238 26.6396C10.9593 26.4772 10.8985 26.3243 10.8443 26.1887C10.5829 25.5346 10.4225 25.3866 10.0891 25.0789C9.99157 24.9889 9.87924 24.8853 9.74524 24.7513C9.3506 24.356 9.63283 24.1874 9.86483 24.1187C9.04386 22.1789 9.54613 19.2317 10.6756 17.9025C11.1833 20.4389 14.9037 22.6376 14.9037 22.6376C14.9037 22.6376 14.6496 21.8764 14.988 22.0456C15.3264 22.2148 15.7492 21.877 15.4107 21.1158C15.0729 20.3552 14.1425 21.0321 14.1425 21.0321L13.889 20.7798C13.7507 20.5951 13.9396 20.4366 14.0987 20.3033C14.2312 20.1922 14.3429 20.0985 14.2274 20.0216C13.9733 19.8524 13.297 20.2811 13.297 20.2811C13.297 20.2811 13.2121 20.2918 13.1278 19.7848C13.0889 19.5508 13.2835 19.4834 13.488 19.4124C13.7273 19.3295 13.9802 19.2417 13.889 18.8771C13.7316 18.2483 13.7935 18.2429 14.5509 18.1775C14.6081 18.1726 14.6692 18.1673 14.7345 18.1614C15.6643 18.0765 15.2415 18.9279 15.2415 18.9279H15.3264C16.0027 18.9279 16.1719 18.1566 15.8335 17.4803C15.495 16.8035 16.679 16.7933 16.679 16.7933L17.0174 15.9382H17.0694L17.4079 16.8375C17.4079 16.8375 18.5918 16.7233 18.2533 17.3996C17.9149 18.0759 18.0841 18.9273 18.7604 18.9273H18.8447C18.8447 18.9273 18.4214 18.0765 19.3518 18.1608C19.4668 18.1713 19.5689 18.1791 19.6592 18.186C20.2987 18.2349 20.3455 18.2385 20.1973 18.8317C20.1059 19.1969 20.3595 19.2912 20.599 19.3804C20.8034 19.4564 20.9975 19.5286 20.9584 19.7621C20.8735 20.2691 20.7892 20.2691 20.7892 20.2691C20.7892 20.2691 20.1123 19.8464 19.8588 20.0156C19.7436 20.0925 19.8553 20.1868 19.9878 20.2986C20.1468 20.4328 20.3356 20.5921 20.1973 20.7768L19.9437 21.0303C19.9437 21.0303 19.0139 20.3534 18.6755 21.1146C18.3371 21.8758 18.7598 22.2142 19.0982 22.045C19.4361 21.8758 19.1825 22.637 19.1825 22.637C19.1825 22.637 22.9035 20.4383 23.4106 17.9019ZM14.2274 28.8944C14.2274 28.8944 11.9445 27.9646 13.6354 27.0342C15.3264 26.1038 14.9043 25.0048 14.7351 25.5125C14.5658 26.0201 12.8749 26.9499 10.8455 25.4282C10.8407 25.4244 10.836 25.4205 10.8313 25.4165C10.8255 25.4115 10.8197 25.4065 10.8138 25.4018C11.3812 26.4369 12.1496 27.8462 12.6255 28.7473C12.6817 28.7599 12.7373 28.7802 12.79 28.8101C13.3819 29.1479 14.2274 28.8944 14.2274 28.8944ZM17.0688 21.2234C17.0688 21.2234 17.7457 19.8099 17.83 19.3028C17.9023 18.8706 17.5449 18.9026 17.3327 18.9217C17.2957 18.925 17.2632 18.9279 17.238 18.9279H16.8482C16.8248 18.9279 16.7949 18.9257 16.761 18.9231C16.55 18.907 16.1836 18.8791 16.2562 19.316C16.3411 19.8237 17.0174 21.1421 17.0174 21.1421L17.0431 21.8034C17.0587 21.4028 17.0688 21.2234 17.0688 21.2234ZM21.2975 28.8095C21.3501 28.7796 21.4051 28.7593 21.4619 28.7467C21.9379 27.8462 22.7062 26.4369 23.2743 25.4012C23.2689 25.4054 23.2636 25.4099 23.2584 25.4144C23.2532 25.4189 23.2479 25.4234 23.2426 25.4276C21.2132 26.9493 19.5222 26.0189 19.353 25.5119C19.1837 25.0042 18.761 26.1032 20.452 27.0336C22.143 27.9634 19.86 28.8938 19.86 28.8938C19.86 28.8938 20.7055 29.1479 21.2975 28.8095Z"
          fill="black"/>
</svg>
