<svg width="43" height="38" viewBox="0 0 43 38" fill="none" xmlns="http://www.w3.org/2000/svg">
<path d="M42.2472 18.7273C41.5935 17.6889 40.4496 17.609 40.1228 17.609L13.2402 11.2982V7.6235C13.2402 7.38385 13.0768 7.22408 12.8317 7.22408H9.15471V4.82756C13.9756 4.6678 14.0573 1.23279 14.0573 1.23279V1.15291V1.07302C14.0573 1.07302 14.0573 1.07303 14.0573 0.993142C14.0573 0.993142 14.0573 0.913258 13.9756 0.913258C13.9756 0.913258 13.9756 0.913258 13.8939 0.913258C13.8939 0.913258 13.8122 0.913258 13.8122 0.833374H13.7305H13.6488H3.84357C3.59844 0.833374 3.43502 0.993142 3.43502 1.23279C3.43502 1.23279 3.51673 4.6678 8.33761 4.82756V7.22408H4.66067C4.41554 7.22408 4.25212 7.38385 4.25212 7.6235C4.25212 7.6235 4.25212 13.2154 4.25212 13.2952C0.0849106 16.4906 0.16662 24.6387 0.16662 25.1979C0.16662 25.3577 0.24833 25.4376 0.411749 25.5175L2.61792 26.1565C2.61792 26.9554 2.86305 29.4318 4.49725 30.2306H4.57896C9.48155 31.6685 27.6212 37.4202 27.6212 37.4202C27.8663 37.5 28.1931 37.5 28.4383 37.5C29.1736 37.5 29.9907 37.2604 30.7261 36.7811C32.5237 35.6627 33.9945 33.1064 34.6482 30.0708C35.6287 29.5915 40.3679 27.195 42.1655 22.6416C42.8192 21.044 42.8192 19.686 42.2472 18.7273ZM4.25212 1.63221H13.2402C13.0768 2.43105 12.178 4.02873 8.74616 4.02873C5.31435 4.02873 4.41554 2.43105 4.25212 1.63221ZM5.06922 8.02292H12.4231V11.1384C12.0146 11.0585 11.4426 10.9786 10.7072 10.9786C8.99129 10.9786 7.4388 11.378 6.13144 12.0171C5.72289 12.1769 5.39606 12.4165 5.06922 12.6562V8.02292ZM6.53999 12.7361C8.09248 12.0171 9.64497 11.7775 10.7889 11.7775C12.0146 11.7775 12.8317 12.0171 12.8317 12.0171L38.08 17.9285C36.2824 18.4877 33.4226 20.0854 29.909 24.0796C25.0064 29.5915 22.0649 30.3904 20.5941 30.3904C20.1038 30.3904 19.8587 30.3105 19.777 30.3105L0.98372 24.8784C0.98372 23.2008 1.14714 15.3722 6.53999 12.7361ZM29.5822 33.1863C28.9285 33.9053 28.2748 34.3047 27.7029 34.3047C27.0492 34.3047 26.6406 34.065 26.3138 33.7455C25.4967 32.7869 25.4967 30.8697 25.6601 29.272C27.0492 28.3134 28.6834 26.7956 30.481 24.7186C30.8078 24.3192 31.053 24.0796 31.3798 23.6801C32.1152 27.914 31.1347 31.4289 29.5822 33.1863ZM3.43502 26.3962L19.5319 31.0294C19.5319 31.0294 19.9404 31.1892 20.5941 31.1892C21.4929 31.1892 22.7186 30.9496 24.7613 29.7513C24.5979 31.7484 24.7613 34.4645 25.7418 36.0621C20.9209 34.5443 8.74616 30.7099 4.82409 29.5117C3.84357 29.0324 3.51673 27.3548 3.43502 26.3962ZM30.2359 36.2219C29.4188 36.7012 28.6017 36.861 27.7846 36.7012C27.7846 36.7012 27.7846 36.7012 27.7029 36.7012C26.8041 36.4615 26.3138 35.6627 25.9052 34.5443C26.3955 34.8639 26.8858 35.1035 27.6212 35.1035H27.7029C28.52 35.1035 29.3371 34.6242 30.1542 33.7455C31.9518 31.7484 33.0957 27.6743 32.0335 22.8813C32.442 22.4819 32.9323 22.0026 33.3408 21.683C34.4031 23.4405 34.4031 26.9554 33.8311 29.8312C33.2591 32.7869 31.9518 35.1834 30.2359 36.2219ZM41.3484 22.4819C39.8776 26.1565 36.2824 28.4732 34.8116 29.1921C35.2202 26.3163 35.2202 23.0411 33.9945 21.1239C37.2629 18.4877 39.4691 18.3279 40.0411 18.3279C40.2862 18.3279 41.185 18.4078 41.5935 19.1268C42.0021 19.8457 41.9204 21.044 41.3484 22.4819ZM8.01077 18.248C6.94854 17.8486 5.8046 18.4877 5.31434 19.6859C4.82409 20.8842 5.31435 22.0825 6.37657 22.4819C6.6217 22.5618 6.78512 22.5618 7.03025 22.5618C7.92906 22.5618 8.74616 21.9227 9.073 21.044C9.48155 19.8457 9.073 18.6475 8.01077 18.248ZM8.2559 20.8043C7.92906 21.6032 7.27538 22.0026 6.6217 21.7629C5.96802 21.5233 5.7229 20.8043 6.04974 20.0055C6.29487 19.3664 6.78512 18.967 7.35709 18.967C7.4388 18.967 7.60222 18.967 7.68393 19.0469C8.33761 19.2066 8.58274 20.0055 8.2559 20.8043Z" fill="black"/>
</svg>
